%TF.GenerationSoftware,KiCad,Pcbnew,9.0.2*%
%TF.CreationDate,2026-02-10T23:36:41-08:00*%
%TF.ProjectId,FRCHubController,46524348-7562-4436-9f6e-74726f6c6c65,rev?*%
%TF.SameCoordinates,Original*%
%TF.FileFunction,Legend,Bot*%
%TF.FilePolarity,Positive*%
%FSLAX46Y46*%
G04 Gerber Fmt 4.6, Leading zero omitted, Abs format (unit mm)*
G04 Created by KiCad (PCBNEW 9.0.2) date 2026-02-10 23:36:41*
%MOMM*%
%LPD*%
G01*
G04 APERTURE LIST*
%ADD10C,0.000000*%
G04 APERTURE END LIST*
D10*
%TO.C,G\u002A\u002A\u002A*%
G36*
X164560364Y-57223571D02*
G01*
X164362031Y-57543431D01*
X164163698Y-57863290D01*
X164234183Y-58028724D01*
X164268451Y-58110557D01*
X164403491Y-58465134D01*
X164519226Y-58825058D01*
X164615650Y-59189513D01*
X164692759Y-59557681D01*
X164750548Y-59928745D01*
X164789014Y-60301887D01*
X164808150Y-60676290D01*
X164808054Y-60860400D01*
X164807954Y-61051137D01*
X164788421Y-61425611D01*
X164749546Y-61798893D01*
X164691324Y-62170168D01*
X164613751Y-62538617D01*
X164516823Y-62903424D01*
X164400535Y-63263770D01*
X164264882Y-63618840D01*
X164191581Y-63789772D01*
X164063510Y-64062337D01*
X163924265Y-64329907D01*
X163776512Y-64587456D01*
X163622912Y-64829961D01*
X163574080Y-64903162D01*
X163574080Y-66493661D01*
X163574080Y-67148355D01*
X163574080Y-68084160D01*
X157589840Y-68084160D01*
X151605600Y-68084160D01*
X151605600Y-67952080D01*
X151737680Y-67952080D01*
X153954254Y-67952080D01*
X153989441Y-67952079D01*
X154199234Y-67952053D01*
X154403404Y-67951990D01*
X154601031Y-67951891D01*
X154791197Y-67951758D01*
X154972984Y-67951593D01*
X155145474Y-67951397D01*
X155307747Y-67951174D01*
X155458885Y-67950923D01*
X155597970Y-67950648D01*
X155724083Y-67950349D01*
X155836306Y-67950029D01*
X155933720Y-67949689D01*
X156015407Y-67949332D01*
X156080448Y-67948959D01*
X156127924Y-67948572D01*
X156156917Y-67948172D01*
X156166509Y-67947761D01*
X156160943Y-67945715D01*
X156138385Y-67939585D01*
X156101729Y-67930465D01*
X156054373Y-67919192D01*
X155999716Y-67906607D01*
X155926344Y-67889574D01*
X155556522Y-67791394D01*
X155194010Y-67674487D01*
X154839429Y-67539249D01*
X154493398Y-67386075D01*
X154156539Y-67215363D01*
X153829471Y-67027509D01*
X153512816Y-66822908D01*
X153207192Y-66601958D01*
X152913222Y-66365054D01*
X152631524Y-66112594D01*
X152362720Y-65844972D01*
X152107430Y-65562586D01*
X151866273Y-65265833D01*
X151852065Y-65247390D01*
X151818899Y-65204455D01*
X151789997Y-65167189D01*
X151768062Y-65139074D01*
X151755799Y-65123593D01*
X151754837Y-65122512D01*
X151752497Y-65121152D01*
X151750388Y-65122665D01*
X151748498Y-65128019D01*
X151746815Y-65138185D01*
X151745326Y-65154131D01*
X151744020Y-65176827D01*
X151742883Y-65207242D01*
X151741904Y-65246345D01*
X151741070Y-65295107D01*
X151740369Y-65354495D01*
X151739789Y-65425479D01*
X151739317Y-65509030D01*
X151738941Y-65606115D01*
X151738649Y-65717704D01*
X151738429Y-65844767D01*
X151738268Y-65988273D01*
X151738154Y-66149190D01*
X151738075Y-66328490D01*
X151738019Y-66527140D01*
X151737680Y-67952080D01*
X151605600Y-67952080D01*
X151605601Y-66497345D01*
X151605601Y-64910531D01*
X151571703Y-64857560D01*
X151737645Y-64857560D01*
X151772932Y-64910705D01*
X151789962Y-64935273D01*
X151816868Y-64972727D01*
X151850815Y-65019160D01*
X151889152Y-65070949D01*
X151929227Y-65124465D01*
X152102425Y-65345136D01*
X152347982Y-65629845D01*
X152607336Y-65900241D01*
X152879794Y-66155887D01*
X153164661Y-66396343D01*
X153461245Y-66621174D01*
X153768852Y-66829939D01*
X154086790Y-67022202D01*
X154414364Y-67197525D01*
X154750882Y-67355469D01*
X155095649Y-67495597D01*
X155447974Y-67617470D01*
X155807162Y-67720652D01*
X156172520Y-67804703D01*
X156290853Y-67827672D01*
X156559691Y-67872527D01*
X156828754Y-67906757D01*
X157107240Y-67931610D01*
X157128004Y-67932828D01*
X157178481Y-67934742D01*
X157244237Y-67936374D01*
X157322067Y-67937713D01*
X157408764Y-67938747D01*
X157501123Y-67939467D01*
X157595937Y-67939860D01*
X157690003Y-67939917D01*
X157780112Y-67939626D01*
X157863061Y-67938977D01*
X157935642Y-67937958D01*
X157944915Y-67937738D01*
X159050958Y-67937738D01*
X159051873Y-67939182D01*
X159059953Y-67940518D01*
X159075889Y-67941748D01*
X159100374Y-67942879D01*
X159134101Y-67943914D01*
X159177761Y-67944858D01*
X159232048Y-67945715D01*
X159297654Y-67946491D01*
X159375271Y-67947188D01*
X159458077Y-67947761D01*
X159465592Y-67947813D01*
X159569308Y-67948369D01*
X159687113Y-67948861D01*
X159819698Y-67949293D01*
X159967757Y-67949669D01*
X160131981Y-67949996D01*
X160313063Y-67950275D01*
X160511696Y-67950513D01*
X160728571Y-67950714D01*
X160964381Y-67950882D01*
X161219819Y-67951022D01*
X161393713Y-67951096D01*
X161639313Y-67951164D01*
X161865723Y-67951176D01*
X162073623Y-67951128D01*
X162263694Y-67951018D01*
X162436614Y-67950841D01*
X162593064Y-67950594D01*
X162733722Y-67950273D01*
X162859269Y-67949875D01*
X162970384Y-67949397D01*
X163067747Y-67948834D01*
X163152038Y-67948182D01*
X163223935Y-67947440D01*
X163284120Y-67946602D01*
X163333271Y-67945666D01*
X163372068Y-67944627D01*
X163401191Y-67943483D01*
X163421319Y-67942229D01*
X163433133Y-67940863D01*
X163437311Y-67939380D01*
X163437697Y-67933628D01*
X163438216Y-67908888D01*
X163438678Y-67865796D01*
X163439082Y-67805519D01*
X163439426Y-67729224D01*
X163439709Y-67638080D01*
X163439928Y-67533253D01*
X163440082Y-67415911D01*
X163440169Y-67287223D01*
X163440187Y-67148355D01*
X163440134Y-67000475D01*
X163440008Y-66844750D01*
X163439808Y-66682350D01*
X163439532Y-66514440D01*
X163436920Y-65102200D01*
X163371395Y-65188560D01*
X163313192Y-65264288D01*
X163067748Y-65563591D01*
X162809265Y-65847931D01*
X162538289Y-66116951D01*
X162255364Y-66370293D01*
X161961034Y-66607600D01*
X161655843Y-66828514D01*
X161340337Y-67032679D01*
X161015060Y-67219737D01*
X160680556Y-67389331D01*
X160337369Y-67541103D01*
X159986045Y-67674696D01*
X159627127Y-67789753D01*
X159261160Y-67885917D01*
X159228213Y-67893686D01*
X159170840Y-67907419D01*
X159119416Y-67919969D01*
X159078557Y-67930207D01*
X159052880Y-67936999D01*
X159050958Y-67937738D01*
X157944915Y-67937738D01*
X157994651Y-67936558D01*
X158036880Y-67934768D01*
X158037782Y-67934712D01*
X158066313Y-67932542D01*
X158110627Y-67928704D01*
X158166492Y-67923587D01*
X158229680Y-67917577D01*
X158295960Y-67911061D01*
X158417398Y-67897895D01*
X158793876Y-67843784D01*
X159164799Y-67770140D01*
X159530057Y-67676993D01*
X159889544Y-67564374D01*
X160243151Y-67432311D01*
X160590770Y-67280834D01*
X160817581Y-67169712D01*
X161147489Y-66989329D01*
X161467122Y-66791754D01*
X161775780Y-66577568D01*
X162072766Y-66347353D01*
X162357382Y-66101689D01*
X162628929Y-65841159D01*
X162886710Y-65566344D01*
X163130027Y-65277824D01*
X163358180Y-64976181D01*
X163442000Y-64859010D01*
X163442000Y-61948691D01*
X163441989Y-61786087D01*
X163441928Y-61547888D01*
X163441818Y-61315592D01*
X163441660Y-61090000D01*
X163441456Y-60871913D01*
X163441210Y-60662133D01*
X163440922Y-60461458D01*
X163440594Y-60270692D01*
X163440230Y-60090634D01*
X163439831Y-59922086D01*
X163439399Y-59765848D01*
X163438936Y-59622722D01*
X163438445Y-59493509D01*
X163437927Y-59379009D01*
X163437385Y-59280023D01*
X163436820Y-59197352D01*
X163436235Y-59131798D01*
X163435632Y-59084161D01*
X163435013Y-59055242D01*
X163434380Y-59045842D01*
X163434066Y-59046286D01*
X163426163Y-59058721D01*
X163407952Y-59087785D01*
X163379767Y-59132946D01*
X163341937Y-59193667D01*
X163294795Y-59269416D01*
X163238673Y-59359658D01*
X163173901Y-59463859D01*
X163100812Y-59581484D01*
X163019737Y-59711999D01*
X162931008Y-59854870D01*
X162834957Y-60009563D01*
X162731915Y-60175544D01*
X162622213Y-60352277D01*
X162506184Y-60539229D01*
X162384158Y-60735867D01*
X162256468Y-60941654D01*
X162123446Y-61156058D01*
X161985422Y-61378543D01*
X161842729Y-61608577D01*
X161695698Y-61845623D01*
X161544660Y-62089149D01*
X161389948Y-62338620D01*
X161231893Y-62593501D01*
X161070827Y-62853259D01*
X160907080Y-63117359D01*
X158387400Y-67181407D01*
X158074234Y-67322456D01*
X158020397Y-67346665D01*
X157948821Y-67378728D01*
X157884199Y-67407533D01*
X157828843Y-67432058D01*
X157785066Y-67451279D01*
X157755179Y-67464173D01*
X157741494Y-67469716D01*
X157740816Y-67469906D01*
X157739071Y-67469935D01*
X157737436Y-67468759D01*
X157735908Y-67465741D01*
X157734484Y-67460245D01*
X157733160Y-67451632D01*
X157731933Y-67439266D01*
X157730798Y-67422510D01*
X157729752Y-67400725D01*
X157728792Y-67373276D01*
X157727914Y-67339525D01*
X157727114Y-67298835D01*
X157726388Y-67250568D01*
X157725734Y-67194087D01*
X157725146Y-67128756D01*
X157724622Y-67053937D01*
X157724159Y-66968992D01*
X157723751Y-66873285D01*
X157723396Y-66766179D01*
X157723091Y-66647036D01*
X157722830Y-66515219D01*
X157722612Y-66370092D01*
X157722431Y-66211016D01*
X157722285Y-66037354D01*
X157722170Y-65848470D01*
X157722082Y-65643727D01*
X157722017Y-65422486D01*
X157721973Y-65184111D01*
X157721944Y-64927965D01*
X157721929Y-64653411D01*
X157721922Y-64359810D01*
X157721920Y-64046527D01*
X157721920Y-60617126D01*
X159716168Y-58902343D01*
X159817311Y-58815374D01*
X163574046Y-58815374D01*
X163576603Y-61734229D01*
X163576791Y-61948691D01*
X163579160Y-64653085D01*
X163672018Y-64496642D01*
X163736442Y-64386073D01*
X163916428Y-64052263D01*
X164076699Y-63714655D01*
X164217588Y-63372326D01*
X164339428Y-63024354D01*
X164442551Y-62669818D01*
X164527289Y-62307794D01*
X164593974Y-61937360D01*
X164608895Y-61836574D01*
X164629394Y-61678954D01*
X164645373Y-61525886D01*
X164657186Y-61372434D01*
X164665185Y-61213660D01*
X164669725Y-61044628D01*
X164671160Y-60860400D01*
X164671148Y-60845046D01*
X164670684Y-60757054D01*
X164669607Y-60668578D01*
X164668007Y-60583777D01*
X164665975Y-60506813D01*
X164663602Y-60441847D01*
X164660978Y-60393040D01*
X164650966Y-60263983D01*
X164608734Y-59886246D01*
X164547557Y-59514909D01*
X164467202Y-59148694D01*
X164367436Y-58786324D01*
X164350940Y-58733296D01*
X164326200Y-58657329D01*
X164299018Y-58577140D01*
X164270209Y-58494862D01*
X164240587Y-58412629D01*
X164210966Y-58332574D01*
X164182162Y-58256832D01*
X164154987Y-58187534D01*
X164130256Y-58126816D01*
X164108784Y-58076810D01*
X164091385Y-58039650D01*
X164078873Y-58017470D01*
X164072063Y-58012404D01*
X164066955Y-58020061D01*
X164052015Y-58043583D01*
X164028444Y-58081142D01*
X163997337Y-58130982D01*
X163959788Y-58191346D01*
X163916890Y-58260479D01*
X163869736Y-58336625D01*
X163819422Y-58418027D01*
X163574046Y-58815374D01*
X159817311Y-58815374D01*
X161710415Y-57187560D01*
X162115665Y-56720200D01*
X162520915Y-56252840D01*
X160049467Y-56250279D01*
X159787124Y-56250033D01*
X159504939Y-56249818D01*
X159207615Y-56249636D01*
X158897684Y-56249488D01*
X158577679Y-56249372D01*
X158250133Y-56249289D01*
X157917579Y-56249239D01*
X157582549Y-56249223D01*
X157247577Y-56249239D01*
X156915195Y-56249288D01*
X156587936Y-56249371D01*
X156268332Y-56249486D01*
X155958918Y-56249635D01*
X155662225Y-56249817D01*
X155380786Y-56250031D01*
X155117135Y-56250279D01*
X152656251Y-56252840D01*
X153063106Y-56721558D01*
X153469960Y-57190276D01*
X155367888Y-58822121D01*
X155463860Y-58904638D01*
X157457760Y-60618999D01*
X157457760Y-64046779D01*
X157457758Y-64128501D01*
X157457717Y-64390585D01*
X157457627Y-64647049D01*
X157457490Y-64897158D01*
X157457308Y-65140178D01*
X157457082Y-65375372D01*
X157456814Y-65602008D01*
X157456507Y-65819348D01*
X157456162Y-66026659D01*
X157455781Y-66223205D01*
X157455365Y-66408251D01*
X157454918Y-66581063D01*
X157454440Y-66740904D01*
X157453933Y-66887041D01*
X157453400Y-67018738D01*
X157452842Y-67135260D01*
X157452261Y-67235872D01*
X157451659Y-67319840D01*
X157451037Y-67386427D01*
X157450398Y-67434900D01*
X157449744Y-67464522D01*
X157449076Y-67474560D01*
X157448515Y-67474506D01*
X157433862Y-67469477D01*
X157403736Y-67457106D01*
X157360748Y-67438589D01*
X157307512Y-67415122D01*
X157246639Y-67387900D01*
X157180741Y-67358118D01*
X157112432Y-67326973D01*
X157044323Y-67295659D01*
X156979027Y-67265372D01*
X156919156Y-67237307D01*
X156867323Y-67212661D01*
X156826139Y-67192628D01*
X156798217Y-67178405D01*
X156786170Y-67171186D01*
X156785835Y-67170751D01*
X156777692Y-67158229D01*
X156759241Y-67129058D01*
X156730816Y-67083775D01*
X156692750Y-67022917D01*
X156645376Y-66947019D01*
X156589027Y-66856619D01*
X156524037Y-66752253D01*
X156450739Y-66634457D01*
X156369465Y-66503768D01*
X156280549Y-66360723D01*
X156184325Y-66205859D01*
X156081125Y-66039711D01*
X155971282Y-65862816D01*
X155855130Y-65675711D01*
X155733002Y-65478932D01*
X155605230Y-65273016D01*
X155472149Y-65058500D01*
X155334092Y-64835920D01*
X155191391Y-64605812D01*
X155044380Y-64368713D01*
X154893391Y-64125160D01*
X154738759Y-63875689D01*
X154580816Y-63620837D01*
X154419895Y-63361140D01*
X154256330Y-63097135D01*
X151742760Y-59039751D01*
X151740203Y-61948655D01*
X151737645Y-64857560D01*
X151571703Y-64857560D01*
X151520640Y-64777765D01*
X151412054Y-64603198D01*
X151222360Y-64270893D01*
X151052066Y-63933780D01*
X150900949Y-63591198D01*
X150768787Y-63242481D01*
X150655359Y-62886965D01*
X150560441Y-62523987D01*
X150483811Y-62152883D01*
X150425248Y-61772988D01*
X150384529Y-61383640D01*
X150382607Y-61356901D01*
X150378917Y-61284768D01*
X150376011Y-61197792D01*
X150373889Y-61099486D01*
X150372548Y-60993367D01*
X150372535Y-60990866D01*
X150502370Y-60990866D01*
X150518851Y-61362403D01*
X150554792Y-61732138D01*
X150610103Y-62099370D01*
X150684689Y-62463395D01*
X150778457Y-62823511D01*
X150891315Y-63179015D01*
X151023169Y-63529205D01*
X151173927Y-63873377D01*
X151343495Y-64210830D01*
X151531781Y-64540860D01*
X151534753Y-64545757D01*
X151559761Y-64586451D01*
X151580679Y-64619602D01*
X151595391Y-64641910D01*
X151601786Y-64650080D01*
X151602001Y-64645462D01*
X151602313Y-64622131D01*
X151602618Y-64579827D01*
X151602913Y-64519354D01*
X151603199Y-64441514D01*
X151603474Y-64347111D01*
X151603738Y-64236948D01*
X151603988Y-64111828D01*
X151604224Y-63972554D01*
X151604446Y-63819929D01*
X151604651Y-63654757D01*
X151604839Y-63477841D01*
X151605009Y-63289983D01*
X151605160Y-63091988D01*
X151605290Y-62884658D01*
X151605399Y-62668797D01*
X151605486Y-62445207D01*
X151605549Y-62214692D01*
X151605587Y-61978056D01*
X151605600Y-61736100D01*
X151605600Y-58822121D01*
X151547180Y-58725622D01*
X151533916Y-58703830D01*
X151507763Y-58661147D01*
X151473885Y-58606066D01*
X151434012Y-58541393D01*
X151389874Y-58469931D01*
X151343200Y-58394487D01*
X151295720Y-58317865D01*
X151281330Y-58294664D01*
X151233466Y-58217605D01*
X151194898Y-58155908D01*
X151164522Y-58108058D01*
X151141235Y-58072540D01*
X151123931Y-58047839D01*
X151111508Y-58032441D01*
X151102860Y-58024830D01*
X151096884Y-58023491D01*
X151092476Y-58026910D01*
X151088531Y-58033570D01*
X151078625Y-58053541D01*
X151055881Y-58104566D01*
X151028769Y-58170482D01*
X150998358Y-58248335D01*
X150965715Y-58335168D01*
X150931911Y-58428025D01*
X150898012Y-58523950D01*
X150865089Y-58619986D01*
X150834209Y-58713177D01*
X150806441Y-58800567D01*
X150782853Y-58879200D01*
X150715140Y-59130763D01*
X150632919Y-59500764D01*
X150570625Y-59872478D01*
X150528164Y-60245201D01*
X150505443Y-60618231D01*
X150502370Y-60990866D01*
X150372535Y-60990866D01*
X150371988Y-60882950D01*
X150372208Y-60771748D01*
X150373205Y-60663277D01*
X150374978Y-60561051D01*
X150377527Y-60468587D01*
X150380849Y-60389398D01*
X150384943Y-60327000D01*
X150387426Y-60298239D01*
X150426399Y-59938509D01*
X150479241Y-59591489D01*
X150546585Y-59254626D01*
X150629066Y-58925367D01*
X150727319Y-58601161D01*
X150841976Y-58279454D01*
X150973673Y-57957694D01*
X151014354Y-57864229D01*
X150814313Y-57541134D01*
X150614271Y-57218040D01*
X150136289Y-55998590D01*
X152450234Y-55998590D01*
X152452141Y-56014283D01*
X152461381Y-56029807D01*
X152476914Y-56047348D01*
X152497700Y-56069089D01*
X152541439Y-56115680D01*
X157588338Y-56115680D01*
X162635237Y-56115680D01*
X162670651Y-56077580D01*
X162681863Y-56065412D01*
X162706728Y-56037802D01*
X162725427Y-56016245D01*
X162744788Y-55993010D01*
X162669214Y-55916177D01*
X162605764Y-55852443D01*
X162326707Y-55589466D01*
X162036145Y-55342863D01*
X161734622Y-55112949D01*
X161422682Y-54900041D01*
X161100869Y-54704454D01*
X160769728Y-54526504D01*
X160429803Y-54366506D01*
X160081637Y-54224776D01*
X159725775Y-54101630D01*
X159362760Y-53997384D01*
X159085079Y-53931768D01*
X158719060Y-53863420D01*
X158349188Y-53814403D01*
X157976742Y-53784710D01*
X157603004Y-53774337D01*
X157229255Y-53783278D01*
X156856775Y-53811528D01*
X156486846Y-53859081D01*
X156120748Y-53925933D01*
X155759762Y-54012079D01*
X155520265Y-54080590D01*
X155160682Y-54200702D01*
X154809834Y-54339107D01*
X154468012Y-54495640D01*
X154135504Y-54670135D01*
X153812598Y-54862427D01*
X153499585Y-55072351D01*
X153196752Y-55299742D01*
X152904390Y-55544434D01*
X152622786Y-55806262D01*
X152587082Y-55841141D01*
X152536729Y-55890444D01*
X152498908Y-55928656D01*
X152472578Y-55957962D01*
X152456700Y-55980545D01*
X152450234Y-55998590D01*
X150136289Y-55998590D01*
X149971952Y-55579325D01*
X149329632Y-53940611D01*
X149332236Y-53180551D01*
X149334840Y-52420492D01*
X150838520Y-54155637D01*
X152342200Y-55890783D01*
X152499680Y-55736325D01*
X152637742Y-55603827D01*
X152903351Y-55365311D01*
X153173191Y-55144690D01*
X153449451Y-54940384D01*
X153734321Y-54750815D01*
X154029987Y-54574402D01*
X154338640Y-54409568D01*
X154494498Y-54333222D01*
X154840322Y-54180194D01*
X155193531Y-54045775D01*
X155553201Y-53930147D01*
X155918406Y-53833489D01*
X156288220Y-53755981D01*
X156661718Y-53697805D01*
X157037975Y-53659140D01*
X157416064Y-53640167D01*
X157795061Y-53641065D01*
X158174040Y-53662017D01*
X158265459Y-53670070D01*
X158648308Y-53716149D01*
X159025204Y-53781582D01*
X159395781Y-53866200D01*
X159759675Y-53969835D01*
X160116519Y-54092319D01*
X160465948Y-54233485D01*
X160807596Y-54393165D01*
X161141099Y-54571189D01*
X161466090Y-54767391D01*
X161782204Y-54981601D01*
X162089076Y-55213653D01*
X162386339Y-55463378D01*
X162673629Y-55730608D01*
X162835710Y-55889097D01*
X162863264Y-55857608D01*
X162864256Y-55856470D01*
X162876496Y-55842374D01*
X162901283Y-55813797D01*
X162938004Y-55771448D01*
X162986043Y-55716036D01*
X163044787Y-55648269D01*
X163113621Y-55568856D01*
X163191931Y-55478506D01*
X163279103Y-55377928D01*
X163374522Y-55267830D01*
X163477574Y-55148922D01*
X163587646Y-55021912D01*
X163704122Y-54887508D01*
X163826388Y-54746420D01*
X163953831Y-54599357D01*
X164085835Y-54447026D01*
X164221787Y-54290138D01*
X164361072Y-54129400D01*
X164398108Y-54086661D01*
X164536227Y-53927319D01*
X164670708Y-53772238D01*
X164800948Y-53622112D01*
X164926343Y-53477636D01*
X165046290Y-53339503D01*
X165160183Y-53208407D01*
X165267420Y-53085042D01*
X165367396Y-52970101D01*
X165459507Y-52864279D01*
X165543151Y-52768269D01*
X165617722Y-52682766D01*
X165682616Y-52608462D01*
X165737231Y-52546053D01*
X165780962Y-52496231D01*
X165813205Y-52459690D01*
X165833356Y-52437126D01*
X165840812Y-52429230D01*
X165841433Y-52430154D01*
X165843118Y-52446156D01*
X165844571Y-52481319D01*
X165845782Y-52534777D01*
X165846746Y-52605663D01*
X165847453Y-52693113D01*
X165847897Y-52796261D01*
X165848069Y-52914240D01*
X165847963Y-53046185D01*
X165847569Y-53191230D01*
X165844840Y-53956680D01*
X165202602Y-55590125D01*
X165044196Y-55993010D01*
X164560364Y-57223571D01*
G37*
%TD*%
M02*
