M48
; DRILL file {KiCad 9.0.2} date 2026-02-10T23:36:47-0800
; FORMAT={-:-/ absolute / metric / decimal}
; #@! TF.CreationDate,2026-02-10T23:36:47-08:00
; #@! TF.GenerationSoftware,Kicad,Pcbnew,9.0.2
; #@! TF.FileFunction,Plated,1,2,PTH
FMAT,2
METRIC
; #@! TA.AperFunction,Plated,PTH,ViaDrill
T1C0.300
; #@! TA.AperFunction,Plated,PTH,ComponentDrill
T2C0.950
; #@! TA.AperFunction,Plated,PTH,ComponentDrill
T3C1.000
; #@! TA.AperFunction,Plated,PTH,ComponentDrill
T4C1.400
; #@! TA.AperFunction,Plated,PTH,ComponentDrill
T5C1.600
; #@! TA.AperFunction,Plated,PTH,ComponentDrill
T6C5.300
%
G90
G05
T1
X133.6Y-94.0
X134.6Y-107.2
X135.89Y-102.616
X137.414Y-78.232
X137.414Y-101.092
X138.938Y-75.184
X139.7Y-99.06
X139.954Y-86.106
X142.748Y-110.744
X145.796Y-112.522
X146.304Y-83.566
X146.4Y-96.2
X146.558Y-75.692
X146.558Y-79.756
X147.066Y-62.738
X150.368Y-79.502
X150.622Y-104.902
X150.876Y-107.95
X159.258Y-107.442
X168.148Y-85.09
X169.164Y-57.658
X172.212Y-55.372
X172.212Y-74.422
X172.212Y-93.472
X172.212Y-112.522
T2
X132.08Y-66.907
X132.08Y-69.407
X132.08Y-71.907
T3
X129.54Y-79.433
X129.54Y-91.44
X129.54Y-99.06
X129.54Y-101.6
X129.54Y-104.14
X129.54Y-106.68
X129.54Y-109.22
X129.54Y-111.76
X129.54Y-114.3
X129.54Y-116.84
X132.08Y-79.433
X132.08Y-91.44
X132.08Y-99.06
X132.08Y-101.6
X132.08Y-104.14
X132.08Y-106.68
X132.08Y-109.22
X132.08Y-111.76
X132.08Y-114.3
X132.08Y-116.84
X134.62Y-79.433
X134.62Y-91.44
X148.402Y-64.48
X148.402Y-67.02
X148.402Y-69.56
X148.402Y-72.1
X148.402Y-74.64
X148.402Y-77.18
X148.402Y-79.72
X148.402Y-82.26
X148.402Y-84.8
X148.402Y-87.34
X148.402Y-89.88
X148.402Y-92.42
X148.402Y-94.96
X148.402Y-97.5
X148.402Y-100.04
X148.402Y-102.58
X148.402Y-105.12
X148.402Y-107.66
X148.402Y-110.2
X148.402Y-112.74
X166.182Y-64.48
X166.182Y-67.02
X166.182Y-69.56
X166.182Y-72.1
X166.182Y-74.64
X166.182Y-77.18
X166.182Y-79.72
X166.182Y-82.26
X166.182Y-84.8
X166.182Y-87.34
X166.182Y-89.88
X166.182Y-92.42
X166.182Y-94.96
X166.182Y-97.5
X166.182Y-100.04
X166.182Y-102.58
X166.182Y-105.12
X166.182Y-107.66
X166.182Y-110.2
X166.182Y-112.74
T4
X159.96Y-122.962
X165.04Y-122.962
T5
X175.761Y-60.792
X175.761Y-79.792
X175.761Y-98.792
X175.761Y-117.792
X178.261Y-58.292
X178.261Y-60.792
X178.261Y-63.292
X178.261Y-77.292
X178.261Y-79.792
X178.261Y-82.292
X178.261Y-96.292
X178.261Y-98.792
X178.261Y-101.292
X178.261Y-115.292
X178.261Y-117.792
X178.261Y-120.292
X180.761Y-60.792
X180.761Y-79.792
X180.761Y-98.792
X180.761Y-117.792
T6
X127.0Y-50.8
X127.0Y-127.0
X190.5Y-50.8
X190.5Y-127.0
T3
G00X134.113Y-56.55
M15
G01X134.113Y-54.35
M16
G05
G00X140.013Y-52.05
M15
G01X137.813Y-52.05
M16
G05
G00X140.213Y-58.35
M15
G01X137.613Y-58.35
M16
G05
M30
