%TF.GenerationSoftware,KiCad,Pcbnew,9.0.2*%
%TF.CreationDate,2026-02-11T00:38:22-08:00*%
%TF.ProjectId,FRCHubController,46524348-7562-4436-9f6e-74726f6c6c65,rev?*%
%TF.SameCoordinates,Original*%
%TF.FileFunction,Copper,L1,Top*%
%TF.FilePolarity,Positive*%
%FSLAX46Y46*%
G04 Gerber Fmt 4.6, Leading zero omitted, Abs format (unit mm)*
G04 Created by KiCad (PCBNEW 9.0.2) date 2026-02-11 00:38:22*
%MOMM*%
%LPD*%
G01*
G04 APERTURE LIST*
G04 Aperture macros list*
%AMRoundRect*
0 Rectangle with rounded corners*
0 $1 Rounding radius*
0 $2 $3 $4 $5 $6 $7 $8 $9 X,Y pos of 4 corners*
0 Add a 4 corners polygon primitive as box body*
4,1,4,$2,$3,$4,$5,$6,$7,$8,$9,$2,$3,0*
0 Add four circle primitives for the rounded corners*
1,1,$1+$1,$2,$3*
1,1,$1+$1,$4,$5*
1,1,$1+$1,$6,$7*
1,1,$1+$1,$8,$9*
0 Add four rect primitives between the rounded corners*
20,1,$1+$1,$2,$3,$4,$5,0*
20,1,$1+$1,$4,$5,$6,$7,0*
20,1,$1+$1,$6,$7,$8,$9,0*
20,1,$1+$1,$8,$9,$2,$3,0*%
G04 Aperture macros list end*
%TA.AperFunction,SMDPad,CuDef*%
%ADD10RoundRect,0.087500X0.537500X0.087500X-0.537500X0.087500X-0.537500X-0.087500X0.537500X-0.087500X0*%
%TD*%
%TA.AperFunction,ComponentPad*%
%ADD11R,1.700000X1.700000*%
%TD*%
%TA.AperFunction,ComponentPad*%
%ADD12C,1.700000*%
%TD*%
%TA.AperFunction,ComponentPad*%
%ADD13C,10.600000*%
%TD*%
%TA.AperFunction,ComponentPad*%
%ADD14C,2.200000*%
%TD*%
%TA.AperFunction,ComponentPad*%
%ADD15R,2.100000X2.100000*%
%TD*%
%TA.AperFunction,ComponentPad*%
%ADD16C,2.100000*%
%TD*%
%TA.AperFunction,ComponentPad*%
%ADD17RoundRect,0.250000X0.725000X-0.600000X0.725000X0.600000X-0.725000X0.600000X-0.725000X-0.600000X0*%
%TD*%
%TA.AperFunction,ComponentPad*%
%ADD18O,1.950000X1.700000*%
%TD*%
%TA.AperFunction,SMDPad,CuDef*%
%ADD19RoundRect,0.237500X-0.237500X0.250000X-0.237500X-0.250000X0.237500X-0.250000X0.237500X0.250000X0*%
%TD*%
%TA.AperFunction,SMDPad,CuDef*%
%ADD20RoundRect,0.237500X0.237500X-0.250000X0.237500X0.250000X-0.237500X0.250000X-0.237500X-0.250000X0*%
%TD*%
%TA.AperFunction,ComponentPad*%
%ADD21R,4.600000X2.000000*%
%TD*%
%TA.AperFunction,ComponentPad*%
%ADD22O,4.200000X2.000000*%
%TD*%
%TA.AperFunction,ComponentPad*%
%ADD23O,2.000000X4.200000*%
%TD*%
%TA.AperFunction,ViaPad*%
%ADD24C,0.600000*%
%TD*%
%TA.AperFunction,Conductor*%
%ADD25C,0.200000*%
%TD*%
%TA.AperFunction,Conductor*%
%ADD26C,0.300000*%
%TD*%
%TA.AperFunction,Conductor*%
%ADD27C,1.000000*%
%TD*%
G04 APERTURE END LIST*
D10*
%TO.P,U6,8,VCCB*%
%TO.N,+5V*%
X134800000Y-86950000D03*
%TO.P,U6,7,B1*%
%TO.N,Net-(J2-Pin_1)*%
X134800000Y-86450000D03*
%TO.P,U6,6,B2*%
%TO.N,Net-(J3-Pin_1)*%
X134800000Y-85950000D03*
%TO.P,U6,5,DIR*%
%TO.N,+3.3V*%
X134800000Y-85450000D03*
%TO.P,U6,4,GND*%
%TO.N,GND*%
X137600000Y-85450000D03*
%TO.P,U6,3,A2*%
%TO.N,/PWM2*%
X137600000Y-85950000D03*
%TO.P,U6,2,A1*%
%TO.N,/PWM1*%
X137600000Y-86450000D03*
%TO.P,U6,1,VCCA*%
%TO.N,+3.3V*%
X137600000Y-86950000D03*
%TD*%
D11*
%TO.P,J5,1,Pin_1*%
%TO.N,/R1*%
X129540000Y-99060000D03*
D12*
%TO.P,J5,2,Pin_2*%
%TO.N,/G1*%
X132080000Y-99060000D03*
%TO.P,J5,3,Pin_3*%
%TO.N,/B1*%
X129540000Y-101600000D03*
%TO.P,J5,4,Pin_4*%
%TO.N,GND*%
X132080000Y-101600000D03*
%TO.P,J5,5,Pin_5*%
%TO.N,/R2*%
X129540000Y-104140000D03*
%TO.P,J5,6,Pin_6*%
%TO.N,/G2*%
X132080000Y-104140000D03*
%TO.P,J5,7,Pin_7*%
%TO.N,/B2*%
X129540000Y-106680000D03*
%TO.P,J5,8,Pin_8*%
%TO.N,/E*%
X132080000Y-106680000D03*
%TO.P,J5,9,Pin_9*%
%TO.N,/A*%
X129540000Y-109220000D03*
%TO.P,J5,10,Pin_10*%
%TO.N,/B*%
X132080000Y-109220000D03*
%TO.P,J5,11,Pin_11*%
%TO.N,/C*%
X129540000Y-111760000D03*
%TO.P,J5,12,Pin_12*%
%TO.N,/D*%
X132080000Y-111760000D03*
%TO.P,J5,13,Pin_13*%
%TO.N,/CLK*%
X129540000Y-114300000D03*
%TO.P,J5,14,Pin_14*%
%TO.N,/LAT*%
X132080000Y-114300000D03*
%TO.P,J5,15,Pin_15*%
%TO.N,/OE*%
X129540000Y-116840000D03*
%TO.P,J5,16,Pin_16*%
%TO.N,GND*%
X132080000Y-116840000D03*
%TD*%
D11*
%TO.P,J3,1,Pin_1*%
%TO.N,Net-(J3-Pin_1)*%
X129520000Y-79600000D03*
D12*
%TO.P,J3,2,Pin_2*%
%TO.N,+5V*%
X132060000Y-79600000D03*
%TO.P,J3,3,Pin_3*%
%TO.N,GND*%
X134600000Y-79600000D03*
%TD*%
D13*
%TO.P,H2,1,1*%
%TO.N,GND*%
X190500000Y-50800000D03*
%TD*%
D12*
%TO.P,U1,1,GPIO20*%
%TO.N,unconnected-(U1-GPIO20-Pad1)*%
X148402000Y-64480000D03*
%TO.P,U1,2,GPIO19*%
%TO.N,unconnected-(U1-GPIO19-Pad2)*%
X148402000Y-67020000D03*
%TO.P,U1,3,GND*%
%TO.N,GND*%
X148402000Y-69560000D03*
%TO.P,U1,4,GPIO48*%
%TO.N,/C*%
X148402000Y-72100000D03*
%TO.P,U1,5,GPIO47*%
%TO.N,/LAT*%
X148402000Y-74640000D03*
%TO.P,U1,6,GPIO46*%
%TO.N,/OE*%
X148402000Y-77180000D03*
%TO.P,U1,7,GPIO45*%
%TO.N,/A*%
X148402000Y-79720000D03*
%TO.P,U1,8,GND*%
%TO.N,GND*%
X148402000Y-82260000D03*
%TO.P,U1,9,GPIO42*%
%TO.N,/R1*%
X148402000Y-84800000D03*
%TO.P,U1,10,GPIO41*%
%TO.N,/G1*%
X148402000Y-87340000D03*
%TO.P,U1,11,GPIO40*%
%TO.N,/B1*%
X148402000Y-89880000D03*
%TO.P,U1,12,GPIO39*%
%TO.N,/G2*%
X148402000Y-92420000D03*
%TO.P,U1,13,GND*%
%TO.N,GND*%
X148402000Y-94960000D03*
%TO.P,U1,14,GPIO38*%
%TO.N,/R2*%
X148402000Y-97500000D03*
%TO.P,U1,15,GPIO37*%
%TO.N,/B2*%
X148402000Y-100040000D03*
%TO.P,U1,16,GPIO36*%
%TO.N,/B*%
X148402000Y-102580000D03*
%TO.P,U1,17,GPIO35*%
%TO.N,/D*%
X148402000Y-105120000D03*
%TO.P,U1,18,GND*%
%TO.N,GND*%
X148402000Y-107660000D03*
%TO.P,U1,19,GPIO34*%
%TO.N,/PWM2*%
X148402000Y-110200000D03*
%TO.P,U1,20,GPIO33*%
%TO.N,/PWM1*%
X148402000Y-112740000D03*
%TO.P,U1,21,GPIO43*%
%TO.N,unconnected-(U1-GPIO43-Pad21)*%
X166182000Y-112740000D03*
%TO.P,U1,22,GPIO44*%
%TO.N,unconnected-(U1-GPIO44-Pad22)*%
X166182000Y-110200000D03*
%TO.P,U1,23,GND*%
%TO.N,GND*%
X166182000Y-107660000D03*
%TO.P,U1,24,GPIO0*%
%TO.N,unconnected-(U1-GPIO0-Pad24)*%
X166182000Y-105120000D03*
%TO.P,U1,25,GPIO1*%
%TO.N,/LED*%
X166182000Y-102580000D03*
%TO.P,U1,26,GPIO2*%
%TO.N,/CLK*%
X166182000Y-100040000D03*
%TO.P,U1,27,GPIO3*%
%TO.N,unconnected-(U1-GPIO3-Pad27)*%
X166182000Y-97500000D03*
%TO.P,U1,28,GND*%
%TO.N,GND*%
X166182000Y-94960000D03*
%TO.P,U1,29,GPIO15*%
%TO.N,/PHOTOEYE1*%
X166182000Y-92420000D03*
%TO.P,U1,30,CHIP_UP*%
%TO.N,unconnected-(U1-CHIP_UP-Pad30)*%
X166182000Y-89880000D03*
%TO.P,U1,31,GPIO18*%
%TO.N,/PHOTOEYE4*%
X166182000Y-87340000D03*
%TO.P,U1,32,GPIO16*%
%TO.N,/PHOTOEYE2*%
X166182000Y-84800000D03*
%TO.P,U1,33,GND*%
%TO.N,GND*%
X166182000Y-82260000D03*
%TO.P,U1,34,GPIO17*%
%TO.N,/PHOTOEYE3*%
X166182000Y-79720000D03*
%TO.P,U1,35,GPIO21*%
%TO.N,/E*%
X166182000Y-77180000D03*
%TO.P,U1,36,3V3*%
%TO.N,+3.3V*%
X166182000Y-74640000D03*
%TO.P,U1,37,3V3_EN*%
%TO.N,unconnected-(U1-3V3_EN-Pad37)*%
X166182000Y-72100000D03*
%TO.P,U1,38,GND*%
%TO.N,GND*%
X166182000Y-69560000D03*
%TO.P,U1,39,VSYS*%
%TO.N,+5V*%
X166182000Y-67020000D03*
%TO.P,U1,40,VBUS*%
%TO.N,unconnected-(U1-VBUS-Pad40)*%
X166182000Y-64480000D03*
%TD*%
D14*
%TO.P,U4,1,Pin_1*%
%TO.N,+12V*%
X178261200Y-96291600D03*
%TO.P,U4,2,Pin_2*%
%TO.N,unconnected-(U4-Pin_2-Pad2)*%
X180761200Y-98791600D03*
%TO.P,U4,3,Pin_3*%
%TO.N,GND*%
X178261200Y-101291600D03*
%TO.P,U4,4,Pin_4*%
%TO.N,Net-(U4-Pin_4)*%
X175761200Y-98791600D03*
%TO.P,U4,5,Pin_5*%
%TO.N,unconnected-(U4-Pin_5-Pad5)*%
X178261200Y-98791600D03*
%TD*%
D11*
%TO.P,J2,1,Pin_1*%
%TO.N,Net-(J2-Pin_1)*%
X129540000Y-91600000D03*
D12*
%TO.P,J2,2,Pin_2*%
%TO.N,+5V*%
X132080000Y-91600000D03*
%TO.P,J2,3,Pin_3*%
%TO.N,GND*%
X134620000Y-91600000D03*
%TD*%
D13*
%TO.P,H1,1,1*%
%TO.N,GND*%
X127000000Y-50800000D03*
%TD*%
D15*
%TO.P,J6,1,Pin_1*%
%TO.N,+12V*%
X165040000Y-122962500D03*
D16*
%TO.P,J6,2,Pin_2*%
%TO.N,GND*%
X159960000Y-122962500D03*
%TD*%
D13*
%TO.P,H4,1,1*%
%TO.N,GND*%
X190500000Y-127000000D03*
%TD*%
D17*
%TO.P,J1,1,Pin_1*%
%TO.N,+5V*%
X132080000Y-71907400D03*
D18*
%TO.P,J1,2,Pin_2*%
%TO.N,/LED*%
X132080000Y-69407400D03*
%TO.P,J1,3,Pin_3*%
%TO.N,GND*%
X132080000Y-66907400D03*
%TD*%
D19*
%TO.P,R8,1*%
%TO.N,/PHOTOEYE3*%
X170761200Y-96879100D03*
%TO.P,R8,2*%
%TO.N,Net-(U4-Pin_4)*%
X170761200Y-98704100D03*
%TD*%
%TO.P,R6,1*%
%TO.N,/PHOTOEYE2*%
X170761200Y-77879100D03*
%TO.P,R6,2*%
%TO.N,Net-(U3-Pin_4)*%
X170761200Y-79704100D03*
%TD*%
D14*
%TO.P,U3,1,Pin_1*%
%TO.N,+12V*%
X178261200Y-77291600D03*
%TO.P,U3,2,Pin_2*%
%TO.N,unconnected-(U3-Pin_2-Pad2)*%
X180761200Y-79791600D03*
%TO.P,U3,3,Pin_3*%
%TO.N,GND*%
X178261200Y-82291600D03*
%TO.P,U3,4,Pin_4*%
%TO.N,Net-(U3-Pin_4)*%
X175761200Y-79791600D03*
%TO.P,U3,5,Pin_5*%
%TO.N,unconnected-(U3-Pin_5-Pad5)*%
X178261200Y-79791600D03*
%TD*%
D13*
%TO.P,H3,1,1*%
%TO.N,GND*%
X127000000Y-127000000D03*
%TD*%
D20*
%TO.P,R5,1*%
%TO.N,/PHOTOEYE2*%
X170761200Y-76204100D03*
%TO.P,R5,2*%
%TO.N,GND*%
X170761200Y-74379100D03*
%TD*%
D14*
%TO.P,U2,1,Pin_1*%
%TO.N,+12V*%
X178261200Y-58291600D03*
%TO.P,U2,2,Pin_2*%
%TO.N,unconnected-(U2-Pin_2-Pad2)*%
X180761200Y-60791600D03*
%TO.P,U2,3,Pin_3*%
%TO.N,GND*%
X178261200Y-63291600D03*
%TO.P,U2,4,Pin_4*%
%TO.N,Net-(U2-Pin_4)*%
X175761200Y-60791600D03*
%TO.P,U2,5,Pin_5*%
%TO.N,unconnected-(U2-Pin_5-Pad5)*%
X178261200Y-60791600D03*
%TD*%
D19*
%TO.P,R4,1*%
%TO.N,/PHOTOEYE1*%
X170761200Y-58879100D03*
%TO.P,R4,2*%
%TO.N,Net-(U2-Pin_4)*%
X170761200Y-60704100D03*
%TD*%
D20*
%TO.P,R9,1*%
%TO.N,/PHOTOEYE4*%
X170761200Y-114204100D03*
%TO.P,R9,2*%
%TO.N,GND*%
X170761200Y-112379100D03*
%TD*%
D14*
%TO.P,U5,1,Pin_1*%
%TO.N,+12V*%
X178261200Y-115291600D03*
%TO.P,U5,2,Pin_2*%
%TO.N,unconnected-(U5-Pin_2-Pad2)*%
X180761200Y-117791600D03*
%TO.P,U5,3,Pin_3*%
%TO.N,GND*%
X178261200Y-120291600D03*
%TO.P,U5,4,Pin_4*%
%TO.N,Net-(U5-Pin_4)*%
X175761200Y-117791600D03*
%TO.P,U5,5,Pin_5*%
%TO.N,unconnected-(U5-Pin_5-Pad5)*%
X178261200Y-117791600D03*
%TD*%
D20*
%TO.P,R3,1*%
%TO.N,/PHOTOEYE1*%
X170761200Y-57204100D03*
%TO.P,R3,2*%
%TO.N,GND*%
X170761200Y-55379100D03*
%TD*%
D19*
%TO.P,R10,1*%
%TO.N,/PHOTOEYE4*%
X170761200Y-115879100D03*
%TO.P,R10,2*%
%TO.N,Net-(U5-Pin_4)*%
X170761200Y-117704100D03*
%TD*%
D20*
%TO.P,R7,1*%
%TO.N,/PHOTOEYE3*%
X170761200Y-95204100D03*
%TO.P,R7,2*%
%TO.N,GND*%
X170761200Y-93379100D03*
%TD*%
D21*
%TO.P,J4,1*%
%TO.N,+5V*%
X138912600Y-58350000D03*
D22*
%TO.P,J4,2*%
%TO.N,GND*%
X138912600Y-52050000D03*
D23*
%TO.P,J4,3*%
X134112600Y-55450000D03*
%TD*%
D24*
%TO.N,GND*%
X134200000Y-84000000D03*
X139000000Y-83200000D03*
X150876000Y-107950000D03*
X137414000Y-101092000D03*
X147066000Y-62738000D03*
X145796000Y-112522000D03*
X133600000Y-94000000D03*
X139954000Y-86106000D03*
X172212000Y-74422000D03*
X135890000Y-102616000D03*
X172212000Y-93472000D03*
X172212000Y-112522000D03*
X169164000Y-57658000D03*
X139700000Y-99060000D03*
X172212000Y-55372000D03*
X168148000Y-85090000D03*
X150368000Y-79502000D03*
X146400000Y-96200000D03*
X134600000Y-107200000D03*
X146304000Y-83566000D03*
X137414000Y-78232000D03*
X159258000Y-107442000D03*
X150622000Y-104902000D03*
X146558000Y-75692000D03*
X142748000Y-110744000D03*
X138938000Y-75184000D03*
X146558000Y-79756000D03*
%TD*%
D25*
%TO.N,+5V*%
X132080000Y-89670000D02*
X132080000Y-91600000D01*
X134800000Y-86950000D02*
X132080000Y-89670000D01*
D26*
%TO.N,+3.3V*%
X139460442Y-84200000D02*
X142749442Y-80911000D01*
X136050000Y-84200000D02*
X139460442Y-84200000D01*
X134800000Y-85450000D02*
X136050000Y-84200000D01*
X135476848Y-85450000D02*
X134800000Y-85450000D01*
X135726000Y-85699152D02*
X135476848Y-85450000D01*
X136750000Y-86950000D02*
X135726000Y-85926000D01*
X137600000Y-86950000D02*
X136750000Y-86950000D01*
X135726000Y-85926000D02*
X135726000Y-85699152D01*
D25*
%TO.N,/PWM2*%
X141732000Y-89319222D02*
X138362778Y-85950000D01*
X138362778Y-85950000D02*
X137600000Y-85950000D01*
X141732000Y-100132000D02*
X141732000Y-89319222D01*
X148000000Y-106400000D02*
X141732000Y-100132000D01*
X149553000Y-108901000D02*
X149553000Y-106881000D01*
X149553000Y-106881000D02*
X149072000Y-106400000D01*
X148402000Y-110052000D02*
X149553000Y-108901000D01*
X149072000Y-106400000D02*
X148000000Y-106400000D01*
%TO.N,/PWM1*%
X148402000Y-112674710D02*
X148402000Y-112740000D01*
X140362864Y-88446475D02*
X140362864Y-104635574D01*
X138366389Y-86450000D02*
X140362864Y-88446475D01*
X140362864Y-104635574D02*
X148402000Y-112674710D01*
X137600000Y-86450000D02*
X138366389Y-86450000D01*
%TO.N,Net-(J3-Pin_1)*%
X129520000Y-81294999D02*
X129520000Y-79600000D01*
X134175001Y-85950000D02*
X129520000Y-81294999D01*
X134800000Y-85950000D02*
X134175001Y-85950000D01*
%TO.N,Net-(J2-Pin_1)*%
X129540000Y-91085001D02*
X129540000Y-91600000D01*
X134800000Y-86450000D02*
X134175001Y-86450000D01*
X134175001Y-86450000D02*
X129540000Y-91085001D01*
D27*
%TO.N,+5V*%
X132080000Y-71907400D02*
X132080000Y-79432800D01*
D26*
%TO.N,/LED*%
X153552000Y-115062000D02*
X166182000Y-102432000D01*
X127938000Y-73549400D02*
X127938000Y-92777810D01*
X144018000Y-113284000D02*
X145796000Y-115062000D01*
X144018000Y-108857810D02*
X144018000Y-113284000D01*
X132080000Y-69407400D02*
X127938000Y-73549400D01*
X127938000Y-92777810D02*
X144018000Y-108857810D01*
X145796000Y-115062000D02*
X153552000Y-115062000D01*
D25*
%TO.N,/PHOTOEYE1*%
X163200000Y-80640000D02*
X163200000Y-89290000D01*
X165440000Y-78400000D02*
X163200000Y-80640000D01*
X169000000Y-60640300D02*
X169000000Y-76079760D01*
X170761200Y-58879100D02*
X169000000Y-60640300D01*
X169000000Y-76079760D02*
X166679760Y-78400000D01*
X170761200Y-58879100D02*
X170761200Y-57204100D01*
X166679760Y-78400000D02*
X165440000Y-78400000D01*
X163200000Y-89290000D02*
X166182000Y-92272000D01*
%TO.N,/PHOTOEYE2*%
X170761200Y-77879100D02*
X170761200Y-76204100D01*
X169985200Y-78655100D02*
X170761200Y-77879100D01*
X166182000Y-84652000D02*
X169985200Y-80848800D01*
X169985200Y-80848800D02*
X169985200Y-78655100D01*
%TO.N,/PHOTOEYE3*%
X164000000Y-85000000D02*
X164000000Y-80400000D01*
X166783960Y-85928200D02*
X164928200Y-85928200D01*
X170761200Y-96879100D02*
X170761200Y-95204100D01*
X169985200Y-94428100D02*
X169985200Y-89129440D01*
X164000000Y-80400000D02*
X164828000Y-79572000D01*
X169985200Y-89129440D02*
X166783960Y-85928200D01*
X164928200Y-85928200D02*
X164000000Y-85000000D01*
X170761200Y-95204100D02*
X169985200Y-94428100D01*
X164828000Y-79572000D02*
X166182000Y-79572000D01*
%TO.N,/PHOTOEYE4*%
X166182000Y-87192000D02*
X168681400Y-89691400D01*
X170761200Y-115879100D02*
X170761200Y-114204100D01*
X168681400Y-112124300D02*
X170761200Y-114204100D01*
X168681400Y-89691400D02*
X168681400Y-112124300D01*
D26*
%TO.N,+3.3V*%
X159763000Y-80911000D02*
X142749442Y-80911000D01*
X166182000Y-74492000D02*
X159763000Y-80911000D01*
D25*
%TO.N,Net-(U2-Pin_4)*%
X175761200Y-60791600D02*
X170848700Y-60791600D01*
X170848700Y-60791600D02*
X170761200Y-60704100D01*
%TO.N,Net-(U3-Pin_4)*%
X170848700Y-79791600D02*
X170761200Y-79704100D01*
X175761200Y-79791600D02*
X170848700Y-79791600D01*
%TO.N,Net-(U4-Pin_4)*%
X175761200Y-98791600D02*
X170848700Y-98791600D01*
X170848700Y-98791600D02*
X170761200Y-98704100D01*
%TO.N,Net-(U5-Pin_4)*%
X175761200Y-117791600D02*
X170848700Y-117791600D01*
X170848700Y-117791600D02*
X170761200Y-117704100D01*
%TD*%
%TA.AperFunction,Conductor*%
%TO.N,+5V*%
G36*
X166058948Y-55899734D02*
G01*
X166104749Y-55952498D01*
X166116000Y-56004108D01*
X166116000Y-63017213D01*
X166096315Y-63084252D01*
X166043511Y-63130007D01*
X166011398Y-63139686D01*
X165865760Y-63162753D01*
X165663585Y-63228444D01*
X165474179Y-63324951D01*
X165302213Y-63449890D01*
X165151890Y-63600213D01*
X165026951Y-63772179D01*
X164930444Y-63961585D01*
X164864753Y-64163760D01*
X164831500Y-64373713D01*
X164831500Y-64586286D01*
X164864753Y-64796239D01*
X164930444Y-64998414D01*
X165026951Y-65187820D01*
X165151890Y-65359786D01*
X165302213Y-65510109D01*
X165474179Y-65635048D01*
X165474181Y-65635049D01*
X165474184Y-65635051D01*
X165483493Y-65639794D01*
X165534290Y-65687766D01*
X165551087Y-65755587D01*
X165528552Y-65821722D01*
X165483505Y-65860760D01*
X165474446Y-65865376D01*
X165474440Y-65865380D01*
X165420282Y-65904727D01*
X165420282Y-65904728D01*
X166052591Y-66537037D01*
X165989007Y-66554075D01*
X165874993Y-66619901D01*
X165781901Y-66712993D01*
X165716075Y-66827007D01*
X165699037Y-66890591D01*
X165066728Y-66258282D01*
X165066727Y-66258282D01*
X165027380Y-66312439D01*
X164930904Y-66501782D01*
X164865242Y-66703869D01*
X164865242Y-66703872D01*
X164832000Y-66913753D01*
X164832000Y-67126246D01*
X164865242Y-67336127D01*
X164865242Y-67336130D01*
X164930904Y-67538217D01*
X165027375Y-67727550D01*
X165066728Y-67781716D01*
X165699037Y-67149408D01*
X165716075Y-67212993D01*
X165781901Y-67327007D01*
X165874993Y-67420099D01*
X165989007Y-67485925D01*
X166052588Y-67502962D01*
X165420282Y-68135269D01*
X165420282Y-68135270D01*
X165474452Y-68174626D01*
X165474451Y-68174626D01*
X165483495Y-68179234D01*
X165486906Y-68182455D01*
X165491444Y-68183658D01*
X165512070Y-68206221D01*
X165534292Y-68227208D01*
X165535420Y-68231763D01*
X165538586Y-68235227D01*
X165543739Y-68265358D01*
X165551087Y-68295029D01*
X165549573Y-68299469D01*
X165550365Y-68304097D01*
X165538407Y-68332236D01*
X165528550Y-68361164D01*
X165524366Y-68365279D01*
X165523040Y-68368402D01*
X165512926Y-68376535D01*
X165496990Y-68392215D01*
X165490490Y-68396640D01*
X165474184Y-68404949D01*
X165412962Y-68449428D01*
X165411395Y-68450496D01*
X165379887Y-68460664D01*
X165348685Y-68471798D01*
X165345073Y-68471901D01*
X165344903Y-68471956D01*
X165344732Y-68471910D01*
X165341606Y-68472000D01*
X161838224Y-68472000D01*
X161771185Y-68452315D01*
X161768409Y-68450478D01*
X159655996Y-67011359D01*
X151892000Y-61722000D01*
X146050000Y-61722000D01*
X146050000Y-70052638D01*
X146030315Y-70119677D01*
X146013681Y-70140319D01*
X141768319Y-74385681D01*
X141706996Y-74419166D01*
X141680638Y-74422000D01*
X139214840Y-74422000D01*
X139177746Y-74414623D01*
X139177320Y-74416030D01*
X139171488Y-74414260D01*
X139016845Y-74383500D01*
X139016842Y-74383500D01*
X138859158Y-74383500D01*
X138859155Y-74383500D01*
X138704511Y-74414260D01*
X138698680Y-74416030D01*
X138698253Y-74414623D01*
X138661160Y-74422000D01*
X130934000Y-74422000D01*
X130866961Y-74402315D01*
X130821206Y-74349511D01*
X130810000Y-74298000D01*
X130810000Y-73274609D01*
X130829685Y-73207570D01*
X130882489Y-73161815D01*
X130951647Y-73151871D01*
X130999098Y-73169071D01*
X131035873Y-73191755D01*
X131035880Y-73191758D01*
X131202302Y-73246905D01*
X131202309Y-73246906D01*
X131305019Y-73257399D01*
X131829999Y-73257399D01*
X131830000Y-73257398D01*
X131830000Y-72311545D01*
X131896657Y-72350030D01*
X132017465Y-72382400D01*
X132142535Y-72382400D01*
X132263343Y-72350030D01*
X132330000Y-72311545D01*
X132330000Y-73257399D01*
X132854972Y-73257399D01*
X132854986Y-73257398D01*
X132957697Y-73246905D01*
X133124119Y-73191758D01*
X133124124Y-73191756D01*
X133273345Y-73099715D01*
X133397315Y-72975745D01*
X133489356Y-72826524D01*
X133489358Y-72826519D01*
X133544505Y-72660097D01*
X133544506Y-72660090D01*
X133554999Y-72557386D01*
X133555000Y-72557373D01*
X133555000Y-72157400D01*
X132484146Y-72157400D01*
X132522630Y-72090743D01*
X132555000Y-71969935D01*
X132555000Y-71844865D01*
X132522630Y-71724057D01*
X132484146Y-71657400D01*
X133554999Y-71657400D01*
X133554999Y-71257428D01*
X133554998Y-71257413D01*
X133544505Y-71154702D01*
X133502853Y-71029004D01*
X133500451Y-70959176D01*
X133536183Y-70899134D01*
X133598703Y-70867941D01*
X133602386Y-70867613D01*
X133604000Y-70866000D01*
X133604000Y-62515369D01*
X133618916Y-62456405D01*
X134015892Y-61722000D01*
X135943341Y-58156218D01*
X135992534Y-58106606D01*
X136060744Y-58091464D01*
X136083930Y-58100000D01*
X137179588Y-58100000D01*
X137146675Y-58157007D01*
X137112600Y-58284174D01*
X137112600Y-58415826D01*
X137146675Y-58542993D01*
X137179588Y-58600000D01*
X136112600Y-58600000D01*
X136112600Y-59397844D01*
X136119001Y-59457372D01*
X136119003Y-59457379D01*
X136169245Y-59592086D01*
X136169249Y-59592093D01*
X136255409Y-59707187D01*
X136255412Y-59707190D01*
X136370506Y-59793350D01*
X136370513Y-59793354D01*
X136505220Y-59843596D01*
X136505227Y-59843598D01*
X136564755Y-59849999D01*
X136564772Y-59850000D01*
X138662600Y-59850000D01*
X138662600Y-58850000D01*
X139162600Y-58850000D01*
X139162600Y-59850000D01*
X141260428Y-59850000D01*
X141260444Y-59849999D01*
X141319972Y-59843598D01*
X141319979Y-59843596D01*
X141454686Y-59793354D01*
X141454693Y-59793350D01*
X141569787Y-59707190D01*
X141569790Y-59707187D01*
X141655950Y-59592093D01*
X141655954Y-59592086D01*
X141706196Y-59457379D01*
X141706198Y-59457372D01*
X141712599Y-59397844D01*
X141712600Y-59397827D01*
X141712600Y-58600000D01*
X140645612Y-58600000D01*
X140678525Y-58542993D01*
X140712600Y-58415826D01*
X140712600Y-58284174D01*
X140678525Y-58157007D01*
X140645612Y-58100000D01*
X141712600Y-58100000D01*
X141712600Y-57302172D01*
X141712599Y-57302155D01*
X141706198Y-57242627D01*
X141706196Y-57242620D01*
X141655954Y-57107913D01*
X141655950Y-57107906D01*
X141569790Y-56992812D01*
X141569787Y-56992809D01*
X141454693Y-56906649D01*
X141454686Y-56906645D01*
X141319979Y-56856403D01*
X141319972Y-56856401D01*
X141260444Y-56850000D01*
X139162600Y-56850000D01*
X139162600Y-57850000D01*
X138662600Y-57850000D01*
X138662600Y-56850000D01*
X136857389Y-56850000D01*
X136790350Y-56830315D01*
X136744595Y-56777511D01*
X136734651Y-56708353D01*
X136748305Y-56667036D01*
X137106644Y-56004108D01*
X137124881Y-55970369D01*
X137174075Y-55920756D01*
X137233854Y-55905335D01*
X165991893Y-55880108D01*
X166058948Y-55899734D01*
G37*
%TD.AperFunction*%
%TD*%
%TA.AperFunction,Conductor*%
%TO.N,GND*%
G36*
X130881444Y-114953999D02*
G01*
X130920486Y-114999056D01*
X130924951Y-115007820D01*
X131049890Y-115179786D01*
X131200213Y-115330109D01*
X131372179Y-115455048D01*
X131372181Y-115455049D01*
X131372184Y-115455051D01*
X131381493Y-115459794D01*
X131432290Y-115507766D01*
X131449087Y-115575587D01*
X131426552Y-115641722D01*
X131381505Y-115680760D01*
X131372446Y-115685376D01*
X131372440Y-115685380D01*
X131318282Y-115724727D01*
X131318282Y-115724728D01*
X131950591Y-116357037D01*
X131887007Y-116374075D01*
X131772993Y-116439901D01*
X131679901Y-116532993D01*
X131614075Y-116647007D01*
X131597037Y-116710591D01*
X130964728Y-116078282D01*
X130964727Y-116078282D01*
X130925380Y-116132440D01*
X130925376Y-116132446D01*
X130920760Y-116141505D01*
X130872781Y-116192297D01*
X130804959Y-116209087D01*
X130738826Y-116186543D01*
X130699794Y-116141493D01*
X130695051Y-116132184D01*
X130695049Y-116132181D01*
X130695048Y-116132179D01*
X130570109Y-115960213D01*
X130419786Y-115809890D01*
X130247820Y-115684951D01*
X130239600Y-115680763D01*
X130239054Y-115680485D01*
X130188259Y-115632512D01*
X130171463Y-115564692D01*
X130193999Y-115498556D01*
X130239054Y-115459515D01*
X130247816Y-115455051D01*
X130299417Y-115417561D01*
X130419786Y-115330109D01*
X130419788Y-115330106D01*
X130419792Y-115330104D01*
X130570104Y-115179792D01*
X130570106Y-115179788D01*
X130570109Y-115179786D01*
X130695048Y-115007820D01*
X130695047Y-115007820D01*
X130695051Y-115007816D01*
X130699514Y-114999054D01*
X130747488Y-114948259D01*
X130815308Y-114931463D01*
X130881444Y-114953999D01*
G37*
%TD.AperFunction*%
%TA.AperFunction,Conductor*%
G36*
X164751435Y-76945023D02*
G01*
X164807368Y-76986895D01*
X164831785Y-77052359D01*
X164831719Y-77070934D01*
X164831500Y-77073716D01*
X164831500Y-77286286D01*
X164861998Y-77478847D01*
X164864754Y-77496243D01*
X164930443Y-77698412D01*
X165011701Y-77857890D01*
X165016262Y-77882177D01*
X165024900Y-77905334D01*
X165022598Y-77915915D01*
X165024597Y-77926558D01*
X165015302Y-77949458D01*
X165010050Y-77973607D01*
X165000114Y-77986881D01*
X164998321Y-77991299D01*
X164988903Y-78001858D01*
X164988899Y-78001864D01*
X164959481Y-78031283D01*
X164959479Y-78031283D01*
X164959478Y-78031286D01*
X162719481Y-80271282D01*
X162719475Y-80271290D01*
X162673354Y-80351176D01*
X162673354Y-80351177D01*
X162640423Y-80408215D01*
X162599499Y-80560943D01*
X162599499Y-80560945D01*
X162599499Y-80729046D01*
X162599500Y-80729059D01*
X162599500Y-89203330D01*
X162599499Y-89203348D01*
X162599499Y-89369054D01*
X162599498Y-89369054D01*
X162640423Y-89521785D01*
X162657294Y-89551006D01*
X162657293Y-89551006D01*
X162657294Y-89551007D01*
X162719475Y-89658709D01*
X162719481Y-89658717D01*
X162838349Y-89777585D01*
X162838355Y-89777590D01*
X164884537Y-91823772D01*
X164918022Y-91885095D01*
X164914787Y-91949771D01*
X164864753Y-92103759D01*
X164831500Y-92313713D01*
X164831500Y-92526286D01*
X164857799Y-92692335D01*
X164864754Y-92736243D01*
X164915946Y-92893796D01*
X164930444Y-92938414D01*
X165026951Y-93127820D01*
X165151890Y-93299786D01*
X165302213Y-93450109D01*
X165474179Y-93575048D01*
X165474181Y-93575049D01*
X165474184Y-93575051D01*
X165483493Y-93579794D01*
X165534290Y-93627766D01*
X165551087Y-93695587D01*
X165528552Y-93761722D01*
X165483505Y-93800760D01*
X165474446Y-93805376D01*
X165474440Y-93805380D01*
X165420282Y-93844727D01*
X165420282Y-93844728D01*
X166052591Y-94477037D01*
X165989007Y-94494075D01*
X165874993Y-94559901D01*
X165781901Y-94652993D01*
X165716075Y-94767007D01*
X165699037Y-94830591D01*
X165066728Y-94198282D01*
X165066727Y-94198282D01*
X165027380Y-94252439D01*
X164930904Y-94441782D01*
X164865242Y-94643869D01*
X164865242Y-94643872D01*
X164832000Y-94853753D01*
X164832000Y-95066246D01*
X164865242Y-95276127D01*
X164865242Y-95276130D01*
X164930904Y-95478217D01*
X165027375Y-95667550D01*
X165066728Y-95721716D01*
X165699037Y-95089408D01*
X165716075Y-95152993D01*
X165781901Y-95267007D01*
X165874993Y-95360099D01*
X165989007Y-95425925D01*
X166052590Y-95442962D01*
X165420282Y-96075269D01*
X165420282Y-96075270D01*
X165474452Y-96114626D01*
X165474451Y-96114626D01*
X165483495Y-96119234D01*
X165534292Y-96167208D01*
X165551087Y-96235029D01*
X165528550Y-96301164D01*
X165483499Y-96340202D01*
X165474182Y-96344949D01*
X165302213Y-96469890D01*
X165151890Y-96620213D01*
X165026951Y-96792179D01*
X164930444Y-96981585D01*
X164864753Y-97183760D01*
X164831500Y-97393713D01*
X164831500Y-97606286D01*
X164863518Y-97808444D01*
X164864754Y-97816243D01*
X164922267Y-97993250D01*
X164930444Y-98018414D01*
X165026951Y-98207820D01*
X165151890Y-98379786D01*
X165302213Y-98530109D01*
X165474182Y-98655050D01*
X165482946Y-98659516D01*
X165533742Y-98707491D01*
X165550536Y-98775312D01*
X165527998Y-98841447D01*
X165482946Y-98880484D01*
X165474182Y-98884949D01*
X165302213Y-99009890D01*
X165151890Y-99160213D01*
X165026951Y-99332179D01*
X164930444Y-99521585D01*
X164864753Y-99723760D01*
X164842505Y-99864229D01*
X164831500Y-99933713D01*
X164831500Y-100146287D01*
X164833747Y-100160471D01*
X164864366Y-100353797D01*
X164864754Y-100356243D01*
X164918723Y-100522343D01*
X164930444Y-100558414D01*
X165026951Y-100747820D01*
X165151890Y-100919786D01*
X165302213Y-101070109D01*
X165474182Y-101195050D01*
X165482946Y-101199516D01*
X165533742Y-101247491D01*
X165550536Y-101315312D01*
X165527998Y-101381447D01*
X165482946Y-101420484D01*
X165474182Y-101424949D01*
X165302213Y-101549890D01*
X165151890Y-101700213D01*
X165026951Y-101872179D01*
X164930444Y-102061585D01*
X164864753Y-102263760D01*
X164831500Y-102473713D01*
X164831500Y-102686291D01*
X164845716Y-102776049D01*
X164836761Y-102845343D01*
X164810924Y-102883128D01*
X153318873Y-114375181D01*
X153257550Y-114408666D01*
X153231192Y-114411500D01*
X146116808Y-114411500D01*
X146049769Y-114391815D01*
X146029127Y-114375181D01*
X144704819Y-113050873D01*
X144671334Y-112989550D01*
X144668500Y-112963192D01*
X144668500Y-110089807D01*
X144688185Y-110022768D01*
X144740989Y-109977013D01*
X144810147Y-109967069D01*
X144873703Y-109996094D01*
X144880181Y-110002126D01*
X147084253Y-112206198D01*
X147117738Y-112267521D01*
X147114503Y-112332197D01*
X147084754Y-112423755D01*
X147051500Y-112633713D01*
X147051500Y-112846286D01*
X147083518Y-113048443D01*
X147084754Y-113056243D01*
X147147031Y-113247912D01*
X147150444Y-113258414D01*
X147246951Y-113447820D01*
X147371890Y-113619786D01*
X147522213Y-113770109D01*
X147694179Y-113895048D01*
X147694181Y-113895049D01*
X147694184Y-113895051D01*
X147883588Y-113991557D01*
X148085757Y-114057246D01*
X148295713Y-114090500D01*
X148295714Y-114090500D01*
X148508286Y-114090500D01*
X148508287Y-114090500D01*
X148718243Y-114057246D01*
X148920412Y-113991557D01*
X149109816Y-113895051D01*
X149229137Y-113808360D01*
X149281786Y-113770109D01*
X149281788Y-113770106D01*
X149281792Y-113770104D01*
X149432104Y-113619792D01*
X149432106Y-113619788D01*
X149432109Y-113619786D01*
X149557048Y-113447820D01*
X149557047Y-113447820D01*
X149557051Y-113447816D01*
X149653557Y-113258412D01*
X149719246Y-113056243D01*
X149752500Y-112846287D01*
X149752500Y-112633713D01*
X149719246Y-112423757D01*
X149653557Y-112221588D01*
X149557051Y-112032184D01*
X149557049Y-112032181D01*
X149557048Y-112032179D01*
X149432109Y-111860213D01*
X149281786Y-111709890D01*
X149109820Y-111584951D01*
X149109115Y-111584591D01*
X149101054Y-111580485D01*
X149050259Y-111532512D01*
X149033463Y-111464692D01*
X149055999Y-111398556D01*
X149101054Y-111359515D01*
X149109816Y-111355051D01*
X149265990Y-111241585D01*
X149281786Y-111230109D01*
X149281788Y-111230106D01*
X149281792Y-111230104D01*
X149432104Y-111079792D01*
X149432106Y-111079788D01*
X149432109Y-111079786D01*
X149557048Y-110907820D01*
X149557047Y-110907820D01*
X149557051Y-110907816D01*
X149653557Y-110718412D01*
X149719246Y-110516243D01*
X149752500Y-110306287D01*
X149752500Y-110093713D01*
X149719246Y-109883757D01*
X149669211Y-109729768D01*
X149667217Y-109659929D01*
X149699460Y-109603773D01*
X149911506Y-109391728D01*
X149911511Y-109391724D01*
X149921714Y-109381520D01*
X149921716Y-109381520D01*
X150033520Y-109269716D01*
X150086115Y-109178618D01*
X150093427Y-109165954D01*
X150093430Y-109165945D01*
X150093436Y-109165937D01*
X150112577Y-109132785D01*
X150153501Y-108980057D01*
X150153501Y-108821942D01*
X150153501Y-108814347D01*
X150153500Y-108814329D01*
X150153500Y-106970060D01*
X150153501Y-106970047D01*
X150153501Y-106801944D01*
X150149306Y-106786287D01*
X150112577Y-106649216D01*
X150068986Y-106573713D01*
X150033524Y-106512290D01*
X150033518Y-106512282D01*
X149544410Y-106023174D01*
X149510925Y-105961851D01*
X149515909Y-105892159D01*
X149531774Y-105862606D01*
X149557050Y-105827817D01*
X149571115Y-105800213D01*
X149653557Y-105638412D01*
X149719246Y-105436243D01*
X149752500Y-105226287D01*
X149752500Y-105013713D01*
X149719246Y-104803757D01*
X149653557Y-104601588D01*
X149557051Y-104412184D01*
X149557049Y-104412181D01*
X149557048Y-104412179D01*
X149432109Y-104240213D01*
X149281786Y-104089890D01*
X149109820Y-103964951D01*
X149109115Y-103964591D01*
X149101054Y-103960485D01*
X149050259Y-103912512D01*
X149033463Y-103844692D01*
X149055999Y-103778556D01*
X149101054Y-103739515D01*
X149109816Y-103735051D01*
X149265990Y-103621585D01*
X149281786Y-103610109D01*
X149281788Y-103610106D01*
X149281792Y-103610104D01*
X149432104Y-103459792D01*
X149432106Y-103459788D01*
X149432109Y-103459786D01*
X149557048Y-103287820D01*
X149557047Y-103287820D01*
X149557051Y-103287816D01*
X149653557Y-103098412D01*
X149719246Y-102896243D01*
X149752500Y-102686287D01*
X149752500Y-102473713D01*
X149719246Y-102263757D01*
X149653557Y-102061588D01*
X149557051Y-101872184D01*
X149557049Y-101872181D01*
X149557048Y-101872179D01*
X149432109Y-101700213D01*
X149281786Y-101549890D01*
X149109820Y-101424951D01*
X149109115Y-101424591D01*
X149101054Y-101420485D01*
X149050259Y-101372512D01*
X149033463Y-101304692D01*
X149055999Y-101238556D01*
X149101054Y-101199515D01*
X149109816Y-101195051D01*
X149193743Y-101134075D01*
X149281786Y-101070109D01*
X149281788Y-101070106D01*
X149281792Y-101070104D01*
X149432104Y-100919792D01*
X149432106Y-100919788D01*
X149432109Y-100919786D01*
X149557048Y-100747820D01*
X149557047Y-100747820D01*
X149557051Y-100747816D01*
X149653557Y-100558412D01*
X149719246Y-100356243D01*
X149752500Y-100146287D01*
X149752500Y-99933713D01*
X149719246Y-99723757D01*
X149653557Y-99521588D01*
X149557051Y-99332184D01*
X149557049Y-99332181D01*
X149557048Y-99332179D01*
X149432109Y-99160213D01*
X149281786Y-99009890D01*
X149109820Y-98884951D01*
X149109115Y-98884591D01*
X149101054Y-98880485D01*
X149050259Y-98832512D01*
X149033463Y-98764692D01*
X149055999Y-98698556D01*
X149101054Y-98659515D01*
X149109816Y-98655051D01*
X149131789Y-98639086D01*
X149281786Y-98530109D01*
X149281788Y-98530106D01*
X149281792Y-98530104D01*
X149432104Y-98379792D01*
X149432106Y-98379788D01*
X149432109Y-98379786D01*
X149557048Y-98207820D01*
X149557047Y-98207820D01*
X149557051Y-98207816D01*
X149653557Y-98018412D01*
X149719246Y-97816243D01*
X149752500Y-97606287D01*
X149752500Y-97393713D01*
X149719246Y-97183757D01*
X149653557Y-96981588D01*
X149557051Y-96792184D01*
X149557049Y-96792181D01*
X149557048Y-96792179D01*
X149432109Y-96620213D01*
X149281786Y-96469890D01*
X149109817Y-96344949D01*
X149100504Y-96340204D01*
X149049707Y-96292230D01*
X149032912Y-96224409D01*
X149055449Y-96158274D01*
X149100507Y-96119232D01*
X149109555Y-96114622D01*
X149163716Y-96075270D01*
X149163717Y-96075270D01*
X148531408Y-95442962D01*
X148594993Y-95425925D01*
X148709007Y-95360099D01*
X148802099Y-95267007D01*
X148867925Y-95152993D01*
X148884962Y-95089409D01*
X149517270Y-95721717D01*
X149517270Y-95721716D01*
X149556622Y-95667554D01*
X149653095Y-95478217D01*
X149718757Y-95276130D01*
X149718757Y-95276127D01*
X149752000Y-95066246D01*
X149752000Y-94853753D01*
X149718757Y-94643872D01*
X149718757Y-94643869D01*
X149653095Y-94441782D01*
X149556624Y-94252449D01*
X149517270Y-94198282D01*
X149517269Y-94198282D01*
X148884962Y-94830590D01*
X148867925Y-94767007D01*
X148802099Y-94652993D01*
X148709007Y-94559901D01*
X148594993Y-94494075D01*
X148531409Y-94477037D01*
X149163716Y-93844728D01*
X149109547Y-93805373D01*
X149109547Y-93805372D01*
X149100500Y-93800763D01*
X149049706Y-93752788D01*
X149032912Y-93684966D01*
X149055451Y-93618832D01*
X149100508Y-93579793D01*
X149109816Y-93575051D01*
X149206096Y-93505100D01*
X149281786Y-93450109D01*
X149281788Y-93450106D01*
X149281792Y-93450104D01*
X149432104Y-93299792D01*
X149432106Y-93299788D01*
X149432109Y-93299786D01*
X149557048Y-93127820D01*
X149557047Y-93127820D01*
X149557051Y-93127816D01*
X149653557Y-92938412D01*
X149719246Y-92736243D01*
X149752500Y-92526287D01*
X149752500Y-92313713D01*
X149719246Y-92103757D01*
X149653557Y-91901588D01*
X149557051Y-91712184D01*
X149557049Y-91712181D01*
X149557048Y-91712179D01*
X149432109Y-91540213D01*
X149281786Y-91389890D01*
X149109820Y-91264951D01*
X149109115Y-91264591D01*
X149101054Y-91260485D01*
X149050259Y-91212512D01*
X149033463Y-91144692D01*
X149055999Y-91078556D01*
X149101054Y-91039515D01*
X149109816Y-91035051D01*
X149131789Y-91019086D01*
X149281786Y-90910109D01*
X149281788Y-90910106D01*
X149281792Y-90910104D01*
X149432104Y-90759792D01*
X149432106Y-90759788D01*
X149432109Y-90759786D01*
X149557048Y-90587820D01*
X149557047Y-90587820D01*
X149557051Y-90587816D01*
X149653557Y-90398412D01*
X149719246Y-90196243D01*
X149752500Y-89986287D01*
X149752500Y-89773713D01*
X149719246Y-89563757D01*
X149653557Y-89361588D01*
X149557051Y-89172184D01*
X149557049Y-89172181D01*
X149557048Y-89172179D01*
X149432109Y-89000213D01*
X149281786Y-88849890D01*
X149109820Y-88724951D01*
X149109115Y-88724591D01*
X149101054Y-88720485D01*
X149050259Y-88672512D01*
X149033463Y-88604692D01*
X149055999Y-88538556D01*
X149101054Y-88499515D01*
X149109816Y-88495051D01*
X149131789Y-88479086D01*
X149281786Y-88370109D01*
X149281788Y-88370106D01*
X149281792Y-88370104D01*
X149432104Y-88219792D01*
X149432106Y-88219788D01*
X149432109Y-88219786D01*
X149557048Y-88047820D01*
X149557047Y-88047820D01*
X149557051Y-88047816D01*
X149653557Y-87858412D01*
X149719246Y-87656243D01*
X149752500Y-87446287D01*
X149752500Y-87233713D01*
X149719246Y-87023757D01*
X149653557Y-86821588D01*
X149557051Y-86632184D01*
X149557049Y-86632181D01*
X149557048Y-86632179D01*
X149432109Y-86460213D01*
X149281786Y-86309890D01*
X149109820Y-86184951D01*
X149109115Y-86184591D01*
X149101054Y-86180485D01*
X149050259Y-86132512D01*
X149033463Y-86064692D01*
X149055999Y-85998556D01*
X149101054Y-85959515D01*
X149109816Y-85955051D01*
X149210283Y-85882058D01*
X149281786Y-85830109D01*
X149281788Y-85830106D01*
X149281792Y-85830104D01*
X149432104Y-85679792D01*
X149432106Y-85679788D01*
X149432109Y-85679786D01*
X149557048Y-85507820D01*
X149557047Y-85507820D01*
X149557051Y-85507816D01*
X149653557Y-85318412D01*
X149719246Y-85116243D01*
X149752500Y-84906287D01*
X149752500Y-84693713D01*
X149719246Y-84483757D01*
X149653557Y-84281588D01*
X149557051Y-84092184D01*
X149557049Y-84092181D01*
X149557048Y-84092179D01*
X149432109Y-83920213D01*
X149281786Y-83769890D01*
X149109817Y-83644949D01*
X149100504Y-83640204D01*
X149049707Y-83592230D01*
X149032912Y-83524409D01*
X149055449Y-83458274D01*
X149100507Y-83419232D01*
X149109555Y-83414622D01*
X149163716Y-83375270D01*
X149163717Y-83375270D01*
X148531408Y-82742962D01*
X148594993Y-82725925D01*
X148709007Y-82660099D01*
X148802099Y-82567007D01*
X148867925Y-82452993D01*
X148884962Y-82389409D01*
X149517270Y-83021717D01*
X149517270Y-83021716D01*
X149556622Y-82967554D01*
X149653095Y-82778217D01*
X149718757Y-82576130D01*
X149718757Y-82576127D01*
X149752000Y-82366246D01*
X149752000Y-82153753D01*
X149718757Y-81943872D01*
X149718757Y-81943869D01*
X149653094Y-81741779D01*
X149651231Y-81737281D01*
X149652179Y-81736888D01*
X149640206Y-81673121D01*
X149666485Y-81608382D01*
X149723593Y-81568127D01*
X149763587Y-81561500D01*
X159827071Y-81561500D01*
X159911615Y-81544682D01*
X159952744Y-81536501D01*
X160071127Y-81487465D01*
X160177669Y-81416277D01*
X164620422Y-76973522D01*
X164681743Y-76940039D01*
X164751435Y-76945023D01*
G37*
%TD.AperFunction*%
%TA.AperFunction,Conductor*%
G36*
X141107790Y-100342989D02*
G01*
X141110832Y-100342699D01*
X141139365Y-100357409D01*
X141168567Y-100370745D01*
X141171037Y-100373737D01*
X141172934Y-100374715D01*
X141194751Y-100402459D01*
X141251475Y-100500709D01*
X141251481Y-100500717D01*
X141370349Y-100619585D01*
X141370354Y-100619589D01*
X147631284Y-106880520D01*
X147631286Y-106880521D01*
X147631290Y-106880524D01*
X147755870Y-106952449D01*
X147768216Y-106959577D01*
X147920943Y-107000501D01*
X147920945Y-107000501D01*
X148044693Y-107000501D01*
X148111732Y-107020186D01*
X148132374Y-107036820D01*
X148272591Y-107177037D01*
X148209007Y-107194075D01*
X148094993Y-107259901D01*
X148001901Y-107352993D01*
X147936075Y-107467007D01*
X147919037Y-107530591D01*
X147286728Y-106898282D01*
X147286727Y-106898282D01*
X147247380Y-106952439D01*
X147150904Y-107141782D01*
X147085242Y-107343869D01*
X147085242Y-107343872D01*
X147052000Y-107553753D01*
X147052000Y-107766246D01*
X147085242Y-107976127D01*
X147085242Y-107976130D01*
X147150904Y-108178217D01*
X147247375Y-108367550D01*
X147286728Y-108421716D01*
X147919037Y-107789408D01*
X147936075Y-107852993D01*
X148001901Y-107967007D01*
X148094993Y-108060099D01*
X148209007Y-108125925D01*
X148272589Y-108142962D01*
X147640282Y-108775269D01*
X147640282Y-108775270D01*
X147694452Y-108814626D01*
X147694451Y-108814626D01*
X147703495Y-108819234D01*
X147754292Y-108867208D01*
X147771087Y-108935029D01*
X147748550Y-109001164D01*
X147703499Y-109040202D01*
X147694182Y-109044949D01*
X147522213Y-109169890D01*
X147371890Y-109320213D01*
X147246951Y-109492179D01*
X147150444Y-109681585D01*
X147084753Y-109883760D01*
X147051500Y-110093713D01*
X147051500Y-110175613D01*
X147031815Y-110242652D01*
X146979011Y-110288407D01*
X146909853Y-110298351D01*
X146846297Y-110269326D01*
X146839819Y-110263294D01*
X140999683Y-104423158D01*
X140966198Y-104361835D01*
X140963364Y-104335477D01*
X140963364Y-100464458D01*
X140964224Y-100461527D01*
X140963504Y-100458557D01*
X140974008Y-100428208D01*
X140983049Y-100397419D01*
X140985357Y-100395419D01*
X140986357Y-100392530D01*
X141011606Y-100372673D01*
X141035853Y-100351664D01*
X141038875Y-100351229D01*
X141041278Y-100349340D01*
X141073239Y-100346288D01*
X141105011Y-100341720D01*
X141107790Y-100342989D01*
G37*
%TD.AperFunction*%
%TA.AperFunction,Conductor*%
G36*
X147107452Y-81581185D02*
G01*
X147153207Y-81633989D01*
X147163151Y-81703147D01*
X147152380Y-81737120D01*
X147152769Y-81737281D01*
X147150905Y-81741779D01*
X147085242Y-81943869D01*
X147085242Y-81943872D01*
X147052000Y-82153753D01*
X147052000Y-82366246D01*
X147085242Y-82576127D01*
X147085242Y-82576130D01*
X147150904Y-82778217D01*
X147247375Y-82967550D01*
X147286728Y-83021716D01*
X147919036Y-82389407D01*
X147936075Y-82452993D01*
X148001901Y-82567007D01*
X148094993Y-82660099D01*
X148209007Y-82725925D01*
X148272590Y-82742962D01*
X147640282Y-83375269D01*
X147640282Y-83375270D01*
X147694452Y-83414626D01*
X147694451Y-83414626D01*
X147703495Y-83419234D01*
X147754292Y-83467208D01*
X147771087Y-83535029D01*
X147748550Y-83601164D01*
X147703499Y-83640202D01*
X147694182Y-83644949D01*
X147522213Y-83769890D01*
X147371890Y-83920213D01*
X147246951Y-84092179D01*
X147150444Y-84281585D01*
X147084753Y-84483760D01*
X147070045Y-84576623D01*
X147051500Y-84693713D01*
X147051500Y-84906287D01*
X147054145Y-84922989D01*
X147084014Y-85111576D01*
X147084754Y-85116243D01*
X147139838Y-85285774D01*
X147150444Y-85318414D01*
X147246951Y-85507820D01*
X147371890Y-85679786D01*
X147522213Y-85830109D01*
X147694182Y-85955050D01*
X147702946Y-85959516D01*
X147753742Y-86007491D01*
X147770536Y-86075312D01*
X147747998Y-86141447D01*
X147702946Y-86180484D01*
X147694182Y-86184949D01*
X147522213Y-86309890D01*
X147371890Y-86460213D01*
X147246951Y-86632179D01*
X147150444Y-86821585D01*
X147084753Y-87023760D01*
X147051500Y-87233713D01*
X147051500Y-87446286D01*
X147084753Y-87656239D01*
X147150444Y-87858414D01*
X147246951Y-88047820D01*
X147371890Y-88219786D01*
X147522213Y-88370109D01*
X147694182Y-88495050D01*
X147702946Y-88499516D01*
X147753742Y-88547491D01*
X147770536Y-88615312D01*
X147747998Y-88681447D01*
X147702946Y-88720484D01*
X147694182Y-88724949D01*
X147522213Y-88849890D01*
X147371890Y-89000213D01*
X147246951Y-89172179D01*
X147150444Y-89361585D01*
X147084753Y-89563760D01*
X147052006Y-89770520D01*
X147051500Y-89773713D01*
X147051500Y-89986287D01*
X147084754Y-90196243D01*
X147102058Y-90249500D01*
X147150444Y-90398414D01*
X147246951Y-90587820D01*
X147371890Y-90759786D01*
X147522213Y-90910109D01*
X147694182Y-91035050D01*
X147702946Y-91039516D01*
X147753742Y-91087491D01*
X147770536Y-91155312D01*
X147747998Y-91221447D01*
X147702946Y-91260484D01*
X147694182Y-91264949D01*
X147522213Y-91389890D01*
X147371890Y-91540213D01*
X147246951Y-91712179D01*
X147150444Y-91901585D01*
X147084753Y-92103760D01*
X147051500Y-92313713D01*
X147051500Y-92526286D01*
X147077799Y-92692335D01*
X147084754Y-92736243D01*
X147135946Y-92893796D01*
X147150444Y-92938414D01*
X147246951Y-93127820D01*
X147371890Y-93299786D01*
X147522213Y-93450109D01*
X147694179Y-93575048D01*
X147694181Y-93575049D01*
X147694184Y-93575051D01*
X147703493Y-93579794D01*
X147754290Y-93627766D01*
X147771087Y-93695587D01*
X147748552Y-93761722D01*
X147703505Y-93800760D01*
X147694446Y-93805376D01*
X147694440Y-93805380D01*
X147640282Y-93844727D01*
X147640282Y-93844728D01*
X148272591Y-94477037D01*
X148209007Y-94494075D01*
X148094993Y-94559901D01*
X148001901Y-94652993D01*
X147936075Y-94767007D01*
X147919037Y-94830591D01*
X147286728Y-94198282D01*
X147286727Y-94198282D01*
X147247380Y-94252439D01*
X147150904Y-94441782D01*
X147085242Y-94643869D01*
X147085242Y-94643872D01*
X147052000Y-94853753D01*
X147052000Y-95066246D01*
X147085242Y-95276127D01*
X147085242Y-95276130D01*
X147150904Y-95478217D01*
X147247375Y-95667550D01*
X147286728Y-95721716D01*
X147919037Y-95089408D01*
X147936075Y-95152993D01*
X148001901Y-95267007D01*
X148094993Y-95360099D01*
X148209007Y-95425925D01*
X148272590Y-95442962D01*
X147640282Y-96075269D01*
X147640282Y-96075270D01*
X147694452Y-96114626D01*
X147694451Y-96114626D01*
X147703495Y-96119234D01*
X147754292Y-96167208D01*
X147771087Y-96235029D01*
X147748550Y-96301164D01*
X147703499Y-96340202D01*
X147694182Y-96344949D01*
X147522213Y-96469890D01*
X147371890Y-96620213D01*
X147246951Y-96792179D01*
X147150444Y-96981585D01*
X147084753Y-97183760D01*
X147051500Y-97393713D01*
X147051500Y-97606286D01*
X147083518Y-97808444D01*
X147084754Y-97816243D01*
X147142267Y-97993250D01*
X147150444Y-98018414D01*
X147246951Y-98207820D01*
X147371890Y-98379786D01*
X147522213Y-98530109D01*
X147694182Y-98655050D01*
X147702946Y-98659516D01*
X147753742Y-98707491D01*
X147770536Y-98775312D01*
X147747998Y-98841447D01*
X147702946Y-98880484D01*
X147694182Y-98884949D01*
X147522213Y-99009890D01*
X147371890Y-99160213D01*
X147246951Y-99332179D01*
X147150444Y-99521585D01*
X147084753Y-99723760D01*
X147062505Y-99864229D01*
X147051500Y-99933713D01*
X147051500Y-100146287D01*
X147053747Y-100160471D01*
X147084366Y-100353797D01*
X147084754Y-100356243D01*
X147138723Y-100522343D01*
X147150444Y-100558414D01*
X147246951Y-100747820D01*
X147371890Y-100919786D01*
X147522213Y-101070109D01*
X147694182Y-101195050D01*
X147702946Y-101199516D01*
X147753742Y-101247491D01*
X147770536Y-101315312D01*
X147747998Y-101381447D01*
X147702946Y-101420484D01*
X147694182Y-101424949D01*
X147522213Y-101549890D01*
X147371890Y-101700213D01*
X147246951Y-101872179D01*
X147150444Y-102061585D01*
X147084753Y-102263760D01*
X147051500Y-102473713D01*
X147051500Y-102686287D01*
X147061534Y-102749644D01*
X147084018Y-102891600D01*
X147084754Y-102896243D01*
X147113576Y-102984949D01*
X147150444Y-103098414D01*
X147246951Y-103287820D01*
X147371890Y-103459786D01*
X147522213Y-103610109D01*
X147694182Y-103735050D01*
X147702946Y-103739516D01*
X147753742Y-103787491D01*
X147770536Y-103855312D01*
X147747998Y-103921447D01*
X147702946Y-103960484D01*
X147694182Y-103964949D01*
X147522213Y-104089890D01*
X147371890Y-104240213D01*
X147246949Y-104412182D01*
X147194299Y-104515513D01*
X147146325Y-104566308D01*
X147078504Y-104583103D01*
X147012369Y-104560565D01*
X146996134Y-104546898D01*
X142368819Y-99919583D01*
X142335334Y-99858260D01*
X142332500Y-99831902D01*
X142332500Y-89240167D01*
X142332500Y-89240165D01*
X142291577Y-89087438D01*
X142270185Y-89050385D01*
X142212524Y-88950512D01*
X142212521Y-88950508D01*
X142212520Y-88950506D01*
X142100716Y-88838702D01*
X142100715Y-88838701D01*
X142096385Y-88834371D01*
X142096374Y-88834361D01*
X138850844Y-85588831D01*
X138843299Y-85581286D01*
X138843298Y-85581284D01*
X138731494Y-85469480D01*
X138725868Y-85466232D01*
X138715492Y-85456053D01*
X138701977Y-85431857D01*
X138685637Y-85409478D01*
X138685178Y-85401783D01*
X138681420Y-85395054D01*
X138683131Y-85367395D01*
X138681485Y-85339731D01*
X138685306Y-85332265D01*
X138685736Y-85325318D01*
X138696071Y-85311231D01*
X138709101Y-85285774D01*
X138718550Y-85274999D01*
X138709881Y-85209140D01*
X138709877Y-85209128D01*
X138650683Y-85066219D01*
X138650683Y-85066218D01*
X138638228Y-85049987D01*
X138613034Y-84984818D01*
X138627072Y-84916373D01*
X138675886Y-84866383D01*
X138736604Y-84850500D01*
X139524513Y-84850500D01*
X139628951Y-84829725D01*
X139650186Y-84825501D01*
X139768569Y-84776465D01*
X139768574Y-84776461D01*
X139768577Y-84776460D01*
X139780914Y-84768217D01*
X139780916Y-84768216D01*
X139851402Y-84721118D01*
X139875111Y-84705277D01*
X139923909Y-84656479D01*
X139979229Y-84601160D01*
X142982569Y-81597819D01*
X143043892Y-81564334D01*
X143070250Y-81561500D01*
X147040413Y-81561500D01*
X147107452Y-81581185D01*
G37*
%TD.AperFunction*%
%TA.AperFunction,Conductor*%
G36*
X131614075Y-101792993D02*
G01*
X131679901Y-101907007D01*
X131772993Y-102000099D01*
X131887007Y-102065925D01*
X131950590Y-102082962D01*
X131318282Y-102715269D01*
X131318282Y-102715270D01*
X131372452Y-102754626D01*
X131372451Y-102754626D01*
X131381495Y-102759234D01*
X131432292Y-102807208D01*
X131449087Y-102875029D01*
X131426550Y-102941164D01*
X131381499Y-102980202D01*
X131372182Y-102984949D01*
X131200213Y-103109890D01*
X131049890Y-103260213D01*
X130924949Y-103432182D01*
X130920484Y-103440946D01*
X130872509Y-103491742D01*
X130804688Y-103508536D01*
X130738553Y-103485998D01*
X130699516Y-103440946D01*
X130695050Y-103432182D01*
X130570109Y-103260213D01*
X130419786Y-103109890D01*
X130247820Y-102984951D01*
X130247115Y-102984591D01*
X130239054Y-102980485D01*
X130188259Y-102932512D01*
X130171463Y-102864692D01*
X130193999Y-102798556D01*
X130239054Y-102759515D01*
X130247816Y-102755051D01*
X130342457Y-102686291D01*
X130419786Y-102630109D01*
X130419788Y-102630106D01*
X130419792Y-102630104D01*
X130570104Y-102479792D01*
X130570106Y-102479788D01*
X130570109Y-102479786D01*
X130655890Y-102361717D01*
X130695051Y-102307816D01*
X130699793Y-102298508D01*
X130747763Y-102247711D01*
X130815583Y-102230911D01*
X130881719Y-102253445D01*
X130920763Y-102298500D01*
X130925373Y-102307547D01*
X130964728Y-102361716D01*
X131597037Y-101729408D01*
X131614075Y-101792993D01*
G37*
%TD.AperFunction*%
%TA.AperFunction,Conductor*%
G36*
X136064244Y-87189638D02*
G01*
X136088653Y-87208599D01*
X136335325Y-87455272D01*
X136335326Y-87455273D01*
X136335329Y-87455275D01*
X136335331Y-87455277D01*
X136441873Y-87526465D01*
X136560256Y-87575501D01*
X136560260Y-87575501D01*
X136560261Y-87575502D01*
X136685928Y-87600500D01*
X136685931Y-87600500D01*
X136860520Y-87600500D01*
X136901068Y-87608565D01*
X136901150Y-87608261D01*
X136905789Y-87609504D01*
X136907969Y-87609937D01*
X136909001Y-87610365D01*
X137023960Y-87625500D01*
X137023967Y-87625500D01*
X138176033Y-87625500D01*
X138176040Y-87625500D01*
X138290999Y-87610365D01*
X138434037Y-87551117D01*
X138452007Y-87537327D01*
X138517172Y-87512132D01*
X138585618Y-87526168D01*
X138615175Y-87548021D01*
X139726045Y-88658891D01*
X139759530Y-88720214D01*
X139762364Y-88746572D01*
X139762364Y-103382866D01*
X139742679Y-103449905D01*
X139689875Y-103495660D01*
X139620717Y-103505604D01*
X139557161Y-103476579D01*
X139550683Y-103470547D01*
X129242316Y-93162180D01*
X129208831Y-93100857D01*
X129213815Y-93031165D01*
X129255687Y-92975232D01*
X129321151Y-92950815D01*
X129329997Y-92950499D01*
X130437871Y-92950499D01*
X130437872Y-92950499D01*
X130497483Y-92944091D01*
X130632331Y-92893796D01*
X130747546Y-92807546D01*
X130833796Y-92692331D01*
X130882810Y-92560916D01*
X130924681Y-92504984D01*
X130990145Y-92480566D01*
X131058418Y-92495417D01*
X131086673Y-92516569D01*
X131200213Y-92630109D01*
X131372179Y-92755048D01*
X131372181Y-92755049D01*
X131372184Y-92755051D01*
X131561588Y-92851557D01*
X131763757Y-92917246D01*
X131973713Y-92950500D01*
X131973714Y-92950500D01*
X132186286Y-92950500D01*
X132186287Y-92950500D01*
X132396243Y-92917246D01*
X132598412Y-92851557D01*
X132787816Y-92755051D01*
X132874138Y-92692335D01*
X132959786Y-92630109D01*
X132959788Y-92630106D01*
X132959792Y-92630104D01*
X133110104Y-92479792D01*
X133110106Y-92479788D01*
X133110109Y-92479786D01*
X133195890Y-92361717D01*
X133235051Y-92307816D01*
X133239793Y-92298508D01*
X133287763Y-92247711D01*
X133355583Y-92230911D01*
X133421719Y-92253445D01*
X133460763Y-92298500D01*
X133465373Y-92307547D01*
X133504728Y-92361716D01*
X134137037Y-91729408D01*
X134154075Y-91792993D01*
X134219901Y-91907007D01*
X134312993Y-92000099D01*
X134427007Y-92065925D01*
X134490590Y-92082962D01*
X133858282Y-92715269D01*
X133858282Y-92715270D01*
X133912449Y-92754624D01*
X134101782Y-92851095D01*
X134303870Y-92916757D01*
X134513754Y-92950000D01*
X134726246Y-92950000D01*
X134936127Y-92916757D01*
X134936130Y-92916757D01*
X135138217Y-92851095D01*
X135327554Y-92754622D01*
X135381716Y-92715270D01*
X135381717Y-92715270D01*
X134749408Y-92082962D01*
X134812993Y-92065925D01*
X134927007Y-92000099D01*
X135020099Y-91907007D01*
X135085925Y-91792993D01*
X135102962Y-91729408D01*
X135735270Y-92361717D01*
X135735270Y-92361716D01*
X135774622Y-92307554D01*
X135871095Y-92118217D01*
X135936757Y-91916130D01*
X135936757Y-91916127D01*
X135970000Y-91706246D01*
X135970000Y-91493753D01*
X135936757Y-91283872D01*
X135936757Y-91283869D01*
X135871095Y-91081782D01*
X135774624Y-90892449D01*
X135735270Y-90838282D01*
X135735269Y-90838282D01*
X135102962Y-91470590D01*
X135085925Y-91407007D01*
X135020099Y-91292993D01*
X134927007Y-91199901D01*
X134812993Y-91134075D01*
X134749409Y-91117037D01*
X135381716Y-90484728D01*
X135327550Y-90445375D01*
X135138217Y-90348904D01*
X134936129Y-90283242D01*
X134726246Y-90250000D01*
X134513754Y-90250000D01*
X134303872Y-90283242D01*
X134303869Y-90283242D01*
X134101782Y-90348904D01*
X133912439Y-90445380D01*
X133858282Y-90484727D01*
X133858282Y-90484728D01*
X134490591Y-91117037D01*
X134427007Y-91134075D01*
X134312993Y-91199901D01*
X134219901Y-91292993D01*
X134154075Y-91407007D01*
X134137037Y-91470591D01*
X133504728Y-90838282D01*
X133504727Y-90838282D01*
X133465380Y-90892440D01*
X133465376Y-90892446D01*
X133460760Y-90901505D01*
X133412781Y-90952297D01*
X133344959Y-90969087D01*
X133278826Y-90946543D01*
X133239794Y-90901493D01*
X133235051Y-90892184D01*
X133235049Y-90892181D01*
X133235048Y-90892179D01*
X133110109Y-90720213D01*
X132959786Y-90569890D01*
X132787815Y-90444948D01*
X132787814Y-90444947D01*
X132748205Y-90424765D01*
X132697409Y-90376791D01*
X132680500Y-90314281D01*
X132680500Y-89970097D01*
X132700185Y-89903058D01*
X132716819Y-89882416D01*
X134937416Y-87661819D01*
X134998739Y-87628334D01*
X135025097Y-87625500D01*
X135376033Y-87625500D01*
X135376040Y-87625500D01*
X135490999Y-87610365D01*
X135634037Y-87551117D01*
X135756867Y-87456867D01*
X135851117Y-87334037D01*
X135886413Y-87248824D01*
X135930251Y-87194425D01*
X135996545Y-87172359D01*
X136064244Y-87189638D01*
G37*
%TD.AperFunction*%
%TA.AperFunction,Conductor*%
G36*
X131058418Y-99955417D02*
G01*
X131086673Y-99976569D01*
X131200213Y-100090109D01*
X131372179Y-100215048D01*
X131372181Y-100215049D01*
X131372184Y-100215051D01*
X131381493Y-100219794D01*
X131432290Y-100267766D01*
X131449087Y-100335587D01*
X131426552Y-100401722D01*
X131381505Y-100440760D01*
X131372446Y-100445376D01*
X131372440Y-100445380D01*
X131318282Y-100484727D01*
X131318282Y-100484728D01*
X131950591Y-101117037D01*
X131887007Y-101134075D01*
X131772993Y-101199901D01*
X131679901Y-101292993D01*
X131614075Y-101407007D01*
X131597037Y-101470591D01*
X130964728Y-100838282D01*
X130964727Y-100838282D01*
X130925380Y-100892440D01*
X130925376Y-100892446D01*
X130920760Y-100901505D01*
X130872781Y-100952297D01*
X130804959Y-100969087D01*
X130738826Y-100946543D01*
X130699794Y-100901493D01*
X130695051Y-100892184D01*
X130695049Y-100892181D01*
X130695048Y-100892179D01*
X130570109Y-100720213D01*
X130456569Y-100606673D01*
X130423084Y-100545350D01*
X130428068Y-100475658D01*
X130469940Y-100419725D01*
X130500915Y-100402810D01*
X130632331Y-100353796D01*
X130747546Y-100267546D01*
X130833796Y-100152331D01*
X130882810Y-100020916D01*
X130924681Y-99964984D01*
X130990145Y-99940566D01*
X131058418Y-99955417D01*
G37*
%TD.AperFunction*%
%TA.AperFunction,Conductor*%
G36*
X151764987Y-62247185D02*
G01*
X151767763Y-62249022D01*
X161482175Y-68867137D01*
X161483799Y-68868243D01*
X161489446Y-68872035D01*
X161492222Y-68873872D01*
X161497888Y-68877567D01*
X161628765Y-68937338D01*
X161695804Y-68957023D01*
X161695808Y-68957024D01*
X161838224Y-68977500D01*
X161838227Y-68977500D01*
X164781120Y-68977500D01*
X164848159Y-68997185D01*
X164893914Y-69049989D01*
X164903858Y-69119147D01*
X164899051Y-69139818D01*
X164865242Y-69243869D01*
X164865242Y-69243872D01*
X164832000Y-69453753D01*
X164832000Y-69666246D01*
X164865242Y-69876127D01*
X164865242Y-69876130D01*
X164930904Y-70078217D01*
X165027375Y-70267550D01*
X165066728Y-70321716D01*
X165699037Y-69689408D01*
X165716075Y-69752993D01*
X165781901Y-69867007D01*
X165874993Y-69960099D01*
X165989007Y-70025925D01*
X166052590Y-70042962D01*
X165420282Y-70675269D01*
X165420282Y-70675270D01*
X165474452Y-70714626D01*
X165474451Y-70714626D01*
X165483495Y-70719234D01*
X165534292Y-70767208D01*
X165551087Y-70835029D01*
X165528550Y-70901164D01*
X165483499Y-70940202D01*
X165474182Y-70944949D01*
X165302213Y-71069890D01*
X165151890Y-71220213D01*
X165026951Y-71392179D01*
X164930444Y-71581585D01*
X164864753Y-71783760D01*
X164833507Y-71981040D01*
X164831500Y-71993713D01*
X164831500Y-72206287D01*
X164864754Y-72416243D01*
X164910619Y-72557401D01*
X164930444Y-72618414D01*
X165026951Y-72807820D01*
X165151890Y-72979786D01*
X165302213Y-73130109D01*
X165474182Y-73255050D01*
X165482946Y-73259516D01*
X165533742Y-73307491D01*
X165550536Y-73375312D01*
X165527998Y-73441447D01*
X165482946Y-73480484D01*
X165474182Y-73484949D01*
X165302213Y-73609890D01*
X165151890Y-73760213D01*
X165026951Y-73932179D01*
X164930444Y-74121585D01*
X164864753Y-74323760D01*
X164831500Y-74533713D01*
X164831500Y-74746291D01*
X164845716Y-74836049D01*
X164836761Y-74905343D01*
X164810924Y-74943128D01*
X159529873Y-80224181D01*
X159468550Y-80257666D01*
X159442192Y-80260500D01*
X149817052Y-80260500D01*
X149750013Y-80240815D01*
X149704258Y-80188011D01*
X149694314Y-80118853D01*
X149699121Y-80098183D01*
X149709602Y-80065925D01*
X149719246Y-80036243D01*
X149752500Y-79826287D01*
X149752500Y-79613713D01*
X149719246Y-79403757D01*
X149653557Y-79201588D01*
X149557051Y-79012184D01*
X149557049Y-79012181D01*
X149557048Y-79012179D01*
X149432109Y-78840213D01*
X149281786Y-78689890D01*
X149109820Y-78564951D01*
X149109115Y-78564591D01*
X149101054Y-78560485D01*
X149050259Y-78512512D01*
X149033463Y-78444692D01*
X149055999Y-78378556D01*
X149101054Y-78339515D01*
X149109816Y-78335051D01*
X149149524Y-78306202D01*
X149281786Y-78210109D01*
X149281788Y-78210106D01*
X149281792Y-78210104D01*
X149432104Y-78059792D01*
X149432104Y-78059791D01*
X149432108Y-78059788D01*
X149432109Y-78059786D01*
X149543855Y-77905979D01*
X149557051Y-77887816D01*
X149653557Y-77698412D01*
X149719246Y-77496243D01*
X149752500Y-77286287D01*
X149752500Y-77073713D01*
X149719246Y-76863757D01*
X149653557Y-76661588D01*
X149557051Y-76472184D01*
X149557049Y-76472181D01*
X149557048Y-76472179D01*
X149432109Y-76300213D01*
X149281786Y-76149890D01*
X149109820Y-76024951D01*
X149109115Y-76024591D01*
X149101054Y-76020485D01*
X149050259Y-75972512D01*
X149033463Y-75904692D01*
X149055999Y-75838556D01*
X149101054Y-75799515D01*
X149109816Y-75795051D01*
X149131789Y-75779086D01*
X149281786Y-75670109D01*
X149281788Y-75670106D01*
X149281792Y-75670104D01*
X149432104Y-75519792D01*
X149432106Y-75519788D01*
X149432109Y-75519786D01*
X149557048Y-75347820D01*
X149557047Y-75347820D01*
X149557051Y-75347816D01*
X149653557Y-75158412D01*
X149719246Y-74956243D01*
X149752500Y-74746287D01*
X149752500Y-74533713D01*
X149719246Y-74323757D01*
X149653557Y-74121588D01*
X149557051Y-73932184D01*
X149557049Y-73932181D01*
X149557048Y-73932179D01*
X149432109Y-73760213D01*
X149281786Y-73609890D01*
X149109820Y-73484951D01*
X149109115Y-73484591D01*
X149101054Y-73480485D01*
X149050259Y-73432512D01*
X149033463Y-73364692D01*
X149055999Y-73298556D01*
X149101054Y-73259515D01*
X149109816Y-73255051D01*
X149131789Y-73239086D01*
X149281786Y-73130109D01*
X149281788Y-73130106D01*
X149281792Y-73130104D01*
X149432104Y-72979792D01*
X149432106Y-72979788D01*
X149432109Y-72979786D01*
X149557048Y-72807820D01*
X149557047Y-72807820D01*
X149557051Y-72807816D01*
X149653557Y-72618412D01*
X149719246Y-72416243D01*
X149752500Y-72206287D01*
X149752500Y-71993713D01*
X149719246Y-71783757D01*
X149653557Y-71581588D01*
X149557051Y-71392184D01*
X149557049Y-71392181D01*
X149557048Y-71392179D01*
X149432109Y-71220213D01*
X149281786Y-71069890D01*
X149109817Y-70944949D01*
X149100504Y-70940204D01*
X149049707Y-70892230D01*
X149032912Y-70824409D01*
X149055449Y-70758274D01*
X149100507Y-70719232D01*
X149109555Y-70714622D01*
X149163716Y-70675270D01*
X149163717Y-70675270D01*
X148531408Y-70042962D01*
X148594993Y-70025925D01*
X148709007Y-69960099D01*
X148802099Y-69867007D01*
X148867925Y-69752993D01*
X148884962Y-69689409D01*
X149517270Y-70321717D01*
X149517270Y-70321716D01*
X149556622Y-70267554D01*
X149653095Y-70078217D01*
X149718757Y-69876130D01*
X149718757Y-69876127D01*
X149752000Y-69666246D01*
X149752000Y-69453753D01*
X149718757Y-69243872D01*
X149718757Y-69243869D01*
X149653095Y-69041782D01*
X149556624Y-68852449D01*
X149517270Y-68798282D01*
X149517269Y-68798282D01*
X148884962Y-69430590D01*
X148867925Y-69367007D01*
X148802099Y-69252993D01*
X148709007Y-69159901D01*
X148594993Y-69094075D01*
X148531409Y-69077037D01*
X149163716Y-68444728D01*
X149109547Y-68405373D01*
X149109547Y-68405372D01*
X149100500Y-68400763D01*
X149049706Y-68352788D01*
X149032912Y-68284966D01*
X149055451Y-68218832D01*
X149100508Y-68179793D01*
X149109816Y-68175051D01*
X149226668Y-68090154D01*
X149281786Y-68050109D01*
X149281788Y-68050106D01*
X149281792Y-68050104D01*
X149432104Y-67899792D01*
X149432106Y-67899788D01*
X149432109Y-67899786D01*
X149557048Y-67727820D01*
X149557047Y-67727820D01*
X149557051Y-67727816D01*
X149653557Y-67538412D01*
X149719246Y-67336243D01*
X149752500Y-67126287D01*
X149752500Y-66913713D01*
X149719246Y-66703757D01*
X149653557Y-66501588D01*
X149557051Y-66312184D01*
X149557049Y-66312181D01*
X149557048Y-66312179D01*
X149432109Y-66140213D01*
X149281786Y-65989890D01*
X149109820Y-65864951D01*
X149109115Y-65864591D01*
X149101054Y-65860485D01*
X149050259Y-65812512D01*
X149033463Y-65744692D01*
X149055999Y-65678556D01*
X149101054Y-65639515D01*
X149109816Y-65635051D01*
X149212608Y-65560369D01*
X149281786Y-65510109D01*
X149281788Y-65510106D01*
X149281792Y-65510104D01*
X149432104Y-65359792D01*
X149432106Y-65359788D01*
X149432109Y-65359786D01*
X149557048Y-65187820D01*
X149557047Y-65187820D01*
X149557051Y-65187816D01*
X149653557Y-64998412D01*
X149719246Y-64796243D01*
X149752500Y-64586287D01*
X149752500Y-64373713D01*
X149719246Y-64163757D01*
X149653557Y-63961588D01*
X149557051Y-63772184D01*
X149557049Y-63772181D01*
X149557048Y-63772179D01*
X149432109Y-63600213D01*
X149281786Y-63449890D01*
X149109820Y-63324951D01*
X148920414Y-63228444D01*
X148920413Y-63228443D01*
X148920412Y-63228443D01*
X148718243Y-63162754D01*
X148718241Y-63162753D01*
X148718240Y-63162753D01*
X148556957Y-63137208D01*
X148508287Y-63129500D01*
X148295713Y-63129500D01*
X148247042Y-63137208D01*
X148085760Y-63162753D01*
X147883585Y-63228444D01*
X147694179Y-63324951D01*
X147522213Y-63449890D01*
X147371890Y-63600213D01*
X147246951Y-63772179D01*
X147150444Y-63961585D01*
X147084753Y-64163760D01*
X147073898Y-64232297D01*
X147051500Y-64373713D01*
X147051500Y-64586287D01*
X147084754Y-64796243D01*
X147102936Y-64852202D01*
X147150444Y-64998414D01*
X147246951Y-65187820D01*
X147371890Y-65359786D01*
X147522213Y-65510109D01*
X147694182Y-65635050D01*
X147702946Y-65639516D01*
X147753742Y-65687491D01*
X147770536Y-65755312D01*
X147747998Y-65821447D01*
X147702946Y-65860484D01*
X147694182Y-65864949D01*
X147522213Y-65989890D01*
X147371890Y-66140213D01*
X147246951Y-66312179D01*
X147150444Y-66501585D01*
X147084753Y-66703760D01*
X147061522Y-66850439D01*
X147051500Y-66913713D01*
X147051500Y-67126287D01*
X147084754Y-67336243D01*
X147099751Y-67382400D01*
X147150444Y-67538414D01*
X147246951Y-67727820D01*
X147371890Y-67899786D01*
X147522213Y-68050109D01*
X147694179Y-68175048D01*
X147694181Y-68175049D01*
X147694184Y-68175051D01*
X147703493Y-68179794D01*
X147754290Y-68227766D01*
X147771087Y-68295587D01*
X147748552Y-68361722D01*
X147703505Y-68400760D01*
X147694446Y-68405376D01*
X147694440Y-68405380D01*
X147640282Y-68444727D01*
X147640282Y-68444728D01*
X148272591Y-69077037D01*
X148209007Y-69094075D01*
X148094993Y-69159901D01*
X148001901Y-69252993D01*
X147936075Y-69367007D01*
X147919037Y-69430591D01*
X147286728Y-68798282D01*
X147286727Y-68798282D01*
X147247380Y-68852439D01*
X147150904Y-69041782D01*
X147085242Y-69243869D01*
X147085242Y-69243872D01*
X147052000Y-69453753D01*
X147052000Y-69666246D01*
X147085242Y-69876127D01*
X147085242Y-69876130D01*
X147150904Y-70078217D01*
X147247375Y-70267550D01*
X147286728Y-70321716D01*
X147919037Y-69689408D01*
X147936075Y-69752993D01*
X148001901Y-69867007D01*
X148094993Y-69960099D01*
X148209007Y-70025925D01*
X148272590Y-70042962D01*
X147640282Y-70675269D01*
X147640282Y-70675270D01*
X147694452Y-70714626D01*
X147694451Y-70714626D01*
X147703495Y-70719234D01*
X147754292Y-70767208D01*
X147771087Y-70835029D01*
X147748550Y-70901164D01*
X147703499Y-70940202D01*
X147694182Y-70944949D01*
X147522213Y-71069890D01*
X147371890Y-71220213D01*
X147246951Y-71392179D01*
X147150444Y-71581585D01*
X147084753Y-71783760D01*
X147053507Y-71981040D01*
X147051500Y-71993713D01*
X147051500Y-72206287D01*
X147084754Y-72416243D01*
X147130619Y-72557401D01*
X147150444Y-72618414D01*
X147246951Y-72807820D01*
X147371890Y-72979786D01*
X147522213Y-73130109D01*
X147694182Y-73255050D01*
X147702946Y-73259516D01*
X147753742Y-73307491D01*
X147770536Y-73375312D01*
X147747998Y-73441447D01*
X147702946Y-73480484D01*
X147694182Y-73484949D01*
X147522213Y-73609890D01*
X147371890Y-73760213D01*
X147246951Y-73932179D01*
X147150444Y-74121585D01*
X147084753Y-74323760D01*
X147051500Y-74533713D01*
X147051500Y-74746286D01*
X147082676Y-74943128D01*
X147084754Y-74956243D01*
X147128095Y-75089633D01*
X147150444Y-75158414D01*
X147246951Y-75347820D01*
X147371890Y-75519786D01*
X147522213Y-75670109D01*
X147694182Y-75795050D01*
X147702946Y-75799516D01*
X147753742Y-75847491D01*
X147770536Y-75915312D01*
X147747998Y-75981447D01*
X147702946Y-76020484D01*
X147694182Y-76024949D01*
X147522213Y-76149890D01*
X147371890Y-76300213D01*
X147246951Y-76472179D01*
X147150444Y-76661585D01*
X147084753Y-76863760D01*
X147051500Y-77073713D01*
X147051500Y-77286286D01*
X147081998Y-77478847D01*
X147084754Y-77496243D01*
X147111943Y-77579923D01*
X147150444Y-77698414D01*
X147246951Y-77887820D01*
X147371890Y-78059786D01*
X147522213Y-78210109D01*
X147694182Y-78335050D01*
X147702946Y-78339516D01*
X147753742Y-78387491D01*
X147770536Y-78455312D01*
X147747998Y-78521447D01*
X147702946Y-78560484D01*
X147694182Y-78564949D01*
X147522213Y-78689890D01*
X147371890Y-78840213D01*
X147246951Y-79012179D01*
X147150444Y-79201585D01*
X147084753Y-79403760D01*
X147051500Y-79613713D01*
X147051500Y-79826286D01*
X147084753Y-80036240D01*
X147084754Y-80036244D01*
X147104879Y-80098183D01*
X147106874Y-80168024D01*
X147070793Y-80227857D01*
X147008092Y-80258684D01*
X146986948Y-80260500D01*
X142685371Y-80260500D01*
X142559703Y-80285497D01*
X142559697Y-80285499D01*
X142441312Y-80334535D01*
X142334773Y-80405722D01*
X142334766Y-80405728D01*
X139227315Y-83513181D01*
X139165992Y-83546666D01*
X139139634Y-83549500D01*
X135985929Y-83549500D01*
X135860261Y-83574497D01*
X135860255Y-83574499D01*
X135741874Y-83623534D01*
X135635326Y-83694726D01*
X135635325Y-83694727D01*
X134591873Y-84738181D01*
X134530550Y-84771666D01*
X134504192Y-84774500D01*
X134223952Y-84774500D01*
X134121774Y-84787953D01*
X134109001Y-84789635D01*
X134012213Y-84829725D01*
X133942744Y-84837193D01*
X133880265Y-84805917D01*
X133877081Y-84802844D01*
X130236417Y-81162180D01*
X130202932Y-81100857D01*
X130207916Y-81031165D01*
X130249788Y-80975232D01*
X130315252Y-80950815D01*
X130324098Y-80950499D01*
X130417871Y-80950499D01*
X130417872Y-80950499D01*
X130477483Y-80944091D01*
X130612331Y-80893796D01*
X130727546Y-80807546D01*
X130813796Y-80692331D01*
X130862810Y-80560916D01*
X130904681Y-80504984D01*
X130970145Y-80480566D01*
X131038418Y-80495417D01*
X131066673Y-80516569D01*
X131180213Y-80630109D01*
X131352179Y-80755048D01*
X131352181Y-80755049D01*
X131352184Y-80755051D01*
X131541588Y-80851557D01*
X131743757Y-80917246D01*
X131953713Y-80950500D01*
X131953714Y-80950500D01*
X132166286Y-80950500D01*
X132166287Y-80950500D01*
X132376243Y-80917246D01*
X132578412Y-80851557D01*
X132767816Y-80755051D01*
X132854138Y-80692335D01*
X132939786Y-80630109D01*
X132939788Y-80630106D01*
X132939792Y-80630104D01*
X133090104Y-80479792D01*
X133090106Y-80479788D01*
X133090109Y-80479786D01*
X133175890Y-80361717D01*
X133215051Y-80307816D01*
X133219793Y-80298508D01*
X133267763Y-80247711D01*
X133335583Y-80230911D01*
X133401719Y-80253445D01*
X133440763Y-80298500D01*
X133445373Y-80307547D01*
X133484728Y-80361716D01*
X134117037Y-79729408D01*
X134134075Y-79792993D01*
X134199901Y-79907007D01*
X134292993Y-80000099D01*
X134407007Y-80065925D01*
X134470590Y-80082962D01*
X133838282Y-80715269D01*
X133838282Y-80715270D01*
X133892449Y-80754624D01*
X134081782Y-80851095D01*
X134283870Y-80916757D01*
X134493754Y-80950000D01*
X134706246Y-80950000D01*
X134916127Y-80916757D01*
X134916130Y-80916757D01*
X135118217Y-80851095D01*
X135307554Y-80754622D01*
X135361716Y-80715270D01*
X135361717Y-80715270D01*
X134729408Y-80082962D01*
X134792993Y-80065925D01*
X134907007Y-80000099D01*
X135000099Y-79907007D01*
X135065925Y-79792993D01*
X135082962Y-79729409D01*
X135715270Y-80361717D01*
X135715270Y-80361716D01*
X135754622Y-80307554D01*
X135851095Y-80118217D01*
X135916757Y-79916130D01*
X135916757Y-79916127D01*
X135950000Y-79706246D01*
X135950000Y-79493753D01*
X135916757Y-79283872D01*
X135916757Y-79283869D01*
X135851095Y-79081782D01*
X135754624Y-78892449D01*
X135715270Y-78838282D01*
X135715269Y-78838282D01*
X135082962Y-79470590D01*
X135065925Y-79407007D01*
X135000099Y-79292993D01*
X134907007Y-79199901D01*
X134792993Y-79134075D01*
X134729409Y-79117037D01*
X135361716Y-78484728D01*
X135307550Y-78445375D01*
X135118217Y-78348904D01*
X134916129Y-78283242D01*
X134706246Y-78250000D01*
X134493754Y-78250000D01*
X134283872Y-78283242D01*
X134283869Y-78283242D01*
X134081782Y-78348904D01*
X133892439Y-78445380D01*
X133838282Y-78484727D01*
X133838282Y-78484728D01*
X134470591Y-79117037D01*
X134407007Y-79134075D01*
X134292993Y-79199901D01*
X134199901Y-79292993D01*
X134134075Y-79407007D01*
X134117037Y-79470591D01*
X133484728Y-78838282D01*
X133484727Y-78838282D01*
X133445380Y-78892440D01*
X133445376Y-78892446D01*
X133440760Y-78901505D01*
X133392781Y-78952297D01*
X133324959Y-78969087D01*
X133258826Y-78946543D01*
X133228917Y-78916626D01*
X133223816Y-78909388D01*
X133215051Y-78892184D01*
X133103686Y-78738903D01*
X133103137Y-78738123D01*
X133092164Y-78705903D01*
X133080702Y-78673776D01*
X133080654Y-78672104D01*
X133080613Y-78671983D01*
X133080646Y-78671846D01*
X133080500Y-78666698D01*
X133080500Y-75051500D01*
X133100185Y-74984461D01*
X133152989Y-74938706D01*
X133204500Y-74927500D01*
X138661157Y-74927500D01*
X138661160Y-74927500D01*
X138759762Y-74917790D01*
X138786331Y-74912505D01*
X138802983Y-74909325D01*
X138803127Y-74910047D01*
X138897504Y-74891274D01*
X138897889Y-74891201D01*
X138898350Y-74891245D01*
X138921150Y-74889000D01*
X138954840Y-74889000D01*
X138979029Y-74891381D01*
X139072873Y-74910048D01*
X139072873Y-74910047D01*
X139096520Y-74914751D01*
X139099746Y-74915438D01*
X139103518Y-74916293D01*
X139107118Y-74916859D01*
X139111212Y-74917673D01*
X139113179Y-74917801D01*
X139113210Y-74917493D01*
X139192549Y-74925305D01*
X139214840Y-74927500D01*
X139214841Y-74927500D01*
X141680640Y-74927500D01*
X141690786Y-74926955D01*
X141734678Y-74924603D01*
X141734686Y-74924602D01*
X141734688Y-74924602D01*
X141734689Y-74924602D01*
X141741682Y-74923849D01*
X141761036Y-74921769D01*
X141761046Y-74921767D01*
X141761049Y-74921767D01*
X141770648Y-74920211D01*
X141814448Y-74913114D01*
X141949257Y-74862832D01*
X142010580Y-74829347D01*
X142125761Y-74743123D01*
X146371123Y-70497761D01*
X146407288Y-70457500D01*
X146423922Y-70436858D01*
X146455567Y-70392974D01*
X146515338Y-70262097D01*
X146535023Y-70195058D01*
X146535024Y-70195054D01*
X146555500Y-70052638D01*
X146555500Y-62351500D01*
X146575185Y-62284461D01*
X146627989Y-62238706D01*
X146679500Y-62227500D01*
X151697948Y-62227500D01*
X151764987Y-62247185D01*
G37*
%TD.AperFunction*%
%TA.AperFunction,Conductor*%
G36*
X164805703Y-82386466D02*
G01*
X164843477Y-82445244D01*
X164846973Y-82460781D01*
X164865242Y-82576127D01*
X164865242Y-82576130D01*
X164930904Y-82778217D01*
X165027375Y-82967550D01*
X165066728Y-83021716D01*
X165699037Y-82389408D01*
X165716075Y-82452993D01*
X165781901Y-82567007D01*
X165874993Y-82660099D01*
X165989007Y-82725925D01*
X166052590Y-82742962D01*
X165420282Y-83375269D01*
X165420282Y-83375270D01*
X165474452Y-83414626D01*
X165474451Y-83414626D01*
X165483495Y-83419234D01*
X165534292Y-83467208D01*
X165551087Y-83535029D01*
X165528550Y-83601164D01*
X165483499Y-83640202D01*
X165474182Y-83644949D01*
X165302213Y-83769890D01*
X165151890Y-83920213D01*
X165026951Y-84092179D01*
X164930444Y-84281585D01*
X164864753Y-84483760D01*
X164846973Y-84596021D01*
X164817044Y-84659156D01*
X164757732Y-84696087D01*
X164687870Y-84695089D01*
X164629637Y-84656479D01*
X164601523Y-84592516D01*
X164600500Y-84576623D01*
X164600500Y-82480179D01*
X164620185Y-82413140D01*
X164672989Y-82367385D01*
X164742147Y-82357441D01*
X164805703Y-82386466D01*
G37*
%TD.AperFunction*%
%TA.AperFunction,Conductor*%
G36*
X169738356Y-76285194D02*
G01*
X169778882Y-76342110D01*
X169785700Y-76382660D01*
X169785700Y-76503268D01*
X169785701Y-76503287D01*
X169796025Y-76604352D01*
X169850292Y-76768115D01*
X169850293Y-76768118D01*
X169940861Y-76914951D01*
X169979829Y-76953919D01*
X170013314Y-77015242D01*
X170008330Y-77084934D01*
X169979829Y-77129281D01*
X169940861Y-77168248D01*
X169850293Y-77315081D01*
X169850292Y-77315084D01*
X169796026Y-77478847D01*
X169796026Y-77478848D01*
X169796025Y-77478848D01*
X169785700Y-77579915D01*
X169785700Y-77954001D01*
X169777054Y-77983444D01*
X169770532Y-78013427D01*
X169766777Y-78018442D01*
X169766015Y-78021040D01*
X169749385Y-78041677D01*
X169616486Y-78174578D01*
X169616485Y-78174578D01*
X169616484Y-78174579D01*
X169504681Y-78286382D01*
X169504679Y-78286385D01*
X169468852Y-78348441D01*
X169468851Y-78348443D01*
X169425623Y-78423314D01*
X169417049Y-78455312D01*
X169384699Y-78576043D01*
X169384699Y-78576045D01*
X169384699Y-78744146D01*
X169384700Y-78744159D01*
X169384700Y-80548702D01*
X169365015Y-80615741D01*
X169348381Y-80636383D01*
X167743681Y-82241082D01*
X167682358Y-82274567D01*
X167612666Y-82269583D01*
X167556733Y-82227711D01*
X167532316Y-82162247D01*
X167532022Y-82154044D01*
X167532000Y-82153755D01*
X167498757Y-81943872D01*
X167498757Y-81943869D01*
X167433095Y-81741782D01*
X167336624Y-81552449D01*
X167297270Y-81498282D01*
X167297269Y-81498282D01*
X166664962Y-82130590D01*
X166647925Y-82067007D01*
X166582099Y-81952993D01*
X166489007Y-81859901D01*
X166374993Y-81794075D01*
X166311409Y-81777037D01*
X166943716Y-81144728D01*
X166889547Y-81105373D01*
X166889547Y-81105372D01*
X166880500Y-81100763D01*
X166829706Y-81052788D01*
X166812912Y-80984966D01*
X166835451Y-80918832D01*
X166880508Y-80879793D01*
X166889816Y-80875051D01*
X166982732Y-80807544D01*
X167061786Y-80750109D01*
X167061788Y-80750106D01*
X167061792Y-80750104D01*
X167212104Y-80599792D01*
X167212106Y-80599788D01*
X167212109Y-80599786D01*
X167337048Y-80427820D01*
X167337047Y-80427820D01*
X167337051Y-80427816D01*
X167433557Y-80238412D01*
X167499246Y-80036243D01*
X167532500Y-79826287D01*
X167532500Y-79613713D01*
X167499246Y-79403757D01*
X167433557Y-79201588D01*
X167337051Y-79012184D01*
X167323293Y-78993248D01*
X167222460Y-78854461D01*
X167198981Y-78788654D01*
X167214807Y-78720600D01*
X167235094Y-78693899D01*
X169368713Y-76560281D01*
X169368716Y-76560280D01*
X169480520Y-76448476D01*
X169530639Y-76361664D01*
X169554316Y-76320655D01*
X169604885Y-76272443D01*
X169673493Y-76259223D01*
X169738356Y-76285194D01*
G37*
%TD.AperFunction*%
%TA.AperFunction,Conductor*%
G36*
X164968812Y-80382934D02*
G01*
X165024746Y-80424805D01*
X165025798Y-80426231D01*
X165026947Y-80427813D01*
X165026949Y-80427816D01*
X165106230Y-80536938D01*
X165151896Y-80599792D01*
X165302213Y-80750109D01*
X165474179Y-80875048D01*
X165474181Y-80875049D01*
X165474184Y-80875051D01*
X165483493Y-80879794D01*
X165534290Y-80927766D01*
X165551087Y-80995587D01*
X165528552Y-81061722D01*
X165483505Y-81100760D01*
X165474446Y-81105376D01*
X165474440Y-81105380D01*
X165420282Y-81144727D01*
X165420282Y-81144728D01*
X166052591Y-81777037D01*
X165989007Y-81794075D01*
X165874993Y-81859901D01*
X165781901Y-81952993D01*
X165716075Y-82067007D01*
X165699037Y-82130591D01*
X165066728Y-81498282D01*
X165066727Y-81498282D01*
X165027380Y-81552439D01*
X164930904Y-81741782D01*
X164865242Y-81943869D01*
X164865242Y-81943872D01*
X164846973Y-82059218D01*
X164817044Y-82122353D01*
X164757732Y-82159284D01*
X164687870Y-82158286D01*
X164629637Y-82119676D01*
X164601523Y-82055712D01*
X164600500Y-82039820D01*
X164600500Y-80700096D01*
X164620185Y-80633057D01*
X164636815Y-80612419D01*
X164837800Y-80411433D01*
X164899121Y-80377950D01*
X164968812Y-80382934D01*
G37*
%TD.AperFunction*%
%TA.AperFunction,Conductor*%
G36*
X191852702Y-44950617D02*
G01*
X192236771Y-44967386D01*
X192247506Y-44968326D01*
X192625971Y-45018152D01*
X192636597Y-45020025D01*
X193009284Y-45102648D01*
X193019710Y-45105442D01*
X193383765Y-45220227D01*
X193393911Y-45223920D01*
X193746578Y-45370000D01*
X193756369Y-45374566D01*
X194094942Y-45550816D01*
X194104310Y-45556224D01*
X194426244Y-45761318D01*
X194435105Y-45767523D01*
X194737930Y-45999889D01*
X194746217Y-46006843D01*
X195027635Y-46264715D01*
X195035284Y-46272364D01*
X195293156Y-46553782D01*
X195300110Y-46562069D01*
X195532476Y-46864894D01*
X195538681Y-46873755D01*
X195743775Y-47195689D01*
X195749183Y-47205057D01*
X195925430Y-47543623D01*
X195930002Y-47553427D01*
X196076075Y-47906078D01*
X196079775Y-47916244D01*
X196194554Y-48280278D01*
X196197354Y-48290727D01*
X196279971Y-48663389D01*
X196281849Y-48674042D01*
X196331671Y-49052473D01*
X196332614Y-49063249D01*
X196349382Y-49447297D01*
X196349500Y-49452706D01*
X196349500Y-128347293D01*
X196349382Y-128352702D01*
X196332614Y-128736750D01*
X196331671Y-128747526D01*
X196281849Y-129125957D01*
X196279971Y-129136610D01*
X196197354Y-129509272D01*
X196194554Y-129519721D01*
X196079775Y-129883755D01*
X196076075Y-129893921D01*
X195930002Y-130246572D01*
X195925430Y-130256376D01*
X195749183Y-130594942D01*
X195743775Y-130604310D01*
X195538681Y-130926244D01*
X195532476Y-130935105D01*
X195300110Y-131237930D01*
X195293156Y-131246217D01*
X195035284Y-131527635D01*
X195027635Y-131535284D01*
X194746217Y-131793156D01*
X194737930Y-131800110D01*
X194435105Y-132032476D01*
X194426244Y-132038681D01*
X194104310Y-132243775D01*
X194094942Y-132249183D01*
X193756376Y-132425430D01*
X193746572Y-132430002D01*
X193393921Y-132576075D01*
X193383755Y-132579775D01*
X193019721Y-132694554D01*
X193009272Y-132697354D01*
X192636610Y-132779971D01*
X192625957Y-132781849D01*
X192247526Y-132831671D01*
X192236750Y-132832614D01*
X191852703Y-132849382D01*
X191847294Y-132849500D01*
X125643906Y-132849500D01*
X125638497Y-132849382D01*
X125254449Y-132832614D01*
X125243673Y-132831671D01*
X124865242Y-132781849D01*
X124854589Y-132779971D01*
X124481927Y-132697354D01*
X124471478Y-132694554D01*
X124107444Y-132579775D01*
X124097278Y-132576075D01*
X123744627Y-132430002D01*
X123734823Y-132425430D01*
X123396257Y-132249183D01*
X123386889Y-132243775D01*
X123064955Y-132038681D01*
X123056094Y-132032476D01*
X122753269Y-131800110D01*
X122744982Y-131793156D01*
X122463564Y-131535284D01*
X122455915Y-131527635D01*
X122198043Y-131246217D01*
X122191089Y-131237930D01*
X121958723Y-130935105D01*
X121952518Y-130926244D01*
X121747424Y-130604310D01*
X121742016Y-130594942D01*
X121565769Y-130256376D01*
X121561197Y-130246572D01*
X121415124Y-129893921D01*
X121411424Y-129883755D01*
X121296642Y-129519710D01*
X121293848Y-129509284D01*
X121211225Y-129136597D01*
X121209352Y-129125971D01*
X121159526Y-128747506D01*
X121158586Y-128736771D01*
X121141818Y-128352702D01*
X121141700Y-128347293D01*
X121141700Y-122840506D01*
X158410000Y-122840506D01*
X158410000Y-123084493D01*
X158448165Y-123325459D01*
X158523560Y-123557498D01*
X158634323Y-123774880D01*
X158701543Y-123867401D01*
X158701544Y-123867402D01*
X159320690Y-123248256D01*
X159339668Y-123294074D01*
X159416274Y-123408724D01*
X159513776Y-123506226D01*
X159628426Y-123582832D01*
X159674242Y-123601809D01*
X159055096Y-124220954D01*
X159055097Y-124220956D01*
X159147619Y-124288176D01*
X159365001Y-124398939D01*
X159597040Y-124474334D01*
X159838007Y-124512500D01*
X160081993Y-124512500D01*
X160322959Y-124474334D01*
X160554998Y-124398939D01*
X160772377Y-124288178D01*
X160864901Y-124220954D01*
X160864902Y-124220954D01*
X160245757Y-123601809D01*
X160291574Y-123582832D01*
X160406224Y-123506226D01*
X160503726Y-123408724D01*
X160580332Y-123294074D01*
X160599309Y-123248257D01*
X161218454Y-123867402D01*
X161218454Y-123867401D01*
X161285678Y-123774877D01*
X161396439Y-123557498D01*
X161471834Y-123325459D01*
X161510000Y-123084493D01*
X161510000Y-122840506D01*
X161471834Y-122599540D01*
X161396439Y-122367501D01*
X161285676Y-122150119D01*
X161218456Y-122057597D01*
X161218454Y-122057596D01*
X160599309Y-122676741D01*
X160580332Y-122630926D01*
X160503726Y-122516276D01*
X160406224Y-122418774D01*
X160291574Y-122342168D01*
X160245756Y-122323189D01*
X160704312Y-121864635D01*
X163489500Y-121864635D01*
X163489500Y-124060370D01*
X163489501Y-124060376D01*
X163495908Y-124119983D01*
X163546202Y-124254828D01*
X163546206Y-124254835D01*
X163632452Y-124370044D01*
X163632455Y-124370047D01*
X163747664Y-124456293D01*
X163747671Y-124456297D01*
X163882517Y-124506591D01*
X163882516Y-124506591D01*
X163889444Y-124507335D01*
X163942127Y-124513000D01*
X166137872Y-124512999D01*
X166197483Y-124506591D01*
X166332331Y-124456296D01*
X166447546Y-124370046D01*
X166533796Y-124254831D01*
X166584091Y-124119983D01*
X166590500Y-124060373D01*
X166590499Y-121864628D01*
X166584091Y-121805017D01*
X166533796Y-121670169D01*
X166447546Y-121554954D01*
X166447544Y-121554953D01*
X166447544Y-121554952D01*
X166332335Y-121468706D01*
X166332328Y-121468702D01*
X166197482Y-121418408D01*
X166197483Y-121418408D01*
X166137883Y-121412001D01*
X166137881Y-121412000D01*
X166137873Y-121412000D01*
X166137864Y-121412000D01*
X163942129Y-121412000D01*
X163942123Y-121412001D01*
X163882516Y-121418408D01*
X163747671Y-121468702D01*
X163747664Y-121468706D01*
X163632455Y-121554952D01*
X163632452Y-121554955D01*
X163546206Y-121670164D01*
X163546202Y-121670171D01*
X163495908Y-121805017D01*
X163490836Y-121852202D01*
X163489501Y-121864623D01*
X163489500Y-121864635D01*
X160704312Y-121864635D01*
X160795322Y-121773625D01*
X160864902Y-121704044D01*
X160864901Y-121704043D01*
X160772380Y-121636823D01*
X160554998Y-121526060D01*
X160322959Y-121450665D01*
X160081993Y-121412500D01*
X159838007Y-121412500D01*
X159597040Y-121450665D01*
X159365001Y-121526060D01*
X159147626Y-121636819D01*
X159055097Y-121704044D01*
X159674243Y-122323189D01*
X159628426Y-122342168D01*
X159513776Y-122418774D01*
X159416274Y-122516276D01*
X159339668Y-122630926D01*
X159320690Y-122676743D01*
X158701544Y-122057597D01*
X158634319Y-122150126D01*
X158523560Y-122367501D01*
X158448165Y-122599540D01*
X158410000Y-122840506D01*
X121141700Y-122840506D01*
X121141700Y-73485328D01*
X127287500Y-73485328D01*
X127287500Y-92841881D01*
X127309106Y-92950496D01*
X127309106Y-92950498D01*
X127312497Y-92967545D01*
X127312500Y-92967557D01*
X127361532Y-93085933D01*
X127432726Y-93192483D01*
X127432727Y-93192484D01*
X131786149Y-97545905D01*
X131819634Y-97607228D01*
X131814650Y-97676920D01*
X131772778Y-97732853D01*
X131736787Y-97751517D01*
X131561583Y-97808444D01*
X131372179Y-97904951D01*
X131200215Y-98029889D01*
X131086673Y-98143431D01*
X131025350Y-98176915D01*
X130955658Y-98171931D01*
X130899725Y-98130059D01*
X130882810Y-98099082D01*
X130833797Y-97967671D01*
X130833793Y-97967664D01*
X130747547Y-97852455D01*
X130747544Y-97852452D01*
X130632335Y-97766206D01*
X130632328Y-97766202D01*
X130497482Y-97715908D01*
X130497483Y-97715908D01*
X130437883Y-97709501D01*
X130437881Y-97709500D01*
X130437873Y-97709500D01*
X130437864Y-97709500D01*
X128642129Y-97709500D01*
X128642123Y-97709501D01*
X128582516Y-97715908D01*
X128447671Y-97766202D01*
X128447664Y-97766206D01*
X128332455Y-97852452D01*
X128332452Y-97852455D01*
X128246206Y-97967664D01*
X128246202Y-97967671D01*
X128195908Y-98102517D01*
X128189501Y-98162116D01*
X128189500Y-98162135D01*
X128189500Y-99957870D01*
X128189501Y-99957876D01*
X128195908Y-100017483D01*
X128246202Y-100152328D01*
X128246206Y-100152335D01*
X128332452Y-100267544D01*
X128332455Y-100267547D01*
X128447664Y-100353793D01*
X128447671Y-100353797D01*
X128579082Y-100402810D01*
X128635016Y-100444681D01*
X128659433Y-100510145D01*
X128644582Y-100578418D01*
X128623431Y-100606673D01*
X128509889Y-100720215D01*
X128384951Y-100892179D01*
X128288444Y-101081585D01*
X128222753Y-101283760D01*
X128189500Y-101493713D01*
X128189500Y-101706286D01*
X128222735Y-101916127D01*
X128222754Y-101916243D01*
X128279731Y-102091600D01*
X128288444Y-102118414D01*
X128384951Y-102307820D01*
X128509890Y-102479786D01*
X128660213Y-102630109D01*
X128832182Y-102755050D01*
X128840946Y-102759516D01*
X128891742Y-102807491D01*
X128908536Y-102875312D01*
X128885998Y-102941447D01*
X128840946Y-102980484D01*
X128832182Y-102984949D01*
X128660213Y-103109890D01*
X128509890Y-103260213D01*
X128384951Y-103432179D01*
X128288444Y-103621585D01*
X128222753Y-103823760D01*
X128189500Y-104033713D01*
X128189500Y-104246286D01*
X128215775Y-104412184D01*
X128222754Y-104456243D01*
X128258516Y-104566308D01*
X128288444Y-104658414D01*
X128384951Y-104847820D01*
X128509890Y-105019786D01*
X128660213Y-105170109D01*
X128832182Y-105295050D01*
X128840946Y-105299516D01*
X128891742Y-105347491D01*
X128908536Y-105415312D01*
X128885998Y-105481447D01*
X128840946Y-105520484D01*
X128832182Y-105524949D01*
X128660213Y-105649890D01*
X128509890Y-105800213D01*
X128384951Y-105972179D01*
X128288444Y-106161585D01*
X128222753Y-106363760D01*
X128189500Y-106573713D01*
X128189500Y-106786286D01*
X128216946Y-106959577D01*
X128222754Y-106996243D01*
X128266128Y-107129735D01*
X128288444Y-107198414D01*
X128384951Y-107387820D01*
X128509890Y-107559786D01*
X128660213Y-107710109D01*
X128832182Y-107835050D01*
X128840946Y-107839516D01*
X128891742Y-107887491D01*
X128908536Y-107955312D01*
X128885998Y-108021447D01*
X128840946Y-108060484D01*
X128832182Y-108064949D01*
X128660213Y-108189890D01*
X128509890Y-108340213D01*
X128384951Y-108512179D01*
X128288444Y-108701585D01*
X128222753Y-108903760D01*
X128189500Y-109113713D01*
X128189500Y-109326286D01*
X128215775Y-109492184D01*
X128222754Y-109536243D01*
X128262942Y-109659929D01*
X128288444Y-109738414D01*
X128384951Y-109927820D01*
X128509890Y-110099786D01*
X128660213Y-110250109D01*
X128832182Y-110375050D01*
X128840946Y-110379516D01*
X128891742Y-110427491D01*
X128908536Y-110495312D01*
X128885998Y-110561447D01*
X128840946Y-110600484D01*
X128832182Y-110604949D01*
X128660213Y-110729890D01*
X128509890Y-110880213D01*
X128384951Y-111052179D01*
X128288444Y-111241585D01*
X128222753Y-111443760D01*
X128189500Y-111653713D01*
X128189500Y-111866286D01*
X128215775Y-112032184D01*
X128222754Y-112076243D01*
X128284904Y-112267521D01*
X128288444Y-112278414D01*
X128384951Y-112467820D01*
X128509890Y-112639786D01*
X128660213Y-112790109D01*
X128832182Y-112915050D01*
X128840946Y-112919516D01*
X128891742Y-112967491D01*
X128908536Y-113035312D01*
X128885998Y-113101447D01*
X128840946Y-113140484D01*
X128832182Y-113144949D01*
X128660213Y-113269890D01*
X128509890Y-113420213D01*
X128384951Y-113592179D01*
X128288444Y-113781585D01*
X128222753Y-113983760D01*
X128189500Y-114193713D01*
X128189500Y-114406286D01*
X128220870Y-114604353D01*
X128222754Y-114616243D01*
X128272101Y-114768118D01*
X128288444Y-114818414D01*
X128384951Y-115007820D01*
X128509890Y-115179786D01*
X128660213Y-115330109D01*
X128832182Y-115455050D01*
X128840946Y-115459516D01*
X128891742Y-115507491D01*
X128908536Y-115575312D01*
X128885998Y-115641447D01*
X128840946Y-115680484D01*
X128832182Y-115684949D01*
X128660213Y-115809890D01*
X128509890Y-115960213D01*
X128384951Y-116132179D01*
X128288444Y-116321585D01*
X128222753Y-116523760D01*
X128191148Y-116723308D01*
X128189500Y-116733713D01*
X128189500Y-116946287D01*
X128196938Y-116993248D01*
X128222735Y-117156127D01*
X128222754Y-117156243D01*
X128229570Y-117177221D01*
X128288444Y-117358414D01*
X128384951Y-117547820D01*
X128509890Y-117719786D01*
X128660213Y-117870109D01*
X128832179Y-117995048D01*
X128832181Y-117995049D01*
X128832184Y-117995051D01*
X129021588Y-118091557D01*
X129223757Y-118157246D01*
X129433713Y-118190500D01*
X129433714Y-118190500D01*
X129646286Y-118190500D01*
X129646287Y-118190500D01*
X129856243Y-118157246D01*
X130058412Y-118091557D01*
X130247816Y-117995051D01*
X130302572Y-117955269D01*
X130419786Y-117870109D01*
X130419788Y-117870106D01*
X130419792Y-117870104D01*
X130570104Y-117719792D01*
X130570106Y-117719788D01*
X130570109Y-117719786D01*
X130655890Y-117601717D01*
X130695051Y-117547816D01*
X130699793Y-117538508D01*
X130747763Y-117487711D01*
X130815583Y-117470911D01*
X130881719Y-117493445D01*
X130920763Y-117538500D01*
X130925373Y-117547547D01*
X130964728Y-117601716D01*
X131597037Y-116969408D01*
X131614075Y-117032993D01*
X131679901Y-117147007D01*
X131772993Y-117240099D01*
X131887007Y-117305925D01*
X131950590Y-117322962D01*
X131318282Y-117955269D01*
X131318282Y-117955270D01*
X131372449Y-117994624D01*
X131561782Y-118091095D01*
X131763870Y-118156757D01*
X131973754Y-118190000D01*
X132186246Y-118190000D01*
X132396127Y-118156757D01*
X132396130Y-118156757D01*
X132598217Y-118091095D01*
X132787554Y-117994622D01*
X132841716Y-117955270D01*
X132841717Y-117955270D01*
X132209408Y-117322962D01*
X132272993Y-117305925D01*
X132387007Y-117240099D01*
X132480099Y-117147007D01*
X132545925Y-117032993D01*
X132562962Y-116969409D01*
X133195270Y-117601717D01*
X133195270Y-117601716D01*
X133234622Y-117547554D01*
X133331095Y-117358217D01*
X133396757Y-117156130D01*
X133396757Y-117156127D01*
X133430000Y-116946246D01*
X133430000Y-116733753D01*
X133396757Y-116523872D01*
X133396757Y-116523869D01*
X133331095Y-116321782D01*
X133234624Y-116132449D01*
X133195270Y-116078282D01*
X133195269Y-116078282D01*
X132562962Y-116710590D01*
X132545925Y-116647007D01*
X132480099Y-116532993D01*
X132387007Y-116439901D01*
X132272993Y-116374075D01*
X132209409Y-116357037D01*
X132841716Y-115724728D01*
X132787547Y-115685373D01*
X132787547Y-115685372D01*
X132778500Y-115680763D01*
X132727706Y-115632788D01*
X132710912Y-115564966D01*
X132733451Y-115498832D01*
X132778508Y-115459793D01*
X132787816Y-115455051D01*
X132867007Y-115397515D01*
X132959786Y-115330109D01*
X132959788Y-115330106D01*
X132959792Y-115330104D01*
X133110104Y-115179792D01*
X133110106Y-115179788D01*
X133110109Y-115179786D01*
X133235048Y-115007820D01*
X133235047Y-115007820D01*
X133235051Y-115007816D01*
X133331557Y-114818412D01*
X133397246Y-114616243D01*
X133430500Y-114406287D01*
X133430500Y-114193713D01*
X133397246Y-113983757D01*
X133331557Y-113781588D01*
X133235051Y-113592184D01*
X133235049Y-113592181D01*
X133235048Y-113592179D01*
X133110109Y-113420213D01*
X132959786Y-113269890D01*
X132787820Y-113144951D01*
X132787115Y-113144591D01*
X132779054Y-113140485D01*
X132728259Y-113092512D01*
X132711463Y-113024692D01*
X132733999Y-112958556D01*
X132779054Y-112919515D01*
X132787816Y-112915051D01*
X132809789Y-112899086D01*
X132959786Y-112790109D01*
X132959788Y-112790106D01*
X132959792Y-112790104D01*
X133110104Y-112639792D01*
X133110106Y-112639788D01*
X133110109Y-112639786D01*
X133235048Y-112467820D01*
X133235047Y-112467820D01*
X133235051Y-112467816D01*
X133331557Y-112278412D01*
X133397246Y-112076243D01*
X133430500Y-111866287D01*
X133430500Y-111653713D01*
X133397246Y-111443757D01*
X133331557Y-111241588D01*
X133235051Y-111052184D01*
X133235049Y-111052181D01*
X133235048Y-111052179D01*
X133110109Y-110880213D01*
X132959786Y-110729890D01*
X132787820Y-110604951D01*
X132787115Y-110604591D01*
X132779054Y-110600485D01*
X132728259Y-110552512D01*
X132711463Y-110484692D01*
X132733999Y-110418556D01*
X132779054Y-110379515D01*
X132787816Y-110375051D01*
X132809789Y-110359086D01*
X132959786Y-110250109D01*
X132959788Y-110250106D01*
X132959792Y-110250104D01*
X133110104Y-110099792D01*
X133110106Y-110099788D01*
X133110109Y-110099786D01*
X133235048Y-109927820D01*
X133235047Y-109927820D01*
X133235051Y-109927816D01*
X133331557Y-109738412D01*
X133397246Y-109536243D01*
X133430500Y-109326287D01*
X133430500Y-109113713D01*
X133397246Y-108903757D01*
X133331557Y-108701588D01*
X133235051Y-108512184D01*
X133235049Y-108512181D01*
X133235048Y-108512179D01*
X133110109Y-108340213D01*
X132959786Y-108189890D01*
X132787820Y-108064951D01*
X132787115Y-108064591D01*
X132779054Y-108060485D01*
X132728259Y-108012512D01*
X132711463Y-107944692D01*
X132733999Y-107878556D01*
X132779054Y-107839515D01*
X132787816Y-107835051D01*
X132882519Y-107766246D01*
X132959786Y-107710109D01*
X132959788Y-107710106D01*
X132959792Y-107710104D01*
X133110104Y-107559792D01*
X133110106Y-107559788D01*
X133110109Y-107559786D01*
X133235048Y-107387820D01*
X133235047Y-107387820D01*
X133235051Y-107387816D01*
X133331557Y-107198412D01*
X133397246Y-106996243D01*
X133430500Y-106786287D01*
X133430500Y-106573713D01*
X133397246Y-106363757D01*
X133331557Y-106161588D01*
X133235051Y-105972184D01*
X133235049Y-105972181D01*
X133235048Y-105972179D01*
X133110109Y-105800213D01*
X132959786Y-105649890D01*
X132787820Y-105524951D01*
X132787115Y-105524591D01*
X132779054Y-105520485D01*
X132728259Y-105472512D01*
X132711463Y-105404692D01*
X132733999Y-105338556D01*
X132779054Y-105299515D01*
X132787816Y-105295051D01*
X132809789Y-105279086D01*
X132959786Y-105170109D01*
X132959788Y-105170106D01*
X132959792Y-105170104D01*
X133110104Y-105019792D01*
X133110106Y-105019788D01*
X133110109Y-105019786D01*
X133235048Y-104847820D01*
X133235047Y-104847820D01*
X133235051Y-104847816D01*
X133331557Y-104658412D01*
X133397246Y-104456243D01*
X133430500Y-104246287D01*
X133430500Y-104033713D01*
X133397246Y-103823757D01*
X133331557Y-103621588D01*
X133235051Y-103432184D01*
X133235049Y-103432181D01*
X133235048Y-103432179D01*
X133110109Y-103260213D01*
X132959786Y-103109890D01*
X132787817Y-102984949D01*
X132778504Y-102980204D01*
X132727707Y-102932230D01*
X132710912Y-102864409D01*
X132733449Y-102798274D01*
X132778507Y-102759232D01*
X132787555Y-102754622D01*
X132841716Y-102715270D01*
X132841717Y-102715270D01*
X132209408Y-102082962D01*
X132272993Y-102065925D01*
X132387007Y-102000099D01*
X132480099Y-101907007D01*
X132545925Y-101792993D01*
X132562962Y-101729409D01*
X133195270Y-102361717D01*
X133195270Y-102361716D01*
X133234622Y-102307554D01*
X133331095Y-102118217D01*
X133396757Y-101916130D01*
X133396757Y-101916127D01*
X133430000Y-101706246D01*
X133430000Y-101493753D01*
X133396757Y-101283872D01*
X133396757Y-101283869D01*
X133331095Y-101081782D01*
X133234624Y-100892449D01*
X133195270Y-100838282D01*
X133195269Y-100838282D01*
X132562962Y-101470590D01*
X132545925Y-101407007D01*
X132480099Y-101292993D01*
X132387007Y-101199901D01*
X132272993Y-101134075D01*
X132209409Y-101117037D01*
X132841716Y-100484728D01*
X132787547Y-100445373D01*
X132787547Y-100445372D01*
X132778500Y-100440763D01*
X132727706Y-100392788D01*
X132710912Y-100324966D01*
X132733451Y-100258832D01*
X132778508Y-100219793D01*
X132787816Y-100215051D01*
X132882464Y-100146286D01*
X132959786Y-100090109D01*
X132959788Y-100090106D01*
X132959792Y-100090104D01*
X133110104Y-99939792D01*
X133110106Y-99939788D01*
X133110109Y-99939786D01*
X133235048Y-99767820D01*
X133235047Y-99767820D01*
X133235051Y-99767816D01*
X133331557Y-99578412D01*
X133388483Y-99403213D01*
X133427921Y-99345538D01*
X133492280Y-99318340D01*
X133561126Y-99330255D01*
X133594095Y-99353851D01*
X143331181Y-109090937D01*
X143364666Y-109152260D01*
X143367500Y-109178618D01*
X143367500Y-113348069D01*
X143367500Y-113348071D01*
X143367499Y-113348071D01*
X143392497Y-113473738D01*
X143392499Y-113473744D01*
X143441535Y-113592127D01*
X143477530Y-113645998D01*
X143512726Y-113698673D01*
X145381328Y-115567275D01*
X145456117Y-115617247D01*
X145456116Y-115617247D01*
X145479377Y-115632788D01*
X145487873Y-115638465D01*
X145606256Y-115687501D01*
X145606260Y-115687501D01*
X145606261Y-115687502D01*
X145731928Y-115712500D01*
X145731931Y-115712500D01*
X153616071Y-115712500D01*
X153700615Y-115695682D01*
X153741744Y-115687501D01*
X153860127Y-115638465D01*
X153891884Y-115617246D01*
X153966669Y-115567277D01*
X164620422Y-104913522D01*
X164681743Y-104880039D01*
X164751435Y-104885023D01*
X164807368Y-104926895D01*
X164831785Y-104992359D01*
X164831719Y-105010934D01*
X164831500Y-105013716D01*
X164831500Y-105226286D01*
X164863518Y-105428443D01*
X164864754Y-105436243D01*
X164893576Y-105524949D01*
X164930444Y-105638414D01*
X165026951Y-105827820D01*
X165151890Y-105999786D01*
X165302213Y-106150109D01*
X165474179Y-106275048D01*
X165474181Y-106275049D01*
X165474184Y-106275051D01*
X165483493Y-106279794D01*
X165534290Y-106327766D01*
X165551087Y-106395587D01*
X165528552Y-106461722D01*
X165483505Y-106500760D01*
X165474446Y-106505376D01*
X165474440Y-106505380D01*
X165420282Y-106544727D01*
X165420282Y-106544728D01*
X166052591Y-107177037D01*
X165989007Y-107194075D01*
X165874993Y-107259901D01*
X165781901Y-107352993D01*
X165716075Y-107467007D01*
X165699037Y-107530591D01*
X165066728Y-106898282D01*
X165066727Y-106898282D01*
X165027380Y-106952439D01*
X164930904Y-107141782D01*
X164865242Y-107343869D01*
X164865242Y-107343872D01*
X164832000Y-107553753D01*
X164832000Y-107766246D01*
X164865242Y-107976127D01*
X164865242Y-107976130D01*
X164930904Y-108178217D01*
X165027375Y-108367550D01*
X165066728Y-108421716D01*
X165699037Y-107789408D01*
X165716075Y-107852993D01*
X165781901Y-107967007D01*
X165874993Y-108060099D01*
X165989007Y-108125925D01*
X166052590Y-108142962D01*
X165420282Y-108775269D01*
X165420282Y-108775270D01*
X165474452Y-108814626D01*
X165474451Y-108814626D01*
X165483495Y-108819234D01*
X165534292Y-108867208D01*
X165551087Y-108935029D01*
X165528550Y-109001164D01*
X165483499Y-109040202D01*
X165474182Y-109044949D01*
X165302213Y-109169890D01*
X165151890Y-109320213D01*
X165026951Y-109492179D01*
X164930444Y-109681585D01*
X164864753Y-109883760D01*
X164831500Y-110093713D01*
X164831500Y-110306286D01*
X164863518Y-110508443D01*
X164864754Y-110516243D01*
X164893576Y-110604949D01*
X164930444Y-110718414D01*
X165026951Y-110907820D01*
X165151890Y-111079786D01*
X165302213Y-111230109D01*
X165474182Y-111355050D01*
X165482946Y-111359516D01*
X165533742Y-111407491D01*
X165550536Y-111475312D01*
X165527998Y-111541447D01*
X165482946Y-111580484D01*
X165474182Y-111584949D01*
X165302213Y-111709890D01*
X165151890Y-111860213D01*
X165026951Y-112032179D01*
X164930444Y-112221585D01*
X164864753Y-112423760D01*
X164831500Y-112633713D01*
X164831500Y-112846286D01*
X164863518Y-113048443D01*
X164864754Y-113056243D01*
X164927031Y-113247912D01*
X164930444Y-113258414D01*
X165026951Y-113447820D01*
X165151890Y-113619786D01*
X165302213Y-113770109D01*
X165474179Y-113895048D01*
X165474181Y-113895049D01*
X165474184Y-113895051D01*
X165663588Y-113991557D01*
X165865757Y-114057246D01*
X166075713Y-114090500D01*
X166075714Y-114090500D01*
X166288286Y-114090500D01*
X166288287Y-114090500D01*
X166498243Y-114057246D01*
X166700412Y-113991557D01*
X166889816Y-113895051D01*
X167009137Y-113808360D01*
X167061786Y-113770109D01*
X167061788Y-113770106D01*
X167061792Y-113770104D01*
X167212104Y-113619792D01*
X167212106Y-113619788D01*
X167212109Y-113619786D01*
X167337048Y-113447820D01*
X167337047Y-113447820D01*
X167337051Y-113447816D01*
X167433557Y-113258412D01*
X167499246Y-113056243D01*
X167532500Y-112846287D01*
X167532500Y-112633713D01*
X167499246Y-112423757D01*
X167433557Y-112221588D01*
X167337051Y-112032184D01*
X167337049Y-112032181D01*
X167337048Y-112032179D01*
X167212109Y-111860213D01*
X167061786Y-111709890D01*
X166889820Y-111584951D01*
X166889115Y-111584591D01*
X166881054Y-111580485D01*
X166830259Y-111532512D01*
X166813463Y-111464692D01*
X166835999Y-111398556D01*
X166881054Y-111359515D01*
X166889816Y-111355051D01*
X167045990Y-111241585D01*
X167061786Y-111230109D01*
X167061788Y-111230106D01*
X167061792Y-111230104D01*
X167212104Y-111079792D01*
X167212106Y-111079788D01*
X167212109Y-111079786D01*
X167337048Y-110907820D01*
X167337047Y-110907820D01*
X167337051Y-110907816D01*
X167433557Y-110718412D01*
X167499246Y-110516243D01*
X167532500Y-110306287D01*
X167532500Y-110093713D01*
X167499246Y-109883757D01*
X167433557Y-109681588D01*
X167337051Y-109492184D01*
X167337049Y-109492181D01*
X167337048Y-109492179D01*
X167212109Y-109320213D01*
X167061786Y-109169890D01*
X166889817Y-109044949D01*
X166880504Y-109040204D01*
X166829707Y-108992230D01*
X166812912Y-108924409D01*
X166835449Y-108858274D01*
X166880507Y-108819232D01*
X166889555Y-108814622D01*
X166943716Y-108775270D01*
X166943717Y-108775270D01*
X166311408Y-108142962D01*
X166374993Y-108125925D01*
X166489007Y-108060099D01*
X166582099Y-107967007D01*
X166647925Y-107852993D01*
X166664962Y-107789408D01*
X167297270Y-108421717D01*
X167297270Y-108421716D01*
X167336622Y-108367554D01*
X167433095Y-108178217D01*
X167498757Y-107976130D01*
X167498757Y-107976127D01*
X167532000Y-107766246D01*
X167532000Y-107553753D01*
X167498757Y-107343872D01*
X167498757Y-107343869D01*
X167433095Y-107141782D01*
X167336624Y-106952449D01*
X167297270Y-106898282D01*
X167297269Y-106898282D01*
X166664962Y-107530590D01*
X166647925Y-107467007D01*
X166582099Y-107352993D01*
X166489007Y-107259901D01*
X166374993Y-107194075D01*
X166311409Y-107177037D01*
X166943716Y-106544728D01*
X166889547Y-106505373D01*
X166889547Y-106505372D01*
X166880500Y-106500763D01*
X166829706Y-106452788D01*
X166812912Y-106384966D01*
X166835451Y-106318832D01*
X166880508Y-106279793D01*
X166889816Y-106275051D01*
X167045990Y-106161585D01*
X167061786Y-106150109D01*
X167061788Y-106150106D01*
X167061792Y-106150104D01*
X167212104Y-105999792D01*
X167212106Y-105999788D01*
X167212109Y-105999786D01*
X167337048Y-105827820D01*
X167337050Y-105827817D01*
X167337051Y-105827816D01*
X167433557Y-105638412D01*
X167499246Y-105436243D01*
X167532500Y-105226287D01*
X167532500Y-105013713D01*
X167499246Y-104803757D01*
X167433557Y-104601588D01*
X167337051Y-104412184D01*
X167337049Y-104412181D01*
X167337048Y-104412179D01*
X167212109Y-104240213D01*
X167061786Y-104089890D01*
X166889820Y-103964951D01*
X166889115Y-103964591D01*
X166881054Y-103960485D01*
X166830259Y-103912512D01*
X166813463Y-103844692D01*
X166835999Y-103778556D01*
X166881054Y-103739515D01*
X166889816Y-103735051D01*
X167045990Y-103621585D01*
X167061786Y-103610109D01*
X167061788Y-103610106D01*
X167061792Y-103610104D01*
X167212104Y-103459792D01*
X167212106Y-103459788D01*
X167212109Y-103459786D01*
X167337048Y-103287820D01*
X167337047Y-103287820D01*
X167337051Y-103287816D01*
X167433557Y-103098412D01*
X167499246Y-102896243D01*
X167532500Y-102686287D01*
X167532500Y-102473713D01*
X167499246Y-102263757D01*
X167433557Y-102061588D01*
X167337051Y-101872184D01*
X167337049Y-101872181D01*
X167337048Y-101872179D01*
X167212109Y-101700213D01*
X167061786Y-101549890D01*
X166889820Y-101424951D01*
X166889115Y-101424591D01*
X166881054Y-101420485D01*
X166830259Y-101372512D01*
X166813463Y-101304692D01*
X166835999Y-101238556D01*
X166881054Y-101199515D01*
X166889816Y-101195051D01*
X166973743Y-101134075D01*
X167061786Y-101070109D01*
X167061788Y-101070106D01*
X167061792Y-101070104D01*
X167212104Y-100919792D01*
X167212106Y-100919788D01*
X167212109Y-100919786D01*
X167337048Y-100747820D01*
X167337047Y-100747820D01*
X167337051Y-100747816D01*
X167433557Y-100558412D01*
X167499246Y-100356243D01*
X167532500Y-100146287D01*
X167532500Y-99933713D01*
X167499246Y-99723757D01*
X167433557Y-99521588D01*
X167337051Y-99332184D01*
X167337049Y-99332181D01*
X167337048Y-99332179D01*
X167212109Y-99160213D01*
X167061786Y-99009890D01*
X166889820Y-98884951D01*
X166889115Y-98884591D01*
X166881054Y-98880485D01*
X166830259Y-98832512D01*
X166813463Y-98764692D01*
X166835999Y-98698556D01*
X166881054Y-98659515D01*
X166889816Y-98655051D01*
X166911789Y-98639086D01*
X167061786Y-98530109D01*
X167061788Y-98530106D01*
X167061792Y-98530104D01*
X167212104Y-98379792D01*
X167212106Y-98379788D01*
X167212109Y-98379786D01*
X167337048Y-98207820D01*
X167337047Y-98207820D01*
X167337051Y-98207816D01*
X167433557Y-98018412D01*
X167499246Y-97816243D01*
X167532500Y-97606287D01*
X167532500Y-97393713D01*
X167499246Y-97183757D01*
X167433557Y-96981588D01*
X167337051Y-96792184D01*
X167337049Y-96792181D01*
X167337048Y-96792179D01*
X167212109Y-96620213D01*
X167061786Y-96469890D01*
X166889817Y-96344949D01*
X166880504Y-96340204D01*
X166829707Y-96292230D01*
X166812912Y-96224409D01*
X166835449Y-96158274D01*
X166880507Y-96119232D01*
X166889555Y-96114622D01*
X166943716Y-96075270D01*
X166943717Y-96075270D01*
X166311408Y-95442962D01*
X166374993Y-95425925D01*
X166489007Y-95360099D01*
X166582099Y-95267007D01*
X166647925Y-95152993D01*
X166664962Y-95089408D01*
X167297270Y-95721717D01*
X167297270Y-95721716D01*
X167336622Y-95667554D01*
X167433095Y-95478217D01*
X167498757Y-95276130D01*
X167498757Y-95276127D01*
X167532000Y-95066246D01*
X167532000Y-94853753D01*
X167498757Y-94643872D01*
X167498757Y-94643869D01*
X167433095Y-94441782D01*
X167336624Y-94252449D01*
X167297270Y-94198282D01*
X167297269Y-94198282D01*
X166664962Y-94830590D01*
X166647925Y-94767007D01*
X166582099Y-94652993D01*
X166489007Y-94559901D01*
X166374993Y-94494075D01*
X166311409Y-94477037D01*
X166943716Y-93844728D01*
X166889547Y-93805373D01*
X166889547Y-93805372D01*
X166880500Y-93800763D01*
X166829706Y-93752788D01*
X166812912Y-93684966D01*
X166835451Y-93618832D01*
X166880508Y-93579793D01*
X166889816Y-93575051D01*
X166986096Y-93505100D01*
X167061786Y-93450109D01*
X167061788Y-93450106D01*
X167061792Y-93450104D01*
X167212104Y-93299792D01*
X167212106Y-93299788D01*
X167212109Y-93299786D01*
X167337048Y-93127820D01*
X167337047Y-93127820D01*
X167337051Y-93127816D01*
X167433557Y-92938412D01*
X167499246Y-92736243D01*
X167532500Y-92526287D01*
X167532500Y-92313713D01*
X167499246Y-92103757D01*
X167433557Y-91901588D01*
X167337051Y-91712184D01*
X167337049Y-91712181D01*
X167337048Y-91712179D01*
X167212109Y-91540213D01*
X167061786Y-91389890D01*
X166889820Y-91264951D01*
X166889115Y-91264591D01*
X166881054Y-91260485D01*
X166830259Y-91212512D01*
X166813463Y-91144692D01*
X166835999Y-91078556D01*
X166881054Y-91039515D01*
X166889816Y-91035051D01*
X166911789Y-91019086D01*
X167061786Y-90910109D01*
X167061788Y-90910106D01*
X167061792Y-90910104D01*
X167212104Y-90759792D01*
X167212106Y-90759788D01*
X167212109Y-90759786D01*
X167337048Y-90587820D01*
X167337047Y-90587820D01*
X167337051Y-90587816D01*
X167433557Y-90398412D01*
X167499246Y-90196243D01*
X167532500Y-89986287D01*
X167532500Y-89773713D01*
X167520315Y-89696781D01*
X167529269Y-89627490D01*
X167574265Y-89574038D01*
X167641017Y-89553398D01*
X167708331Y-89572123D01*
X167730469Y-89589704D01*
X168044581Y-89903816D01*
X168078066Y-89965139D01*
X168080900Y-89991497D01*
X168080900Y-112037630D01*
X168080899Y-112037648D01*
X168080899Y-112203354D01*
X168080898Y-112203354D01*
X168121824Y-112356089D01*
X168121825Y-112356090D01*
X168145896Y-112397781D01*
X168145897Y-112397783D01*
X168200875Y-112493009D01*
X168200881Y-112493017D01*
X168319749Y-112611885D01*
X168319755Y-112611890D01*
X169749381Y-114041516D01*
X169782866Y-114102839D01*
X169785700Y-114129197D01*
X169785700Y-114503269D01*
X169785701Y-114503287D01*
X169796025Y-114604352D01*
X169820172Y-114677221D01*
X169848149Y-114761650D01*
X169850292Y-114768115D01*
X169850293Y-114768118D01*
X169940861Y-114914951D01*
X169979829Y-114953919D01*
X170013314Y-115015242D01*
X170008330Y-115084934D01*
X169979829Y-115129281D01*
X169940861Y-115168248D01*
X169850293Y-115315081D01*
X169850292Y-115315084D01*
X169796026Y-115478847D01*
X169796026Y-115478848D01*
X169796025Y-115478848D01*
X169785700Y-115579915D01*
X169785700Y-116178269D01*
X169785701Y-116178287D01*
X169796025Y-116279352D01*
X169827414Y-116374075D01*
X169850292Y-116443116D01*
X169929052Y-116570807D01*
X169940861Y-116589951D01*
X170054829Y-116703919D01*
X170088314Y-116765242D01*
X170083330Y-116834934D01*
X170054829Y-116879281D01*
X169940861Y-116993248D01*
X169850293Y-117140081D01*
X169850291Y-117140086D01*
X169837986Y-117177221D01*
X169796026Y-117303847D01*
X169796026Y-117303848D01*
X169796025Y-117303848D01*
X169785700Y-117404915D01*
X169785700Y-118003269D01*
X169785701Y-118003287D01*
X169796025Y-118104352D01*
X169813391Y-118156757D01*
X169850292Y-118268116D01*
X169940860Y-118414950D01*
X170062850Y-118536940D01*
X170209684Y-118627508D01*
X170373447Y-118681774D01*
X170474523Y-118692100D01*
X171047876Y-118692099D01*
X171047884Y-118692098D01*
X171047887Y-118692098D01*
X171103230Y-118686444D01*
X171148953Y-118681774D01*
X171312716Y-118627508D01*
X171459550Y-118536940D01*
X171568071Y-118428419D01*
X171629394Y-118394934D01*
X171655752Y-118392100D01*
X174194900Y-118392100D01*
X174261939Y-118411785D01*
X174305385Y-118459805D01*
X174392332Y-118630448D01*
X174540401Y-118834249D01*
X174540405Y-118834254D01*
X174718545Y-119012394D01*
X174718550Y-119012398D01*
X174896317Y-119141552D01*
X174922355Y-119160470D01*
X175029767Y-119215199D01*
X175146816Y-119274839D01*
X175146818Y-119274839D01*
X175146821Y-119274841D01*
X175386415Y-119352690D01*
X175635238Y-119392100D01*
X175635239Y-119392100D01*
X175887161Y-119392100D01*
X175887162Y-119392100D01*
X176135985Y-119352690D01*
X176375579Y-119274841D01*
X176600045Y-119160470D01*
X176803856Y-119012393D01*
X176923519Y-118892730D01*
X176984842Y-118859245D01*
X177054534Y-118864229D01*
X177098881Y-118892730D01*
X177218545Y-119012394D01*
X177218550Y-119012398D01*
X177419814Y-119158624D01*
X177422355Y-119160470D01*
X177529776Y-119215203D01*
X177561158Y-119238004D01*
X177898906Y-119575752D01*
X177882258Y-119582649D01*
X177751230Y-119670199D01*
X177639799Y-119781630D01*
X177552249Y-119912658D01*
X177545353Y-119929305D01*
X176966948Y-119350900D01*
X176966947Y-119350901D01*
X176892759Y-119453013D01*
X176778419Y-119677415D01*
X176700597Y-119916930D01*
X176661200Y-120165671D01*
X176661200Y-120417528D01*
X176700597Y-120666269D01*
X176778419Y-120905784D01*
X176892757Y-121130183D01*
X176966948Y-121232297D01*
X176966948Y-121232298D01*
X177545352Y-120653893D01*
X177552249Y-120670542D01*
X177639799Y-120801570D01*
X177751230Y-120913001D01*
X177882258Y-121000551D01*
X177898905Y-121007446D01*
X177320500Y-121585850D01*
X177422616Y-121660042D01*
X177647015Y-121774380D01*
X177886530Y-121852202D01*
X178135272Y-121891600D01*
X178387128Y-121891600D01*
X178635869Y-121852202D01*
X178875384Y-121774380D01*
X179099775Y-121660046D01*
X179099781Y-121660042D01*
X179201897Y-121585850D01*
X179201898Y-121585850D01*
X178623494Y-121007446D01*
X178640142Y-121000551D01*
X178771170Y-120913001D01*
X178882601Y-120801570D01*
X178970151Y-120670542D01*
X178977046Y-120653894D01*
X179555450Y-121232298D01*
X179555450Y-121232297D01*
X179629642Y-121130181D01*
X179629646Y-121130175D01*
X179743980Y-120905784D01*
X179821802Y-120666269D01*
X179861200Y-120417528D01*
X179861200Y-120165671D01*
X179821802Y-119916930D01*
X179743980Y-119677415D01*
X179629642Y-119453016D01*
X179555450Y-119350901D01*
X179555450Y-119350900D01*
X178977046Y-119929304D01*
X178970151Y-119912658D01*
X178882601Y-119781630D01*
X178771170Y-119670199D01*
X178640142Y-119582649D01*
X178623492Y-119575752D01*
X178961240Y-119238004D01*
X178992615Y-119215207D01*
X179100045Y-119160470D01*
X179303856Y-119012393D01*
X179423519Y-118892730D01*
X179484842Y-118859245D01*
X179554534Y-118864229D01*
X179598881Y-118892730D01*
X179718545Y-119012394D01*
X179718550Y-119012398D01*
X179896317Y-119141552D01*
X179922355Y-119160470D01*
X180029767Y-119215199D01*
X180146816Y-119274839D01*
X180146818Y-119274839D01*
X180146821Y-119274841D01*
X180386415Y-119352690D01*
X180635238Y-119392100D01*
X180635239Y-119392100D01*
X180887161Y-119392100D01*
X180887162Y-119392100D01*
X181135985Y-119352690D01*
X181375579Y-119274841D01*
X181600045Y-119160470D01*
X181803856Y-119012393D01*
X181981993Y-118834256D01*
X182130070Y-118630445D01*
X182244441Y-118405979D01*
X182322290Y-118166385D01*
X182361700Y-117917562D01*
X182361700Y-117665638D01*
X182322290Y-117416815D01*
X182244441Y-117177221D01*
X182244439Y-117177218D01*
X182244439Y-117177216D01*
X182150703Y-116993250D01*
X182130070Y-116952755D01*
X182048148Y-116839999D01*
X181981998Y-116748950D01*
X181981994Y-116748945D01*
X181803854Y-116570805D01*
X181803849Y-116570801D01*
X181600048Y-116422732D01*
X181600047Y-116422731D01*
X181600045Y-116422730D01*
X181504554Y-116374075D01*
X181375583Y-116308360D01*
X181135985Y-116230510D01*
X180887162Y-116191100D01*
X180635238Y-116191100D01*
X180510826Y-116210805D01*
X180386414Y-116230510D01*
X180146816Y-116308360D01*
X179922351Y-116422732D01*
X179718551Y-116570800D01*
X179598881Y-116690470D01*
X179590935Y-116694808D01*
X179585511Y-116702055D01*
X179560750Y-116711290D01*
X179537558Y-116723954D01*
X179528529Y-116723308D01*
X179520047Y-116726472D01*
X179494224Y-116720855D01*
X179467866Y-116718970D01*
X179458813Y-116713152D01*
X179451774Y-116711621D01*
X179423519Y-116690470D01*
X179362328Y-116629279D01*
X179328845Y-116567959D01*
X179333829Y-116498267D01*
X179362330Y-116453919D01*
X179393519Y-116422730D01*
X179481993Y-116334256D01*
X179630070Y-116130445D01*
X179744441Y-115905979D01*
X179822290Y-115666385D01*
X179861700Y-115417562D01*
X179861700Y-115165638D01*
X179822290Y-114916815D01*
X179744441Y-114677221D01*
X179744439Y-114677218D01*
X179744439Y-114677216D01*
X179655817Y-114503287D01*
X179630070Y-114452755D01*
X179585795Y-114391815D01*
X179481998Y-114248950D01*
X179481994Y-114248945D01*
X179303854Y-114070805D01*
X179303849Y-114070801D01*
X179100048Y-113922732D01*
X179100047Y-113922731D01*
X179100045Y-113922730D01*
X179029947Y-113887013D01*
X178875583Y-113808360D01*
X178635985Y-113730510D01*
X178387162Y-113691100D01*
X178135238Y-113691100D01*
X178010826Y-113710805D01*
X177886414Y-113730510D01*
X177646816Y-113808360D01*
X177422351Y-113922732D01*
X177218550Y-114070801D01*
X177218545Y-114070805D01*
X177040405Y-114248945D01*
X177040401Y-114248950D01*
X176892332Y-114452751D01*
X176777960Y-114677216D01*
X176700110Y-114916814D01*
X176681084Y-115036940D01*
X176660700Y-115165638D01*
X176660700Y-115417562D01*
X176674987Y-115507766D01*
X176700110Y-115666385D01*
X176777960Y-115905983D01*
X176892332Y-116130448D01*
X177040401Y-116334249D01*
X177040405Y-116334254D01*
X177160070Y-116453919D01*
X177164408Y-116461864D01*
X177171656Y-116467290D01*
X177180890Y-116492049D01*
X177193555Y-116515242D01*
X177192909Y-116524271D01*
X177196073Y-116532754D01*
X177190456Y-116558574D01*
X177188571Y-116584934D01*
X177182752Y-116593987D01*
X177181221Y-116601027D01*
X177160070Y-116629281D01*
X177098881Y-116690470D01*
X177037558Y-116723955D01*
X176967866Y-116718971D01*
X176923519Y-116690470D01*
X176803854Y-116570805D01*
X176803849Y-116570801D01*
X176600048Y-116422732D01*
X176600047Y-116422731D01*
X176600045Y-116422730D01*
X176504554Y-116374075D01*
X176375583Y-116308360D01*
X176135985Y-116230510D01*
X175887162Y-116191100D01*
X175635238Y-116191100D01*
X175510826Y-116210805D01*
X175386414Y-116230510D01*
X175146816Y-116308360D01*
X174922351Y-116422732D01*
X174718550Y-116570801D01*
X174718545Y-116570805D01*
X174540405Y-116748945D01*
X174540401Y-116748950D01*
X174392332Y-116952751D01*
X174305385Y-117123395D01*
X174257411Y-117174191D01*
X174194900Y-117191100D01*
X171772782Y-117191100D01*
X171705743Y-117171415D01*
X171667243Y-117132197D01*
X171661814Y-117123395D01*
X171581540Y-116993250D01*
X171467571Y-116879281D01*
X171434086Y-116817958D01*
X171439070Y-116748266D01*
X171467571Y-116703919D01*
X171524483Y-116647007D01*
X171581540Y-116589950D01*
X171672108Y-116443116D01*
X171726374Y-116279353D01*
X171736700Y-116178277D01*
X171736699Y-115579924D01*
X171728415Y-115498832D01*
X171726374Y-115478847D01*
X171706066Y-115417562D01*
X171672108Y-115315084D01*
X171581540Y-115168250D01*
X171542571Y-115129281D01*
X171509086Y-115067958D01*
X171514070Y-114998266D01*
X171542571Y-114953919D01*
X171548231Y-114948259D01*
X171581540Y-114914950D01*
X171672108Y-114768116D01*
X171726374Y-114604353D01*
X171736700Y-114503277D01*
X171736699Y-113904924D01*
X171735690Y-113895051D01*
X171726374Y-113803847D01*
X171715194Y-113770109D01*
X171672108Y-113640084D01*
X171581540Y-113493250D01*
X171467217Y-113378927D01*
X171433732Y-113317604D01*
X171438716Y-113247912D01*
X171467217Y-113203564D01*
X171581148Y-113089633D01*
X171671648Y-112942911D01*
X171671653Y-112942900D01*
X171725880Y-112779252D01*
X171736199Y-112678254D01*
X171736200Y-112678241D01*
X171736200Y-112629100D01*
X170885200Y-112629100D01*
X170818161Y-112609415D01*
X170772406Y-112556611D01*
X170761200Y-112505100D01*
X170761200Y-112379100D01*
X170635200Y-112379100D01*
X170568161Y-112359415D01*
X170522406Y-112306611D01*
X170511200Y-112255100D01*
X170511200Y-112129100D01*
X171011200Y-112129100D01*
X171736199Y-112129100D01*
X171736199Y-112079960D01*
X171736198Y-112079945D01*
X171725880Y-111978947D01*
X171671653Y-111815299D01*
X171671648Y-111815288D01*
X171581147Y-111668565D01*
X171581144Y-111668561D01*
X171459238Y-111546655D01*
X171459234Y-111546652D01*
X171312511Y-111456151D01*
X171312500Y-111456146D01*
X171148852Y-111401919D01*
X171047854Y-111391600D01*
X171011200Y-111391600D01*
X171011200Y-112129100D01*
X170511200Y-112129100D01*
X170511200Y-111391600D01*
X170474561Y-111391600D01*
X170474543Y-111391601D01*
X170373547Y-111401919D01*
X170209899Y-111456146D01*
X170209888Y-111456151D01*
X170063165Y-111546652D01*
X170063161Y-111546655D01*
X169941255Y-111668561D01*
X169941252Y-111668565D01*
X169850751Y-111815288D01*
X169850746Y-111815299D01*
X169796519Y-111978947D01*
X169786200Y-112079945D01*
X169786200Y-112080503D01*
X169786166Y-112080617D01*
X169786040Y-112083101D01*
X169785879Y-112083092D01*
X169785879Y-112083094D01*
X169785855Y-112083091D01*
X169785446Y-112083070D01*
X169766515Y-112147542D01*
X169713711Y-112193297D01*
X169644553Y-112203241D01*
X169580997Y-112174216D01*
X169574519Y-112168184D01*
X169318219Y-111911884D01*
X169284734Y-111850561D01*
X169281900Y-111824203D01*
X169281900Y-94871775D01*
X169288243Y-94850171D01*
X169289989Y-94827722D01*
X169297898Y-94817292D01*
X169301585Y-94804736D01*
X169318600Y-94789992D01*
X169332207Y-94772049D01*
X169344498Y-94767550D01*
X169354389Y-94758981D01*
X169376673Y-94755776D01*
X169397821Y-94748038D01*
X169410593Y-94750899D01*
X169423547Y-94749037D01*
X169444027Y-94758390D01*
X169466001Y-94763313D01*
X169478627Y-94774191D01*
X169487103Y-94778062D01*
X169494123Y-94784639D01*
X169502611Y-94793233D01*
X169504680Y-94796816D01*
X169616484Y-94908620D01*
X169616486Y-94908621D01*
X169623856Y-94915991D01*
X169749381Y-95041516D01*
X169782866Y-95102839D01*
X169785700Y-95129197D01*
X169785700Y-95503269D01*
X169785701Y-95503287D01*
X169796025Y-95604352D01*
X169820172Y-95677221D01*
X169834916Y-95721716D01*
X169850292Y-95768115D01*
X169850293Y-95768118D01*
X169940861Y-95914951D01*
X169979829Y-95953919D01*
X170013314Y-96015242D01*
X170008330Y-96084934D01*
X169979829Y-96129281D01*
X169940861Y-96168248D01*
X169850293Y-96315081D01*
X169850291Y-96315086D01*
X169822919Y-96397688D01*
X169796026Y-96478847D01*
X169796026Y-96478848D01*
X169796025Y-96478848D01*
X169785700Y-96579915D01*
X169785700Y-97178269D01*
X169785701Y-97178287D01*
X169796025Y-97279352D01*
X169805638Y-97308360D01*
X169850292Y-97443116D01*
X169929052Y-97570807D01*
X169940861Y-97589951D01*
X170054829Y-97703919D01*
X170088314Y-97765242D01*
X170083330Y-97834934D01*
X170054829Y-97879281D01*
X169940861Y-97993248D01*
X169850293Y-98140081D01*
X169850291Y-98140086D01*
X169837986Y-98177221D01*
X169796026Y-98303847D01*
X169796026Y-98303848D01*
X169796025Y-98303848D01*
X169785700Y-98404915D01*
X169785700Y-99003269D01*
X169785701Y-99003287D01*
X169796025Y-99104352D01*
X169814536Y-99160213D01*
X169850292Y-99268116D01*
X169940860Y-99414950D01*
X170062850Y-99536940D01*
X170209684Y-99627508D01*
X170373447Y-99681774D01*
X170474523Y-99692100D01*
X171047876Y-99692099D01*
X171047884Y-99692098D01*
X171047887Y-99692098D01*
X171103230Y-99686444D01*
X171148953Y-99681774D01*
X171312716Y-99627508D01*
X171459550Y-99536940D01*
X171568071Y-99428419D01*
X171629394Y-99394934D01*
X171655752Y-99392100D01*
X174194900Y-99392100D01*
X174261939Y-99411785D01*
X174305385Y-99459805D01*
X174392332Y-99630448D01*
X174540401Y-99834249D01*
X174540405Y-99834254D01*
X174718545Y-100012394D01*
X174718550Y-100012398D01*
X174774356Y-100052943D01*
X174922355Y-100160470D01*
X175029767Y-100215199D01*
X175146816Y-100274839D01*
X175146818Y-100274839D01*
X175146821Y-100274841D01*
X175386415Y-100352690D01*
X175635238Y-100392100D01*
X175635239Y-100392100D01*
X175887161Y-100392100D01*
X175887162Y-100392100D01*
X176135985Y-100352690D01*
X176375579Y-100274841D01*
X176600045Y-100160470D01*
X176803856Y-100012393D01*
X176923519Y-99892730D01*
X176984842Y-99859245D01*
X177054534Y-99864229D01*
X177098881Y-99892730D01*
X177218545Y-100012394D01*
X177218550Y-100012398D01*
X177274356Y-100052943D01*
X177422355Y-100160470D01*
X177529776Y-100215203D01*
X177561158Y-100238004D01*
X177898906Y-100575752D01*
X177882258Y-100582649D01*
X177751230Y-100670199D01*
X177639799Y-100781630D01*
X177552249Y-100912658D01*
X177545353Y-100929305D01*
X176966948Y-100350900D01*
X176966947Y-100350901D01*
X176892759Y-100453013D01*
X176778419Y-100677415D01*
X176700597Y-100916930D01*
X176661200Y-101165671D01*
X176661200Y-101417528D01*
X176700597Y-101666269D01*
X176778419Y-101905784D01*
X176892757Y-102130183D01*
X176966948Y-102232297D01*
X176966948Y-102232298D01*
X177545352Y-101653893D01*
X177552249Y-101670542D01*
X177639799Y-101801570D01*
X177751230Y-101913001D01*
X177882258Y-102000551D01*
X177898905Y-102007446D01*
X177320500Y-102585850D01*
X177422616Y-102660042D01*
X177647015Y-102774380D01*
X177886530Y-102852202D01*
X178135272Y-102891600D01*
X178387128Y-102891600D01*
X178635869Y-102852202D01*
X178875384Y-102774380D01*
X179099775Y-102660046D01*
X179099781Y-102660042D01*
X179201897Y-102585850D01*
X179201898Y-102585850D01*
X178623494Y-102007446D01*
X178640142Y-102000551D01*
X178771170Y-101913001D01*
X178882601Y-101801570D01*
X178970151Y-101670542D01*
X178977046Y-101653894D01*
X179555450Y-102232298D01*
X179555450Y-102232297D01*
X179629642Y-102130181D01*
X179629646Y-102130175D01*
X179743980Y-101905784D01*
X179821802Y-101666269D01*
X179861200Y-101417528D01*
X179861200Y-101165671D01*
X179821802Y-100916930D01*
X179743980Y-100677415D01*
X179629642Y-100453016D01*
X179555450Y-100350901D01*
X179555450Y-100350900D01*
X178977046Y-100929304D01*
X178970151Y-100912658D01*
X178882601Y-100781630D01*
X178771170Y-100670199D01*
X178640142Y-100582649D01*
X178623492Y-100575752D01*
X178961240Y-100238004D01*
X178992615Y-100215207D01*
X179100045Y-100160470D01*
X179303856Y-100012393D01*
X179423519Y-99892730D01*
X179484842Y-99859245D01*
X179554534Y-99864229D01*
X179598881Y-99892730D01*
X179718545Y-100012394D01*
X179718550Y-100012398D01*
X179774356Y-100052943D01*
X179922355Y-100160470D01*
X180029767Y-100215199D01*
X180146816Y-100274839D01*
X180146818Y-100274839D01*
X180146821Y-100274841D01*
X180386415Y-100352690D01*
X180635238Y-100392100D01*
X180635239Y-100392100D01*
X180887161Y-100392100D01*
X180887162Y-100392100D01*
X181135985Y-100352690D01*
X181375579Y-100274841D01*
X181600045Y-100160470D01*
X181803856Y-100012393D01*
X181981993Y-99834256D01*
X182130070Y-99630445D01*
X182244441Y-99405979D01*
X182322290Y-99166385D01*
X182361700Y-98917562D01*
X182361700Y-98665638D01*
X182322290Y-98416815D01*
X182244441Y-98177221D01*
X182244439Y-98177218D01*
X182244439Y-98177216D01*
X182169375Y-98029896D01*
X182130070Y-97952755D01*
X182111152Y-97926717D01*
X181981998Y-97748950D01*
X181981994Y-97748945D01*
X181803854Y-97570805D01*
X181803849Y-97570801D01*
X181600048Y-97422732D01*
X181600047Y-97422731D01*
X181600045Y-97422730D01*
X181529947Y-97387013D01*
X181375583Y-97308360D01*
X181135985Y-97230510D01*
X180887162Y-97191100D01*
X180635238Y-97191100D01*
X180510826Y-97210805D01*
X180386414Y-97230510D01*
X180146816Y-97308360D01*
X179922351Y-97422732D01*
X179718551Y-97570800D01*
X179598881Y-97690470D01*
X179590935Y-97694808D01*
X179585511Y-97702055D01*
X179560750Y-97711290D01*
X179537558Y-97723954D01*
X179528529Y-97723308D01*
X179520047Y-97726472D01*
X179494224Y-97720855D01*
X179467866Y-97718970D01*
X179458813Y-97713152D01*
X179451774Y-97711621D01*
X179423519Y-97690470D01*
X179409969Y-97676920D01*
X179362328Y-97629279D01*
X179328845Y-97567959D01*
X179333829Y-97498267D01*
X179362330Y-97453919D01*
X179393519Y-97422730D01*
X179481993Y-97334256D01*
X179630070Y-97130445D01*
X179744441Y-96905979D01*
X179822290Y-96666385D01*
X179861700Y-96417562D01*
X179861700Y-96165638D01*
X179822290Y-95916815D01*
X179744441Y-95677221D01*
X179744439Y-95677218D01*
X179744439Y-95677216D01*
X179655817Y-95503287D01*
X179630070Y-95452755D01*
X179495117Y-95267007D01*
X179481998Y-95248950D01*
X179481994Y-95248945D01*
X179303854Y-95070805D01*
X179303849Y-95070801D01*
X179100048Y-94922732D01*
X179100047Y-94922731D01*
X179100045Y-94922730D01*
X179000040Y-94871775D01*
X178875583Y-94808360D01*
X178635985Y-94730510D01*
X178387162Y-94691100D01*
X178135238Y-94691100D01*
X178010826Y-94710805D01*
X177886414Y-94730510D01*
X177646816Y-94808360D01*
X177422351Y-94922732D01*
X177218550Y-95070801D01*
X177218545Y-95070805D01*
X177040405Y-95248945D01*
X177040401Y-95248950D01*
X176892332Y-95452751D01*
X176777960Y-95677216D01*
X176700110Y-95916814D01*
X176660700Y-96165638D01*
X176660700Y-96417561D01*
X176700110Y-96666385D01*
X176777960Y-96905983D01*
X176892332Y-97130448D01*
X177040401Y-97334249D01*
X177040405Y-97334254D01*
X177160070Y-97453919D01*
X177164408Y-97461864D01*
X177171656Y-97467290D01*
X177180890Y-97492049D01*
X177193555Y-97515242D01*
X177192909Y-97524271D01*
X177196073Y-97532754D01*
X177190456Y-97558574D01*
X177188571Y-97584934D01*
X177182752Y-97593987D01*
X177181221Y-97601027D01*
X177160070Y-97629281D01*
X177098881Y-97690470D01*
X177037558Y-97723955D01*
X176967866Y-97718971D01*
X176923519Y-97690470D01*
X176803854Y-97570805D01*
X176803849Y-97570801D01*
X176600048Y-97422732D01*
X176600047Y-97422731D01*
X176600045Y-97422730D01*
X176529947Y-97387013D01*
X176375583Y-97308360D01*
X176135985Y-97230510D01*
X175887162Y-97191100D01*
X175635238Y-97191100D01*
X175510826Y-97210805D01*
X175386414Y-97230510D01*
X175146816Y-97308360D01*
X174922351Y-97422732D01*
X174718550Y-97570801D01*
X174718545Y-97570805D01*
X174540405Y-97748945D01*
X174540401Y-97748950D01*
X174392332Y-97952751D01*
X174305385Y-98123395D01*
X174257411Y-98174191D01*
X174194900Y-98191100D01*
X171772782Y-98191100D01*
X171705743Y-98171415D01*
X171667243Y-98132197D01*
X171581540Y-97993250D01*
X171467571Y-97879281D01*
X171434086Y-97817958D01*
X171439070Y-97748266D01*
X171467571Y-97703919D01*
X171494570Y-97676920D01*
X171581540Y-97589950D01*
X171672108Y-97443116D01*
X171726374Y-97279353D01*
X171736700Y-97178277D01*
X171736699Y-96579924D01*
X171726374Y-96478847D01*
X171672108Y-96315084D01*
X171581540Y-96168250D01*
X171542571Y-96129281D01*
X171509086Y-96067958D01*
X171514070Y-95998266D01*
X171542571Y-95953919D01*
X171581540Y-95914950D01*
X171672108Y-95768116D01*
X171726374Y-95604353D01*
X171736700Y-95503277D01*
X171736699Y-94904924D01*
X171726374Y-94803847D01*
X171672108Y-94640084D01*
X171581540Y-94493250D01*
X171467217Y-94378927D01*
X171433732Y-94317604D01*
X171438716Y-94247912D01*
X171467217Y-94203564D01*
X171581148Y-94089633D01*
X171671648Y-93942911D01*
X171671653Y-93942900D01*
X171725880Y-93779252D01*
X171736199Y-93678254D01*
X171736200Y-93678233D01*
X171736200Y-93629100D01*
X170885200Y-93629100D01*
X170818161Y-93609415D01*
X170772406Y-93556611D01*
X170761200Y-93505100D01*
X170761200Y-93379100D01*
X170709700Y-93379100D01*
X170642661Y-93359415D01*
X170596906Y-93306611D01*
X170585700Y-93255100D01*
X170585700Y-93129100D01*
X171011200Y-93129100D01*
X171736199Y-93129100D01*
X171736199Y-93079960D01*
X171736198Y-93079945D01*
X171725880Y-92978947D01*
X171671653Y-92815299D01*
X171671648Y-92815288D01*
X171581147Y-92668565D01*
X171581144Y-92668561D01*
X171459238Y-92546655D01*
X171459234Y-92546652D01*
X171312511Y-92456151D01*
X171312500Y-92456146D01*
X171148852Y-92401919D01*
X171047854Y-92391600D01*
X171011200Y-92391600D01*
X171011200Y-93129100D01*
X170585700Y-93129100D01*
X170585700Y-89218499D01*
X170585701Y-89218486D01*
X170585701Y-89050385D01*
X170585701Y-89050383D01*
X170544777Y-88897655D01*
X170497166Y-88815191D01*
X170465720Y-88760724D01*
X170353916Y-88648920D01*
X170353915Y-88648919D01*
X170349585Y-88644589D01*
X170349574Y-88644579D01*
X167358819Y-85653824D01*
X167325334Y-85592501D01*
X167330318Y-85522809D01*
X167336015Y-85509848D01*
X167337048Y-85507818D01*
X167337051Y-85507816D01*
X167433557Y-85318412D01*
X167499246Y-85116243D01*
X167532500Y-84906287D01*
X167532500Y-84693713D01*
X167499246Y-84483757D01*
X167449211Y-84329768D01*
X167447217Y-84259929D01*
X167479460Y-84203773D01*
X170343706Y-81339528D01*
X170343711Y-81339524D01*
X170353914Y-81329320D01*
X170353916Y-81329320D01*
X170465720Y-81217516D01*
X170533138Y-81100744D01*
X170544777Y-81080585D01*
X170585701Y-80927857D01*
X170585701Y-80816099D01*
X170605386Y-80749060D01*
X170658190Y-80703305D01*
X170709701Y-80692099D01*
X171047870Y-80692099D01*
X171047876Y-80692099D01*
X171148953Y-80681774D01*
X171312716Y-80627508D01*
X171459550Y-80536940D01*
X171568071Y-80428419D01*
X171629394Y-80394934D01*
X171655752Y-80392100D01*
X174194900Y-80392100D01*
X174261939Y-80411785D01*
X174305384Y-80459804D01*
X174392156Y-80630104D01*
X174392332Y-80630448D01*
X174540401Y-80834249D01*
X174540405Y-80834254D01*
X174718545Y-81012394D01*
X174718550Y-81012398D01*
X174846519Y-81105372D01*
X174922355Y-81160470D01*
X175065384Y-81233347D01*
X175146816Y-81274839D01*
X175146818Y-81274839D01*
X175146821Y-81274841D01*
X175386415Y-81352690D01*
X175635238Y-81392100D01*
X175635239Y-81392100D01*
X175887161Y-81392100D01*
X175887162Y-81392100D01*
X176135985Y-81352690D01*
X176375579Y-81274841D01*
X176600045Y-81160470D01*
X176803856Y-81012393D01*
X176923519Y-80892730D01*
X176984842Y-80859245D01*
X177054534Y-80864229D01*
X177098881Y-80892730D01*
X177218545Y-81012394D01*
X177218550Y-81012398D01*
X177400688Y-81144728D01*
X177422355Y-81160470D01*
X177529776Y-81215203D01*
X177561158Y-81238004D01*
X177898906Y-81575752D01*
X177882258Y-81582649D01*
X177751230Y-81670199D01*
X177639799Y-81781630D01*
X177552249Y-81912658D01*
X177545353Y-81929305D01*
X176966948Y-81350900D01*
X176966947Y-81350901D01*
X176892759Y-81453013D01*
X176778419Y-81677415D01*
X176700597Y-81916930D01*
X176661200Y-82165671D01*
X176661200Y-82417528D01*
X176700597Y-82666269D01*
X176778419Y-82905784D01*
X176892757Y-83130183D01*
X176966948Y-83232297D01*
X176966948Y-83232298D01*
X177545352Y-82653893D01*
X177552249Y-82670542D01*
X177639799Y-82801570D01*
X177751230Y-82913001D01*
X177882258Y-83000551D01*
X177898905Y-83007446D01*
X177320500Y-83585850D01*
X177422616Y-83660042D01*
X177647015Y-83774380D01*
X177886530Y-83852202D01*
X178135272Y-83891600D01*
X178387128Y-83891600D01*
X178635869Y-83852202D01*
X178875384Y-83774380D01*
X179099775Y-83660046D01*
X179099781Y-83660042D01*
X179201897Y-83585850D01*
X179201898Y-83585850D01*
X178623494Y-83007446D01*
X178640142Y-83000551D01*
X178771170Y-82913001D01*
X178882601Y-82801570D01*
X178970151Y-82670542D01*
X178977046Y-82653894D01*
X179555450Y-83232298D01*
X179555450Y-83232297D01*
X179629642Y-83130181D01*
X179629646Y-83130175D01*
X179743980Y-82905784D01*
X179821802Y-82666269D01*
X179861200Y-82417528D01*
X179861200Y-82165671D01*
X179821802Y-81916930D01*
X179743980Y-81677415D01*
X179629642Y-81453016D01*
X179555450Y-81350901D01*
X179555450Y-81350900D01*
X178977046Y-81929304D01*
X178970151Y-81912658D01*
X178882601Y-81781630D01*
X178771170Y-81670199D01*
X178640142Y-81582649D01*
X178623492Y-81575752D01*
X178961240Y-81238004D01*
X178992615Y-81215207D01*
X179100045Y-81160470D01*
X179303856Y-81012393D01*
X179423519Y-80892730D01*
X179484842Y-80859245D01*
X179554534Y-80864229D01*
X179598881Y-80892730D01*
X179718545Y-81012394D01*
X179718550Y-81012398D01*
X179846519Y-81105372D01*
X179922355Y-81160470D01*
X180065384Y-81233347D01*
X180146816Y-81274839D01*
X180146818Y-81274839D01*
X180146821Y-81274841D01*
X180386415Y-81352690D01*
X180635238Y-81392100D01*
X180635239Y-81392100D01*
X180887161Y-81392100D01*
X180887162Y-81392100D01*
X181135985Y-81352690D01*
X181375579Y-81274841D01*
X181600045Y-81160470D01*
X181803856Y-81012393D01*
X181981993Y-80834256D01*
X182130070Y-80630445D01*
X182244441Y-80405979D01*
X182322290Y-80166385D01*
X182361700Y-79917562D01*
X182361700Y-79665638D01*
X182322290Y-79416815D01*
X182244441Y-79177221D01*
X182244439Y-79177218D01*
X182244439Y-79177216D01*
X182195714Y-79081588D01*
X182130070Y-78952755D01*
X182070861Y-78871260D01*
X181981998Y-78748950D01*
X181981994Y-78748945D01*
X181803854Y-78570805D01*
X181803849Y-78570801D01*
X181600048Y-78422732D01*
X181600047Y-78422731D01*
X181600045Y-78422730D01*
X181513349Y-78378556D01*
X181375583Y-78308360D01*
X181135985Y-78230510D01*
X181007179Y-78210109D01*
X180887162Y-78191100D01*
X180635238Y-78191100D01*
X180515252Y-78210104D01*
X180386414Y-78230510D01*
X180146816Y-78308360D01*
X179922351Y-78422732D01*
X179718551Y-78570800D01*
X179598881Y-78690470D01*
X179590935Y-78694808D01*
X179585511Y-78702055D01*
X179560750Y-78711290D01*
X179537558Y-78723954D01*
X179528529Y-78723308D01*
X179520047Y-78726472D01*
X179494224Y-78720855D01*
X179467866Y-78718970D01*
X179458813Y-78713152D01*
X179451774Y-78711621D01*
X179423519Y-78690470D01*
X179399747Y-78666698D01*
X179362328Y-78629279D01*
X179328845Y-78567959D01*
X179333829Y-78498267D01*
X179362330Y-78453919D01*
X179393519Y-78422730D01*
X179481993Y-78334256D01*
X179630070Y-78130445D01*
X179744441Y-77905979D01*
X179822290Y-77666385D01*
X179861700Y-77417562D01*
X179861700Y-77165638D01*
X179822290Y-76916815D01*
X179744441Y-76677221D01*
X179744439Y-76677218D01*
X179744439Y-76677216D01*
X179684857Y-76560281D01*
X179630070Y-76452755D01*
X179534095Y-76320656D01*
X179481998Y-76248950D01*
X179481994Y-76248945D01*
X179303854Y-76070805D01*
X179303849Y-76070801D01*
X179100048Y-75922732D01*
X179100047Y-75922731D01*
X179100045Y-75922730D01*
X178991342Y-75867343D01*
X178875583Y-75808360D01*
X178635985Y-75730510D01*
X178581826Y-75721932D01*
X178387162Y-75691100D01*
X178135238Y-75691100D01*
X178010826Y-75710805D01*
X177886414Y-75730510D01*
X177646816Y-75808360D01*
X177422351Y-75922732D01*
X177218550Y-76070801D01*
X177218545Y-76070805D01*
X177040405Y-76248945D01*
X177040401Y-76248950D01*
X176892332Y-76452751D01*
X176777960Y-76677216D01*
X176700110Y-76916814D01*
X176660700Y-77165638D01*
X176660700Y-77417561D01*
X176700110Y-77666385D01*
X176777960Y-77905983D01*
X176836585Y-78021040D01*
X176889810Y-78125500D01*
X176892332Y-78130448D01*
X177040401Y-78334249D01*
X177040405Y-78334254D01*
X177160070Y-78453919D01*
X177164408Y-78461864D01*
X177171656Y-78467290D01*
X177180890Y-78492049D01*
X177193555Y-78515242D01*
X177192909Y-78524271D01*
X177196073Y-78532754D01*
X177190456Y-78558574D01*
X177188571Y-78584934D01*
X177182752Y-78593987D01*
X177181221Y-78601027D01*
X177160070Y-78629281D01*
X177098881Y-78690470D01*
X177037558Y-78723955D01*
X176967866Y-78718971D01*
X176923519Y-78690470D01*
X176803854Y-78570805D01*
X176803849Y-78570801D01*
X176600048Y-78422732D01*
X176600047Y-78422731D01*
X176600045Y-78422730D01*
X176513349Y-78378556D01*
X176375583Y-78308360D01*
X176135985Y-78230510D01*
X176007179Y-78210109D01*
X175887162Y-78191100D01*
X175635238Y-78191100D01*
X175515252Y-78210104D01*
X175386414Y-78230510D01*
X175146816Y-78308360D01*
X174922351Y-78422732D01*
X174718550Y-78570801D01*
X174718545Y-78570805D01*
X174540405Y-78748945D01*
X174540401Y-78748950D01*
X174392332Y-78952751D01*
X174392330Y-78952755D01*
X174326687Y-79081588D01*
X174305385Y-79123395D01*
X174257411Y-79174191D01*
X174194900Y-79191100D01*
X171772782Y-79191100D01*
X171705743Y-79171415D01*
X171667243Y-79132197D01*
X171636027Y-79081588D01*
X171581540Y-78993250D01*
X171467571Y-78879281D01*
X171434086Y-78817958D01*
X171439070Y-78748266D01*
X171467571Y-78703919D01*
X171515989Y-78655501D01*
X171581540Y-78589950D01*
X171672108Y-78443116D01*
X171726374Y-78279353D01*
X171729055Y-78253115D01*
X171733448Y-78210105D01*
X171736700Y-78178277D01*
X171736699Y-77579924D01*
X171726374Y-77478847D01*
X171672108Y-77315084D01*
X171581540Y-77168250D01*
X171542571Y-77129281D01*
X171509086Y-77067958D01*
X171514070Y-76998266D01*
X171542571Y-76953919D01*
X171556451Y-76940039D01*
X171581540Y-76914950D01*
X171672108Y-76768116D01*
X171726374Y-76604353D01*
X171736700Y-76503277D01*
X171736699Y-75904924D01*
X171736675Y-75904692D01*
X171726374Y-75803847D01*
X171702072Y-75730510D01*
X171672108Y-75640084D01*
X171581540Y-75493250D01*
X171467217Y-75378927D01*
X171433732Y-75317604D01*
X171438716Y-75247912D01*
X171467217Y-75203564D01*
X171581148Y-75089633D01*
X171671648Y-74942911D01*
X171671653Y-74942900D01*
X171725880Y-74779252D01*
X171736199Y-74678254D01*
X171736200Y-74678241D01*
X171736200Y-74629100D01*
X170885200Y-74629100D01*
X170818161Y-74609415D01*
X170772406Y-74556611D01*
X170761200Y-74505100D01*
X170761200Y-74379100D01*
X170635200Y-74379100D01*
X170568161Y-74359415D01*
X170522406Y-74306611D01*
X170511200Y-74255100D01*
X170511200Y-74129100D01*
X171011200Y-74129100D01*
X171736199Y-74129100D01*
X171736199Y-74079960D01*
X171736198Y-74079945D01*
X171725880Y-73978947D01*
X171671653Y-73815299D01*
X171671648Y-73815288D01*
X171581147Y-73668565D01*
X171581144Y-73668561D01*
X171459238Y-73546655D01*
X171459234Y-73546652D01*
X171312511Y-73456151D01*
X171312500Y-73456146D01*
X171148852Y-73401919D01*
X171047854Y-73391600D01*
X171011200Y-73391600D01*
X171011200Y-74129100D01*
X170511200Y-74129100D01*
X170511200Y-73391600D01*
X170474561Y-73391600D01*
X170474543Y-73391601D01*
X170373547Y-73401919D01*
X170209899Y-73456146D01*
X170209888Y-73456151D01*
X170063165Y-73546652D01*
X170063161Y-73546655D01*
X169941255Y-73668561D01*
X169941252Y-73668565D01*
X169850751Y-73815288D01*
X169850746Y-73815299D01*
X169842206Y-73841073D01*
X169802433Y-73898518D01*
X169737917Y-73925341D01*
X169669141Y-73913026D01*
X169617942Y-73865483D01*
X169600500Y-73802069D01*
X169600500Y-61282717D01*
X169620185Y-61215678D01*
X169672989Y-61169923D01*
X169742147Y-61159979D01*
X169805703Y-61189004D01*
X169842205Y-61243711D01*
X169850292Y-61268116D01*
X169940860Y-61414950D01*
X170062850Y-61536940D01*
X170209684Y-61627508D01*
X170373447Y-61681774D01*
X170474523Y-61692100D01*
X171047876Y-61692099D01*
X171047884Y-61692098D01*
X171047887Y-61692098D01*
X171103230Y-61686444D01*
X171148953Y-61681774D01*
X171312716Y-61627508D01*
X171459550Y-61536940D01*
X171568071Y-61428419D01*
X171629394Y-61394934D01*
X171655752Y-61392100D01*
X174194900Y-61392100D01*
X174261939Y-61411785D01*
X174305385Y-61459805D01*
X174392332Y-61630448D01*
X174540401Y-61834249D01*
X174540405Y-61834254D01*
X174718545Y-62012394D01*
X174718550Y-62012398D01*
X174896317Y-62141552D01*
X174922355Y-62160470D01*
X175053909Y-62227500D01*
X175146816Y-62274839D01*
X175146818Y-62274839D01*
X175146821Y-62274841D01*
X175386415Y-62352690D01*
X175635238Y-62392100D01*
X175635239Y-62392100D01*
X175887161Y-62392100D01*
X175887162Y-62392100D01*
X176135985Y-62352690D01*
X176375579Y-62274841D01*
X176600045Y-62160470D01*
X176803856Y-62012393D01*
X176923519Y-61892730D01*
X176984842Y-61859245D01*
X177054534Y-61864229D01*
X177098881Y-61892730D01*
X177218545Y-62012394D01*
X177218550Y-62012398D01*
X177419814Y-62158624D01*
X177422355Y-62160470D01*
X177529776Y-62215203D01*
X177561158Y-62238004D01*
X177898906Y-62575752D01*
X177882258Y-62582649D01*
X177751230Y-62670199D01*
X177639799Y-62781630D01*
X177552249Y-62912658D01*
X177545353Y-62929305D01*
X176966948Y-62350900D01*
X176966947Y-62350901D01*
X176892759Y-62453013D01*
X176778419Y-62677415D01*
X176700597Y-62916930D01*
X176661200Y-63165671D01*
X176661200Y-63417528D01*
X176700597Y-63666269D01*
X176778419Y-63905784D01*
X176892757Y-64130183D01*
X176966948Y-64232297D01*
X176966948Y-64232298D01*
X177545352Y-63653893D01*
X177552249Y-63670542D01*
X177639799Y-63801570D01*
X177751230Y-63913001D01*
X177882258Y-64000551D01*
X177898905Y-64007446D01*
X177320500Y-64585850D01*
X177422616Y-64660042D01*
X177647015Y-64774380D01*
X177886530Y-64852202D01*
X178135272Y-64891600D01*
X178387128Y-64891600D01*
X178635869Y-64852202D01*
X178875384Y-64774380D01*
X179099775Y-64660046D01*
X179099781Y-64660042D01*
X179201897Y-64585850D01*
X179201898Y-64585850D01*
X178623494Y-64007446D01*
X178640142Y-64000551D01*
X178771170Y-63913001D01*
X178882601Y-63801570D01*
X178970151Y-63670542D01*
X178977046Y-63653894D01*
X179555450Y-64232298D01*
X179555450Y-64232297D01*
X179629642Y-64130181D01*
X179629646Y-64130175D01*
X179743980Y-63905784D01*
X179821802Y-63666269D01*
X179861200Y-63417528D01*
X179861200Y-63165671D01*
X179821802Y-62916930D01*
X179743980Y-62677415D01*
X179629642Y-62453016D01*
X179555450Y-62350901D01*
X179555450Y-62350900D01*
X178977046Y-62929304D01*
X178970151Y-62912658D01*
X178882601Y-62781630D01*
X178771170Y-62670199D01*
X178640142Y-62582649D01*
X178623492Y-62575752D01*
X178961240Y-62238004D01*
X178992615Y-62215207D01*
X179100045Y-62160470D01*
X179303856Y-62012393D01*
X179423519Y-61892730D01*
X179484842Y-61859245D01*
X179554534Y-61864229D01*
X179598881Y-61892730D01*
X179718545Y-62012394D01*
X179718550Y-62012398D01*
X179896317Y-62141552D01*
X179922355Y-62160470D01*
X180053909Y-62227500D01*
X180146816Y-62274839D01*
X180146818Y-62274839D01*
X180146821Y-62274841D01*
X180386415Y-62352690D01*
X180635238Y-62392100D01*
X180635239Y-62392100D01*
X180887161Y-62392100D01*
X180887162Y-62392100D01*
X181135985Y-62352690D01*
X181375579Y-62274841D01*
X181600045Y-62160470D01*
X181803856Y-62012393D01*
X181981993Y-61834256D01*
X182130070Y-61630445D01*
X182244441Y-61405979D01*
X182322290Y-61166385D01*
X182361700Y-60917562D01*
X182361700Y-60665638D01*
X182322290Y-60416815D01*
X182244441Y-60177221D01*
X182244439Y-60177218D01*
X182244439Y-60177216D01*
X182150703Y-59993250D01*
X182130070Y-59952755D01*
X182070861Y-59871260D01*
X181981998Y-59748950D01*
X181981994Y-59748945D01*
X181803854Y-59570805D01*
X181803849Y-59570801D01*
X181600048Y-59422732D01*
X181600047Y-59422731D01*
X181600045Y-59422730D01*
X181529947Y-59387013D01*
X181375583Y-59308360D01*
X181135985Y-59230510D01*
X180887162Y-59191100D01*
X180635238Y-59191100D01*
X180510826Y-59210805D01*
X180386414Y-59230510D01*
X180146816Y-59308360D01*
X179922351Y-59422732D01*
X179718551Y-59570800D01*
X179598881Y-59690470D01*
X179590935Y-59694808D01*
X179585511Y-59702055D01*
X179560750Y-59711290D01*
X179537558Y-59723954D01*
X179528529Y-59723308D01*
X179520047Y-59726472D01*
X179494224Y-59720855D01*
X179467866Y-59718970D01*
X179458813Y-59713152D01*
X179451774Y-59711621D01*
X179423519Y-59690470D01*
X179362328Y-59629279D01*
X179328845Y-59567959D01*
X179333829Y-59498267D01*
X179362330Y-59453919D01*
X179393519Y-59422730D01*
X179481993Y-59334256D01*
X179630070Y-59130445D01*
X179744441Y-58905979D01*
X179822290Y-58666385D01*
X179861700Y-58417562D01*
X179861700Y-58165638D01*
X179822290Y-57916815D01*
X179744441Y-57677221D01*
X179744439Y-57677218D01*
X179744439Y-57677216D01*
X179702276Y-57594468D01*
X179630070Y-57452755D01*
X179545367Y-57336171D01*
X179481998Y-57248950D01*
X179481994Y-57248945D01*
X179303854Y-57070805D01*
X179303849Y-57070801D01*
X179100048Y-56922732D01*
X179100047Y-56922731D01*
X179100045Y-56922730D01*
X179029947Y-56887013D01*
X178875583Y-56808360D01*
X178635985Y-56730510D01*
X178387162Y-56691100D01*
X178135238Y-56691100D01*
X178010826Y-56710805D01*
X177886414Y-56730510D01*
X177646816Y-56808360D01*
X177422351Y-56922732D01*
X177218550Y-57070801D01*
X177218545Y-57070805D01*
X177040405Y-57248945D01*
X177040401Y-57248950D01*
X176892332Y-57452751D01*
X176777960Y-57677216D01*
X176700110Y-57916814D01*
X176660700Y-58165638D01*
X176660700Y-58417561D01*
X176700110Y-58666385D01*
X176777960Y-58905983D01*
X176892332Y-59130448D01*
X177040401Y-59334249D01*
X177040405Y-59334254D01*
X177160070Y-59453919D01*
X177164408Y-59461864D01*
X177171656Y-59467290D01*
X177180890Y-59492049D01*
X177193555Y-59515242D01*
X177192909Y-59524271D01*
X177196073Y-59532754D01*
X177190456Y-59558574D01*
X177188571Y-59584934D01*
X177182752Y-59593987D01*
X177181221Y-59601027D01*
X177160070Y-59629281D01*
X177098881Y-59690470D01*
X177037558Y-59723955D01*
X176967866Y-59718971D01*
X176923519Y-59690470D01*
X176803854Y-59570805D01*
X176803849Y-59570801D01*
X176600048Y-59422732D01*
X176600047Y-59422731D01*
X176600045Y-59422730D01*
X176529947Y-59387013D01*
X176375583Y-59308360D01*
X176135985Y-59230510D01*
X175887162Y-59191100D01*
X175635238Y-59191100D01*
X175510826Y-59210805D01*
X175386414Y-59230510D01*
X175146816Y-59308360D01*
X174922351Y-59422732D01*
X174718550Y-59570801D01*
X174718545Y-59570805D01*
X174540405Y-59748945D01*
X174540401Y-59748950D01*
X174392332Y-59952751D01*
X174305385Y-60123395D01*
X174257411Y-60174191D01*
X174194900Y-60191100D01*
X171772782Y-60191100D01*
X171705743Y-60171415D01*
X171667243Y-60132197D01*
X171661814Y-60123395D01*
X171581540Y-59993250D01*
X171467571Y-59879281D01*
X171434086Y-59817958D01*
X171439070Y-59748266D01*
X171467571Y-59703919D01*
X171481020Y-59690470D01*
X171581540Y-59589950D01*
X171672108Y-59443116D01*
X171726374Y-59279353D01*
X171736700Y-59178277D01*
X171736699Y-58579924D01*
X171726374Y-58478847D01*
X171672108Y-58315084D01*
X171581540Y-58168250D01*
X171542571Y-58129281D01*
X171509086Y-58067958D01*
X171514070Y-57998266D01*
X171542571Y-57953919D01*
X171556388Y-57940102D01*
X171581540Y-57914950D01*
X171672108Y-57768116D01*
X171726374Y-57604353D01*
X171736700Y-57503277D01*
X171736699Y-56904924D01*
X171736323Y-56901247D01*
X171726374Y-56803847D01*
X171718569Y-56780293D01*
X171672108Y-56640084D01*
X171581540Y-56493250D01*
X171467217Y-56378927D01*
X171433732Y-56317604D01*
X171438716Y-56247912D01*
X171467217Y-56203564D01*
X171581148Y-56089633D01*
X171671648Y-55942911D01*
X171671653Y-55942900D01*
X171725880Y-55779252D01*
X171736199Y-55678254D01*
X171736200Y-55678241D01*
X171736200Y-55629100D01*
X169786201Y-55629100D01*
X169786201Y-55678254D01*
X169796519Y-55779252D01*
X169850746Y-55942900D01*
X169850751Y-55942911D01*
X169941252Y-56089634D01*
X169941255Y-56089638D01*
X170055182Y-56203565D01*
X170088667Y-56264888D01*
X170083683Y-56334580D01*
X170055183Y-56378927D01*
X169940859Y-56493251D01*
X169850293Y-56640081D01*
X169850292Y-56640084D01*
X169796026Y-56803847D01*
X169796026Y-56803848D01*
X169796025Y-56803848D01*
X169785700Y-56904915D01*
X169785700Y-57503269D01*
X169785701Y-57503287D01*
X169796025Y-57604352D01*
X169850292Y-57768115D01*
X169850293Y-57768118D01*
X169940861Y-57914951D01*
X169979829Y-57953919D01*
X170013314Y-58015242D01*
X170008330Y-58084934D01*
X169979829Y-58129281D01*
X169940861Y-58168248D01*
X169850293Y-58315081D01*
X169850292Y-58315084D01*
X169796026Y-58478847D01*
X169796026Y-58478848D01*
X169796025Y-58478848D01*
X169785700Y-58579915D01*
X169785700Y-58954002D01*
X169766015Y-59021041D01*
X169749381Y-59041683D01*
X168519481Y-60271582D01*
X168519479Y-60271585D01*
X168469361Y-60358394D01*
X168469359Y-60358396D01*
X168440425Y-60408509D01*
X168440424Y-60408510D01*
X168440423Y-60408515D01*
X168399499Y-60561243D01*
X168399499Y-60561245D01*
X168399499Y-60729346D01*
X168399500Y-60729359D01*
X168399500Y-75779662D01*
X168379815Y-75846701D01*
X168363181Y-75867343D01*
X167599935Y-76630588D01*
X167538612Y-76664073D01*
X167468920Y-76659089D01*
X167412987Y-76617217D01*
X167401769Y-76599201D01*
X167381938Y-76560281D01*
X167337051Y-76472184D01*
X167337050Y-76472182D01*
X167212109Y-76300213D01*
X167061786Y-76149890D01*
X166889820Y-76024951D01*
X166889115Y-76024591D01*
X166881054Y-76020485D01*
X166830259Y-75972512D01*
X166813463Y-75904692D01*
X166835999Y-75838556D01*
X166881054Y-75799515D01*
X166889816Y-75795051D01*
X166911789Y-75779086D01*
X167061786Y-75670109D01*
X167061788Y-75670106D01*
X167061792Y-75670104D01*
X167212104Y-75519792D01*
X167212106Y-75519788D01*
X167212109Y-75519786D01*
X167337048Y-75347820D01*
X167337047Y-75347820D01*
X167337051Y-75347816D01*
X167433557Y-75158412D01*
X167499246Y-74956243D01*
X167532500Y-74746287D01*
X167532500Y-74533713D01*
X167499246Y-74323757D01*
X167433557Y-74121588D01*
X167337051Y-73932184D01*
X167337049Y-73932181D01*
X167337048Y-73932179D01*
X167212109Y-73760213D01*
X167061786Y-73609890D01*
X166889820Y-73484951D01*
X166889115Y-73484591D01*
X166881054Y-73480485D01*
X166830259Y-73432512D01*
X166813463Y-73364692D01*
X166835999Y-73298556D01*
X166881054Y-73259515D01*
X166889816Y-73255051D01*
X166911789Y-73239086D01*
X167061786Y-73130109D01*
X167061788Y-73130106D01*
X167061792Y-73130104D01*
X167212104Y-72979792D01*
X167212106Y-72979788D01*
X167212109Y-72979786D01*
X167337048Y-72807820D01*
X167337047Y-72807820D01*
X167337051Y-72807816D01*
X167433557Y-72618412D01*
X167499246Y-72416243D01*
X167532500Y-72206287D01*
X167532500Y-71993713D01*
X167499246Y-71783757D01*
X167433557Y-71581588D01*
X167337051Y-71392184D01*
X167337049Y-71392181D01*
X167337048Y-71392179D01*
X167212109Y-71220213D01*
X167061786Y-71069890D01*
X166889817Y-70944949D01*
X166880504Y-70940204D01*
X166829707Y-70892230D01*
X166812912Y-70824409D01*
X166835449Y-70758274D01*
X166880507Y-70719232D01*
X166889555Y-70714622D01*
X166943716Y-70675270D01*
X166943717Y-70675270D01*
X166311408Y-70042962D01*
X166374993Y-70025925D01*
X166489007Y-69960099D01*
X166582099Y-69867007D01*
X166647925Y-69752993D01*
X166664962Y-69689408D01*
X167297270Y-70321717D01*
X167297270Y-70321716D01*
X167336622Y-70267554D01*
X167433095Y-70078217D01*
X167498757Y-69876130D01*
X167498757Y-69876127D01*
X167532000Y-69666246D01*
X167532000Y-69453753D01*
X167498757Y-69243872D01*
X167498757Y-69243869D01*
X167433095Y-69041782D01*
X167336624Y-68852449D01*
X167297270Y-68798282D01*
X167297269Y-68798282D01*
X166664962Y-69430590D01*
X166647925Y-69367007D01*
X166582099Y-69252993D01*
X166489007Y-69159901D01*
X166374993Y-69094075D01*
X166311408Y-69077037D01*
X166943716Y-68444728D01*
X166889547Y-68405373D01*
X166889547Y-68405372D01*
X166880500Y-68400763D01*
X166829706Y-68352788D01*
X166812912Y-68284966D01*
X166835451Y-68218832D01*
X166880508Y-68179793D01*
X166889816Y-68175051D01*
X167006668Y-68090154D01*
X167061786Y-68050109D01*
X167061788Y-68050106D01*
X167061792Y-68050104D01*
X167212104Y-67899792D01*
X167212106Y-67899788D01*
X167212109Y-67899786D01*
X167337048Y-67727820D01*
X167337047Y-67727820D01*
X167337051Y-67727816D01*
X167433557Y-67538412D01*
X167499246Y-67336243D01*
X167532500Y-67126287D01*
X167532500Y-66913713D01*
X167499246Y-66703757D01*
X167433557Y-66501588D01*
X167337051Y-66312184D01*
X167337049Y-66312181D01*
X167337048Y-66312179D01*
X167212109Y-66140213D01*
X167061786Y-65989890D01*
X166889820Y-65864951D01*
X166889115Y-65864591D01*
X166881054Y-65860485D01*
X166830259Y-65812512D01*
X166813463Y-65744692D01*
X166835999Y-65678556D01*
X166881054Y-65639515D01*
X166889816Y-65635051D01*
X166992608Y-65560369D01*
X167061786Y-65510109D01*
X167061788Y-65510106D01*
X167061792Y-65510104D01*
X167212104Y-65359792D01*
X167212106Y-65359788D01*
X167212109Y-65359786D01*
X167337048Y-65187820D01*
X167337047Y-65187820D01*
X167337051Y-65187816D01*
X167433557Y-64998412D01*
X167499246Y-64796243D01*
X167532500Y-64586287D01*
X167532500Y-64373713D01*
X167499246Y-64163757D01*
X167433557Y-63961588D01*
X167337051Y-63772184D01*
X167337049Y-63772181D01*
X167337048Y-63772179D01*
X167212109Y-63600213D01*
X167061786Y-63449890D01*
X166889820Y-63324951D01*
X166700411Y-63228442D01*
X166695277Y-63226774D01*
X166637603Y-63187334D01*
X166610408Y-63122974D01*
X166610861Y-63091203D01*
X166621500Y-63017213D01*
X166621500Y-56004108D01*
X166609900Y-55896438D01*
X166598649Y-55844828D01*
X166598646Y-55844820D01*
X166598644Y-55844811D01*
X166564385Y-55742107D01*
X166564384Y-55742105D01*
X166564384Y-55742104D01*
X166486491Y-55621132D01*
X166480686Y-55614445D01*
X166440692Y-55568370D01*
X166331873Y-55474244D01*
X166331871Y-55474243D01*
X166200946Y-55414588D01*
X166200937Y-55414585D01*
X166133891Y-55394961D01*
X166133868Y-55394957D01*
X165991454Y-55374608D01*
X165991451Y-55374607D01*
X137233419Y-55399834D01*
X137107579Y-55415859D01*
X137047813Y-55431277D01*
X137047797Y-55431282D01*
X136929936Y-55478119D01*
X136929931Y-55478122D01*
X136815125Y-55564827D01*
X136815116Y-55564834D01*
X136766043Y-55614326D01*
X136765937Y-55614431D01*
X136765917Y-55614455D01*
X136680190Y-55729994D01*
X136680187Y-55729999D01*
X136303613Y-56426661D01*
X136284930Y-56469961D01*
X136268335Y-56508421D01*
X136268332Y-56508428D01*
X136268328Y-56508439D01*
X136254680Y-56549740D01*
X136234296Y-56636417D01*
X136234296Y-56780293D01*
X136234297Y-56780297D01*
X136244241Y-56849455D01*
X136244242Y-56849458D01*
X136244243Y-56849465D01*
X136259958Y-56902986D01*
X136259958Y-56972856D01*
X136240248Y-57012230D01*
X136168806Y-57107665D01*
X136168802Y-57107671D01*
X136118508Y-57242517D01*
X136112101Y-57302116D01*
X136112100Y-57302135D01*
X136112100Y-57470823D01*
X136092415Y-57537862D01*
X136039611Y-57583617D01*
X135997473Y-57594468D01*
X135951198Y-57597975D01*
X135951197Y-57597976D01*
X135922472Y-57604353D01*
X135882984Y-57613119D01*
X135882983Y-57613119D01*
X135801249Y-57644000D01*
X135748394Y-57663971D01*
X135748393Y-57663971D01*
X135748392Y-57663972D01*
X135633582Y-57750680D01*
X135633579Y-57750683D01*
X135584511Y-57800168D01*
X135584387Y-57800292D01*
X135498647Y-57915846D01*
X133174223Y-62216031D01*
X133174219Y-62216041D01*
X133128853Y-62332433D01*
X133128850Y-62332444D01*
X133113938Y-62391392D01*
X133113937Y-62391399D01*
X133106265Y-62453016D01*
X133098500Y-62515372D01*
X133098500Y-65645306D01*
X133078815Y-65712345D01*
X133026011Y-65758100D01*
X132956853Y-65768044D01*
X132917477Y-65753845D01*
X132916895Y-65754989D01*
X132723217Y-65656304D01*
X132521128Y-65590642D01*
X132330000Y-65560369D01*
X132330000Y-66503254D01*
X132263343Y-66464770D01*
X132142535Y-66432400D01*
X132017465Y-66432400D01*
X131896657Y-66464770D01*
X131830000Y-66503254D01*
X131830000Y-65560369D01*
X131638872Y-65590642D01*
X131638869Y-65590642D01*
X131436782Y-65656304D01*
X131247442Y-65752779D01*
X131075540Y-65877672D01*
X131075535Y-65877676D01*
X130925276Y-66027935D01*
X130925272Y-66027940D01*
X130800379Y-66199842D01*
X130703904Y-66389182D01*
X130638242Y-66591270D01*
X130638242Y-66591273D01*
X130627769Y-66657400D01*
X131675854Y-66657400D01*
X131637370Y-66724057D01*
X131605000Y-66844865D01*
X131605000Y-66969935D01*
X131637370Y-67090743D01*
X131675854Y-67157400D01*
X130627769Y-67157400D01*
X130638242Y-67223526D01*
X130638242Y-67223529D01*
X130703904Y-67425617D01*
X130800379Y-67614957D01*
X130925272Y-67786859D01*
X130925276Y-67786864D01*
X131075535Y-67937123D01*
X131075540Y-67937127D01*
X131240218Y-68056772D01*
X131282884Y-68112101D01*
X131288863Y-68181715D01*
X131256258Y-68243510D01*
X131240218Y-68257408D01*
X131075214Y-68377290D01*
X131075209Y-68377294D01*
X130924890Y-68527613D01*
X130799951Y-68699579D01*
X130703444Y-68888985D01*
X130637753Y-69091160D01*
X130604500Y-69301113D01*
X130604500Y-69513686D01*
X130637753Y-69723640D01*
X130637754Y-69723644D01*
X130664805Y-69806899D01*
X130666800Y-69876740D01*
X130634555Y-69932897D01*
X127432725Y-73134728D01*
X127432719Y-73134736D01*
X127394314Y-73192213D01*
X127394315Y-73192214D01*
X127361534Y-73241274D01*
X127312499Y-73359655D01*
X127312497Y-73359661D01*
X127287500Y-73485328D01*
X121141700Y-73485328D01*
X121141700Y-54231947D01*
X132612600Y-54231947D01*
X132612600Y-55200000D01*
X133612600Y-55200000D01*
X133612600Y-55700000D01*
X132612600Y-55700000D01*
X132612600Y-56668052D01*
X132649534Y-56901247D01*
X132722497Y-57125802D01*
X132829685Y-57336171D01*
X132968466Y-57527186D01*
X133135413Y-57694133D01*
X133326428Y-57832914D01*
X133536795Y-57940102D01*
X133761344Y-58013063D01*
X133761350Y-58013065D01*
X133862600Y-58029101D01*
X133862600Y-56983012D01*
X133919607Y-57015925D01*
X134046774Y-57050000D01*
X134178426Y-57050000D01*
X134305593Y-57015925D01*
X134362600Y-56983012D01*
X134362600Y-58029100D01*
X134463849Y-58013065D01*
X134463855Y-58013063D01*
X134688404Y-57940102D01*
X134898771Y-57832914D01*
X135089786Y-57694133D01*
X135256733Y-57527186D01*
X135395514Y-57336171D01*
X135502702Y-57125802D01*
X135575665Y-56901247D01*
X135612600Y-56668052D01*
X135612600Y-55700000D01*
X134612600Y-55700000D01*
X134612600Y-55200000D01*
X135612600Y-55200000D01*
X135612600Y-55079945D01*
X169786200Y-55079945D01*
X169786200Y-55129100D01*
X170511200Y-55129100D01*
X171011200Y-55129100D01*
X171736199Y-55129100D01*
X171736199Y-55079960D01*
X171736198Y-55079945D01*
X171725880Y-54978947D01*
X171671653Y-54815299D01*
X171671648Y-54815288D01*
X171581147Y-54668565D01*
X171581144Y-54668561D01*
X171459238Y-54546655D01*
X171459234Y-54546652D01*
X171312511Y-54456151D01*
X171312500Y-54456146D01*
X171148852Y-54401919D01*
X171047854Y-54391600D01*
X171011200Y-54391600D01*
X171011200Y-55129100D01*
X170511200Y-55129100D01*
X170511200Y-54391600D01*
X170474561Y-54391600D01*
X170474543Y-54391601D01*
X170373547Y-54401919D01*
X170209899Y-54456146D01*
X170209888Y-54456151D01*
X170063165Y-54546652D01*
X170063161Y-54546655D01*
X169941255Y-54668561D01*
X169941252Y-54668565D01*
X169850751Y-54815288D01*
X169850746Y-54815299D01*
X169796519Y-54978947D01*
X169786200Y-55079945D01*
X135612600Y-55079945D01*
X135612600Y-54231947D01*
X135575665Y-53998752D01*
X135502702Y-53774197D01*
X135395514Y-53563828D01*
X135256733Y-53372813D01*
X135089786Y-53205866D01*
X134898771Y-53067085D01*
X134688402Y-52959897D01*
X134463847Y-52886934D01*
X134362600Y-52870897D01*
X134362600Y-53916988D01*
X134305593Y-53884075D01*
X134178426Y-53850000D01*
X134046774Y-53850000D01*
X133919607Y-53884075D01*
X133862600Y-53916988D01*
X133862600Y-52870897D01*
X133761352Y-52886934D01*
X133536797Y-52959897D01*
X133326428Y-53067085D01*
X133135413Y-53205866D01*
X132968466Y-53372813D01*
X132829685Y-53563828D01*
X132722497Y-53774197D01*
X132649534Y-53998752D01*
X132612600Y-54231947D01*
X121141700Y-54231947D01*
X121141700Y-51800000D01*
X136333498Y-51800000D01*
X137379588Y-51800000D01*
X137346675Y-51857007D01*
X137312600Y-51984174D01*
X137312600Y-52115826D01*
X137346675Y-52242993D01*
X137379588Y-52300000D01*
X136333498Y-52300000D01*
X136349534Y-52401247D01*
X136422497Y-52625802D01*
X136529685Y-52836171D01*
X136668466Y-53027186D01*
X136835413Y-53194133D01*
X137026428Y-53332914D01*
X137236797Y-53440102D01*
X137461352Y-53513065D01*
X137461351Y-53513065D01*
X137694548Y-53550000D01*
X138662600Y-53550000D01*
X138662600Y-52550000D01*
X139162600Y-52550000D01*
X139162600Y-53550000D01*
X140130652Y-53550000D01*
X140363847Y-53513065D01*
X140588402Y-53440102D01*
X140798771Y-53332914D01*
X140989786Y-53194133D01*
X141156733Y-53027186D01*
X141295514Y-52836171D01*
X141402702Y-52625802D01*
X141475665Y-52401247D01*
X141491702Y-52300000D01*
X140445612Y-52300000D01*
X140478525Y-52242993D01*
X140512600Y-52115826D01*
X140512600Y-51984174D01*
X140478525Y-51857007D01*
X140445612Y-51800000D01*
X141491702Y-51800000D01*
X141475665Y-51698752D01*
X141402702Y-51474197D01*
X141295514Y-51263828D01*
X141156733Y-51072813D01*
X140989786Y-50905866D01*
X140798771Y-50767085D01*
X140588402Y-50659897D01*
X140363847Y-50586934D01*
X140363848Y-50586934D01*
X140130652Y-50550000D01*
X139162600Y-50550000D01*
X139162600Y-51550000D01*
X138662600Y-51550000D01*
X138662600Y-50550000D01*
X137694548Y-50550000D01*
X137461352Y-50586934D01*
X137236797Y-50659897D01*
X137026428Y-50767085D01*
X136835413Y-50905866D01*
X136668466Y-51072813D01*
X136529685Y-51263828D01*
X136422497Y-51474197D01*
X136349534Y-51698752D01*
X136333498Y-51800000D01*
X121141700Y-51800000D01*
X121141700Y-49452706D01*
X121141818Y-49447297D01*
X121144577Y-49384108D01*
X121158586Y-49063226D01*
X121159526Y-49052495D01*
X121209352Y-48674025D01*
X121211225Y-48663405D01*
X121293849Y-48290709D01*
X121296640Y-48280295D01*
X121411430Y-47916227D01*
X121415117Y-47906095D01*
X121561203Y-47553412D01*
X121565761Y-47543638D01*
X121742022Y-47205045D01*
X121747417Y-47195700D01*
X121952525Y-46873744D01*
X121958715Y-46864905D01*
X122191096Y-46562060D01*
X122198034Y-46553791D01*
X122455926Y-46272352D01*
X122463552Y-46264726D01*
X122744991Y-46006834D01*
X122753260Y-45999896D01*
X123056105Y-45767515D01*
X123064944Y-45761325D01*
X123386900Y-45556217D01*
X123396245Y-45550822D01*
X123734838Y-45374561D01*
X123744612Y-45370003D01*
X124097295Y-45223917D01*
X124107427Y-45220230D01*
X124471495Y-45105440D01*
X124481909Y-45102649D01*
X124854605Y-45020025D01*
X124865225Y-45018152D01*
X125243695Y-44968326D01*
X125254426Y-44967386D01*
X125638497Y-44950617D01*
X125643906Y-44950500D01*
X125707092Y-44950500D01*
X191784108Y-44950500D01*
X191847294Y-44950500D01*
X191852702Y-44950617D01*
G37*
%TD.AperFunction*%
%TD*%
M02*
